<?xml version="1.0" standalone="no"?>
<!DOCTYPE svg PUBLIC "-//W3C//DTD SVG 1.1//EN" "http://www.w3.org/Graphics/SVG/1.1/DTD/svg11.dtd" >
<svg xmlns="http://www.w3.org/2000/svg" xmlns:xlink="http://www.w3.org/1999/xlink" version="1.1">
<metadata>
Created by FontForge 20150824 at Mon Mar 14 00:15:58 2016
 By Everything Fonts
Copyright (c) 2010 - 2012, Matt McInerney (matt@pixelspread.com), Pablo Impallari(impallari@gmail.com), Rodrigo Fuenzalida (hello@rfuenzalida.com) with Reserved Font Name "Raleway"
</metadata>
<defs>
<font id="RalewayHeavy" horiz-adv-x="286" >
  <font-face 
    font-family="RalewayHeavy"
    font-weight="900"
    font-stretch="normal"
    units-per-em="1000"
    panose-1="2 11 0 3 3 1 1 6 0 3"
    ascent="800"
    descent="-200"
    x-height="526"
    cap-height="710"
    bbox="-188 -234 1227 932"
    underline-thickness="50"
    underline-position="-150"
    unicode-range="U+000D-FB06"
  />
<missing-glyph horiz-adv-x="0" 
 />
    <glyph glyph-name="f_f" unicode="ff" horiz-adv-x="700" 
d="M614 580q-47 0 -47 -51v-64h115v-143h-115v-322h-190v322h-99v-322h-190v322h-65v143h65v23q0 49 13.5 89.5t39 69t62 44t81.5 15.5q62 0 142 -30q26 30 62.5 47t84.5 17q63 0 143 -30l-32 -144q-17 6 -36.5 10t-33.5 4zM377 537q-14 4 -28 6.5t-25 2.5q-46 0 -46 -51
v-30h99v72z" />
    <glyph glyph-name="f_i" unicode="fi" horiz-adv-x="625" 
d="M88 322h-65v143h65v57q0 49 17.5 89.5t49.5 69t75.5 44t96.5 15.5q58 0 112.5 -19.5t117.5 -60.5l-72 -144q-35 30 -72.5 47t-72.5 17q-29 0 -45.5 -12.5t-16.5 -38.5v-64h299v-465h-190v322h-109v-322h-190v322z" />
    <glyph glyph-name="f_l" unicode="fl" horiz-adv-x="727" 
d="M723 24q-1 -1 -15 -6.5t-35.5 -11.5t-48.5 -10.5t-54 -4.5q-38 0 -67.5 10t-50 27.5t-31.5 40t-11 48.5v346q0 18 -2 38.5t-8.5 38t-20 29t-37.5 11.5q-36 0 -50 -25.5t-14 -60.5v-29h69v-143h-69v-322h-190v322h-65v143h65v75q0 52 18.5 90t51.5 62.5t79.5 36
t102.5 11.5q68 0 117 -16.5t81 -46.5t47 -72.5t15 -94.5v-293q0 -19 9.5 -38t33.5 -19q8 0 18 2.5t18 5.5t14 5.5t7 2.5z" />
    <glyph glyph-name="f_f_i" unicode="ffi" horiz-adv-x="915" 
d="M88 322h-65v143h65v23q0 49 13.5 89.5t39 69t62 44t81.5 15.5q62 0 142 -30q32 30 79.5 47t107.5 17q51 0 108.5 -19t124.5 -61l-72 -144q-32 29 -71 46.5t-69 17.5q-67 0 -67 -51v-64h300v-465h-191v322h-109v-322h-190v322h-99v-322h-190v322zM377 465v72
q-14 4 -28 6.5t-25 2.5q-46 0 -46 -51v-30h99z" />
    <glyph glyph-name="f_f_l" unicode="ffl" horiz-adv-x="1015" 
d="M858 -9q-38 0 -67.5 10t-50 27.5t-31.5 40t-11 48.5v346q0 18 -2 38.5t-8.5 38t-20 29t-37.5 11.5q-36 0 -50 -25.5t-14 -60.5v-29h69v-143h-69v-322h-190v322h-98v-322h-190v322h-65v143h65v23q0 49 14 89.5t39 69t60.5 44t79.5 15.5q66 0 146 -30q33 33 84.5 48.5
t116.5 15.5q68 0 117 -16.5t81 -46.5t47 -72.5t15 -94.5v-293q0 -19 9.5 -38t33.5 -19q8 0 18 2.5t18 5.5t14 5.5t7 2.5l23 -152q-1 -1 -15 -6.5t-35.5 -11.5t-48.5 -10.5t-54 -4.5zM376 465v73q-29 8 -52 8q-46 0 -46 -51v-30h98z" />
    <glyph glyph-name=".notdef" horiz-adv-x="0" 
 />
    <glyph glyph-name=".null" horiz-adv-x="0" 
 />
    <glyph glyph-name="nonmarkingreturn" unicode="&#xd;" horiz-adv-x="0" 
 />
    <glyph glyph-name="NULL" horiz-adv-x="0" 
 />
    <glyph glyph-name="NULL" horiz-adv-x="0" 
 />
    <glyph glyph-name="space" unicode=" " horiz-adv-x="225" 
 />
    <glyph glyph-name="exclam" unicode="!" horiz-adv-x="328" 
d="M69 300v417h190v-417h-190zM69 0v184h190v-184h-190z" />
    <glyph glyph-name="quotedbl" unicode="&#x22;" horiz-adv-x="476" 
d="M53 496v234h160v-234h-160zM263 496v234h160v-234h-160z" />
    <glyph glyph-name="numbersign" unicode="#" horiz-adv-x="757" 
d="M721 397h-159l-20 -87h128v-140h-162l-41 -170h-151l42 170h-60l-41 -170h-151l42 170h-112v140h146l20 87h-115v130h147l45 183h151l-46 -183h60l45 183h151l-46 -183h127v-130zM392 310l20 87h-60l-20 -87h60z" />
    <glyph glyph-name="dollar" unicode="$" horiz-adv-x="649" 
d="M510 478q-22 14 -48 26q-22 11 -49.5 20.5t-55.5 14.5v-90q9 -2 19 -5.5t21 -6.5q49 -15 88.5 -33t67.5 -42.5t43 -59.5t15 -85q0 -59 -20.5 -100.5t-54 -68t-76.5 -40t-89 -16.5v-121h-80v123q-69 6 -137 27t-122 53l84 171q27 -17 58 -32q26 -13 60.5 -25.5t70.5 -17.5
v88q-31 8 -62 19q-47 16 -81 34.5t-56 42t-32.5 53.5t-10.5 69q0 54 18 95.5t49 71.5t72.5 48t88.5 23v101h80v-102q33 -4 64 -12t59.5 -18.5t53.5 -22t46 -21.5zM401 198q0 14 -12 24.5t-32 18.5v-74q24 2 34 10t10 21zM265 508q0 -15 10 -24.5t30 -17.5v76q-40 -5 -40 -34
z" />
    <glyph glyph-name="percent" unicode="%" horiz-adv-x="851" 
d="M211 404q-38 0 -70.5 12.5t-56.5 33.5t-37.5 50t-13.5 62t13.5 62t37.5 50t56.5 33.5t70.5 12.5q37 0 69.5 -12.5t56.5 -33.5t38 -50t14 -62t-14 -62t-38 -50t-56.5 -33.5t-69.5 -12.5zM211 494q20 0 34 20t14 48t-14 48t-34 20t-34 -20t-14 -48t14 -48t34 -20zM640 -10
q-38 0 -70.5 12.5t-56.5 33.5t-37.5 50t-13.5 62t13.5 62t37.5 50t56.5 33.5t70.5 12.5q37 0 69.5 -12.5t56.5 -33.5t38 -50t14 -62t-14 -62t-38 -50t-56.5 -33.5t-69.5 -12.5zM640 80q20 0 34 20t14 48t-14 48t-34 20t-34 -20t-14 -48t14 -48t34 -20zM117 65l283 319
l251 337l83 -75l-271 -309l-263 -347z" />
    <glyph glyph-name="ampersand" unicode="&#x26;" horiz-adv-x="753" 
d="M506 0l-38 40q-43 -26 -89.5 -38t-93.5 -12q-62 0 -108.5 20t-78 52t-47.5 72.5t-16 81.5q0 61 29.5 105.5t70.5 77.5q-32 39 -45 69.5t-13 67.5q0 43 16 77.5t43.5 57.5t65.5 35.5t83 12.5q39 0 76.5 -9.5t67 -30t47.5 -53t18 -78.5q0 -54 -25 -97t-67 -79l82 -87
q11 28 17 60.5t6 70.5h153q-1 -77 -18 -138.5t-46 -110.5l159 -167h-249zM305 138q30 0 59 13l-113 121q-34 -28 -34 -56q0 -11 4.5 -24.5t15 -25.5t27.5 -20t41 -8zM249 544q0 -13 7.5 -22.5t25.5 -26.5q20 14 29 24.5t9 26.5q0 17 -9.5 26t-25.5 9q-17 0 -26.5 -10.5
t-9.5 -26.5z" />
    <glyph glyph-name="quotesingle" unicode="'" horiz-adv-x="266" 
d="M53 496v234h160v-234h-160z" />
    <glyph glyph-name="parenleft" unicode="(" horiz-adv-x="342" 
d="M25 348q0 51 12 102.5t33 104t49.5 107t61.5 110.5l145 -58q-12 -19 -32.5 -58.5t-41 -90.5t-35.5 -108.5t-15 -111.5q0 -82 34.5 -166t84.5 -178l-138 -67q-31 46 -59.5 96.5t-50.5 103t-35 106.5t-13 108z" />
    <glyph glyph-name="parenright" unicode=")" horiz-adv-x="342" 
d="M317 348q0 -54 -13 -108t-35 -106.5t-50.5 -103t-59.5 -96.5l-138 67q50 94 84.5 178t34.5 166q0 54 -15 111.5t-35.5 108.5t-41 90.5t-32.5 58.5l145 58q33 -56 61.5 -110.5t49.5 -107t33 -104t12 -102.5z" />
    <glyph glyph-name="asterisk" unicode="*" horiz-adv-x="364" 
d="M65 499l49 78l-72 21l24 77l75 -36l-7 82h96l-7 -82l75 36l24 -77l-72 -21l49 -78l-69 -45l-48 83l-48 -83z" />
    <glyph glyph-name="plus" unicode="+" horiz-adv-x="428" 
d="M384 430v-150h-85v-95h-170v95h-85v150h85v95h170v-95h85z" />
    <glyph glyph-name="comma" unicode="," horiz-adv-x="263" 
d="M13 -20q3 0 10 1t14 5.5t12.5 12t6.5 21.5v164h154v-202q0 -41 -19.5 -67t-48.5 -41t-64 -21t-65 -6v133z" />
    <glyph glyph-name="hyphen" unicode="-" horiz-adv-x="413" 
d="M50 191v170h313v-170h-313z" />
    <glyph glyph-name="period" unicode="." horiz-adv-x="254" 
d="M50 0v184h154v-184h-154z" />
    <glyph glyph-name="slash" unicode="/" horiz-adv-x="776" 
d="M752 710l-516 -710h-209l515 710h210z" />
    <glyph glyph-name="zero" unicode="0" horiz-adv-x="614" 
d="M572 293q0 -66 -20 -121.5t-55.5 -96t-84 -63t-105.5 -22.5t-105.5 22.5t-84 63t-55.5 96t-20 121.5t20 121.5t55.5 96t84 63.5t105.5 23t105.5 -23t84 -63.5t55.5 -96t20 -121.5zM380 293q0 58 -20.5 94t-52.5 36q-34 0 -54.5 -36t-20.5 -94t20.5 -93.5t54.5 -35.5
q32 0 52.5 35.5t20.5 93.5z" />
    <glyph glyph-name="one" unicode="1" horiz-adv-x="547" 
d="M523 170v-170h-463v170h142v199q-9 -12 -28 -23.5t-42.5 -21.5t-47.5 -16t-43 -6v174q14 0 39 10.5t50 25t45.5 31t26.5 28.5h194v-401h127z" />
    <glyph glyph-name="two" unicode="2" horiz-adv-x="600" 
d="M32 0q0 50 8 88t26 68.5t46.5 54.5t70.5 47q54 29 85.5 46.5t47.5 28.5t20.5 18.5t4.5 16.5q0 25 -16 37t-44 12q-33 0 -62.5 -17t-61.5 -55l-120 141q19 21 49 38.5t66.5 30t77.5 19.5t84 7q115 0 174.5 -47.5t59.5 -132.5q0 -31 -8 -55t-21.5 -43.5t-32.5 -35.5
t-40 -30q-25 -17 -52.5 -32.5t-54.5 -34.5h220v-170h-527z" />
    <glyph glyph-name="three" unicode="3" horiz-adv-x="579" 
d="M408 237q31 -5 56.5 -21t44 -40t29 -54.5t10.5 -64.5q0 -47 -20 -85t-56.5 -64.5t-89.5 -40.5t-119 -14q-77 0 -136 19.5t-107 60.5l97 138q29 -23 61.5 -33.5t74.5 -10.5q51 0 74.5 15.5t23.5 49.5q0 38 -30 54.5t-98 16.5h-31v132h35q48 0 77 18.5t29 50.5
q0 24 -17 37.5t-48 13.5q-35 0 -65.5 -17.5t-53.5 -52.5l-120 141q18 20 45.5 36.5t62 28.5t73.5 18.5t80 6.5q55 0 101 -12.5t78 -35.5t50 -55.5t18 -72.5q0 -30 -10 -57t-27 -49t-40.5 -37t-51.5 -20z" />
    <glyph glyph-name="four" unicode="4" horiz-adv-x="584" 
d="M277 -127v124h-257v170l317 404h130v-404h88v-170h-88v-124h-190zM207 167h92v120z" />
    <glyph glyph-name="five" unicode="5" horiz-adv-x="558" 
d="M296 326q52 0 95 -17t74.5 -47.5t49 -73t17.5 -93.5q0 -54 -20 -99t-56.5 -77t-87 -50t-111.5 -18q-78 0 -140.5 29t-96.5 83l104 120q29 -31 64.5 -48.5t69.5 -17.5q37 0 58 20t21 54q0 33 -19 53t-50 20q-21 0 -38.5 -9.5t-26.5 -25.5h-163l84 442h356v-173h-219
l-11 -77q4 1 11 2q5 1 14 2t21 1z" />
    <glyph glyph-name="six" unicode="6" horiz-adv-x="608" 
d="M572 240q0 -53 -20 -98.5t-56 -79t-84.5 -53t-105.5 -19.5q-128 0 -197.5 92t-69.5 258q0 88 19.5 157.5t56.5 118t90 74.5t120 26q130 0 226 -96l-105 -122q-54 54 -124 54q-49 0 -77.5 -29.5t-30.5 -83.5q38 34 108 34q54 0 99.5 -17.5t79 -49t52.5 -74t19 -92.5z
M306 149q17 0 32.5 7.5t27 20t18.5 29t7 34.5q0 35 -25 59.5t-60 24.5t-60 -24.5t-25 -59.5q0 -18 7 -34.5t18.5 -29t27 -20t32.5 -7.5z" />
    <glyph glyph-name="seven" unicode="7" horiz-adv-x="595" 
d="M301 411h-271v173h570l-347 -710h-215z" />
    <glyph glyph-name="eight" unicode="8" horiz-adv-x="612" 
d="M574 221q0 -52 -21 -94.5t-57.5 -73t-85.5 -47t-104 -16.5q-53 0 -101.5 16.5t-85.5 47.5t-59 75t-22 98q0 27 8 50t20.5 42t27.5 34t30 26q-29 17 -47.5 51t-18.5 69q0 51 23.5 90.5t59.5 66.5t80 40.5t85 13.5t85 -13.5t80.5 -39.5t60 -65.5t23.5 -90.5q0 -35 -19 -70
t-48 -52q15 -11 30.5 -26.5t27.5 -35.5t20 -44t8 -52zM381 232q0 33 -21.5 51t-53.5 18q-33 0 -54 -18.5t-21 -50.5q0 -29 21.5 -49t53.5 -20q33 0 54 20t21 49zM251 495q0 -27 17.5 -40t37.5 -13t38 13t18 40q0 20 -15.5 34t-40.5 14t-40 -14t-15 -34z" />
    <glyph glyph-name="nine" unicode="9" horiz-adv-x="590" 
d="M27 321q0 52 20 98t56 79.5t84.5 53t105.5 19.5q64 0 113.5 -23.5t83.5 -68.5t52 -110t18 -148q0 -88 -19.5 -157.5t-56.5 -118t-90 -74.5t-120 -26q-130 0 -226 96l105 122q54 -54 124 -54q49 0 77.5 29.5t30.5 83.5q-38 -34 -108 -34q-54 0 -99.5 17.5t-79 49t-52.5 74
t-19 92.5zM293 412q-17 0 -32.5 -7.5t-27 -20t-18.5 -29t-7 -34.5q0 -35 25 -59.5t60 -24.5t60 24.5t25 59.5q0 18 -7 34.5t-18.5 29t-27 20t-32.5 7.5z" />
    <glyph glyph-name="colon" unicode=":" horiz-adv-x="282" 
d="M64 335v184h154v-184h-154zM64 0v184h154v-184h-154z" />
    <glyph glyph-name="semicolon" unicode=";" horiz-adv-x="282" 
d="M64 335v184h154v-184h-154zM21 -20q3 0 10 1t14 5.5t12.5 12t6.5 21.5v164h154v-202q0 -41 -19.5 -67t-48.5 -41t-64 -21t-65 -6v133z" />
    <glyph glyph-name="less" unicode="&#x3c;" horiz-adv-x="512" 
d="M31 298l424 258v-202l-148 -95l148 -87v-212l-424 250v88z" />
    <glyph glyph-name="equal" unicode="=" horiz-adv-x="433" 
d="M55 101v120h323v-120h-323zM55 331v120h323v-120h-323z" />
    <glyph glyph-name="greater" unicode="&#x3e;" horiz-adv-x="512" 
d="M481 210l-424 -250v212l148 87l-148 95v202l424 -258v-88z" />
    <glyph glyph-name="question" unicode="?" horiz-adv-x="499" 
d="M98 259q0 21 2 41.5t10 39t24 35.5t43 31q11 6 31.5 16t41 24t35.5 31.5t15 38.5q0 23 -18 36.5t-42 13.5q-18 0 -31 -7t-22.5 -17t-16 -20.5t-12.5 -17.5l-121 86q26 61 82 95t128 34q38 0 77 -11t70.5 -35t51 -63t19.5 -95q0 -48 -17.5 -87.5t-62.5 -69.5
q-22 -15 -45 -26t-42.5 -22t-32 -23t-12.5 -28h-155zM101 0v164h155v-164h-155z" />
    <glyph glyph-name="at" unicode="@" horiz-adv-x="845" 
d="M426 603q73 0 142 -22.5t122.5 -69t85.5 -118.5t32 -172q0 -14 -1.5 -37t-6.5 -49t-15.5 -53t-28.5 -49t-45 -35.5t-65 -13.5q-28 0 -47 7t-31 18t-18 24t-8 24q-34 -32 -77.5 -51t-97.5 -19q-41 0 -71.5 11.5t-50.5 32t-29.5 47.5t-9.5 58q0 45 17.5 75t45.5 49t62.5 27
t69.5 8q41 0 66 -8t39 -15q0 20 -5 37t-17 29t-32.5 18.5t-51.5 6.5q-42 0 -74.5 -11t-52.5 -30l-32 97q38 26 83 37.5t95 11.5q72 0 112 -21t59 -53t22.5 -69t3.5 -70v-67q0 -22 1 -44t6 -40t14.5 -29t27.5 -11q24 0 37.5 19t21 45.5t9.5 53.5t2 43q0 67 -22 123.5
t-63 97.5t-99 64t-131 23q-72 0 -129.5 -23t-97 -63.5t-60.5 -96t-21 -121.5q0 -63 19.5 -118.5t57 -97t91.5 -65.5t124 -24q26 0 47 3.5t39.5 8.5t35.5 12t36 14l20 -68q-43 -20 -89.5 -30t-91.5 -10q-75 0 -141 26.5t-115.5 75.5t-78 118.5t-28.5 156.5q0 92 32 161.5
t85.5 116.5t123.5 70.5t147 23.5zM461 107q23 11 33.5 25t10.5 34v23q-15 6 -42.5 12.5t-56.5 6.5q-41 0 -64 -15.5t-23 -48.5q0 -7 2 -17t8 -19t17.5 -15.5t31.5 -6.5t42 6t41 15z" />
    <glyph glyph-name="A" unicode="A" horiz-adv-x="671" 
d="M-8 0l265 710h158l264 -710h-206l-43 139h-189l-42 -139h-207zM336 507l-66 -238h129z" />
    <glyph glyph-name="B" unicode="B" horiz-adv-x="689" 
d="M665 182q0 -48 -20 -82.5t-55 -56.5t-81.5 -32.5t-98.5 -10.5h-349v710h412q37 0 67 -16t51 -41.5t32.5 -58t11.5 -66.5q0 -50 -25.5 -95.5t-76.5 -68.5q61 -18 96.5 -62.5t35.5 -119.5zM467 222q0 26 -14 43.5t-36 17.5h-161v-119h154q24 0 40.5 15t16.5 43zM256 544
v-109h133q20 0 36.5 11t16.5 44q0 29 -14 41.5t-33 12.5h-139z" />
    <glyph glyph-name="C" unicode="C" horiz-adv-x="655" 
d="M22 361q0 65 23 128t67.5 113t108 81t144.5 31q95 0 166 -42.5t105 -112.5l-149 -106q-9 26 -23.5 43t-31.5 27t-36 14t-35 4q-37 0 -63.5 -16.5t-44 -43t-25.5 -60t-8 -66.5q0 -37 9.5 -71t28 -60t45 -41.5t60.5 -15.5q17 0 35 4.5t34.5 15t30 27t21.5 40.5l159 -95
q-15 -39 -45.5 -70t-69.5 -52t-83 -32t-86 -11q-74 0 -136 31.5t-106.5 83.5t-69.5 118t-25 134z" />
    <glyph glyph-name="D" unicode="D" horiz-adv-x="717" 
d="M61 0v710h273q88 0 155 -28t112 -76t68 -112.5t23 -137.5q0 -81 -25.5 -146.5t-72.5 -112t-113 -72t-147 -25.5h-273zM494 356q0 41 -11 75t-31.5 58t-50.5 37.5t-67 13.5h-78v-370h78q38 0 68 14t50.5 39t31 59t10.5 74z" />
    <glyph glyph-name="E" unicode="E" horiz-adv-x="597" 
d="M567 170v-170h-506v710h497v-170h-302v-100h258v-158h-258v-112h311z" />
    <glyph glyph-name="F" unicode="F" horiz-adv-x="559" 
d="M61 0v710h487v-170h-292v-118h238v-158h-238v-264h-195z" />
    <glyph glyph-name="G" unicode="G" horiz-adv-x="699" 
d="M503 58q-67 -63 -155 -63q-66 0 -125 29.5t-103.5 79.5t-70.5 116.5t-26 140.5q0 75 26.5 139.5t73 112t109.5 75t135 27.5q45 0 86 -10.5t76 -31t62.5 -49t45.5 -64.5l-145 -111q-18 42 -54.5 67.5t-77.5 25.5q-30 0 -55.5 -14t-44 -39t-29 -59.5t-10.5 -75.5
q0 -42 10.5 -76t29.5 -58.5t45.5 -38t58.5 -13.5q36 0 69.5 18t62.5 52h-125v140h292v-378h-161v58z" />
    <glyph glyph-name="H" unicode="H" horiz-adv-x="750" 
d="M689 710v-710h-195v278h-238v-278h-195v710h195v-262h238v262h195z" />
    <glyph glyph-name="I" unicode="I" horiz-adv-x="317" 
d="M61 0v710h195v-710h-195z" />
    <glyph glyph-name="J" unicode="J" horiz-adv-x="502" 
d="M46 192q3 -2 13 -7t25 -10t34.5 -9t40.5 -4q31 0 50 10t29 32.5t13 58t3 86.5v361h195v-361q0 -81 -9 -147.5t-39 -113.5t-87.5 -73t-154.5 -26q-90 0 -154 44z" />
    <glyph glyph-name="K" unicode="K" horiz-adv-x="689" 
d="M61 0v710h195v-290l236 290h200l-258 -318l276 -392h-204l-187 283l-63 -72v-211h-195z" />
    <glyph glyph-name="L" unicode="L" horiz-adv-x="588" 
d="M61 0v710h195v-540h322v-170h-517z" />
    <glyph glyph-name="M" unicode="M" horiz-adv-x="854" 
d="M598 0v374l-119 -263h-104l-119 263v-374h-195v710h213l153 -334l154 334h212v-710h-195z" />
    <glyph glyph-name="N" unicode="N" horiz-adv-x="754" 
d="M256 349v-349h-195v710h152l285 -361v361h195v-710h-155z" />
    <glyph glyph-name="O" unicode="O" horiz-adv-x="727" 
d="M362 -6q-76 0 -138.5 31t-107 81.5t-69 115.5t-24.5 134q0 70 25.5 135t71.5 114.5t108.5 79t137.5 29.5q76 0 138.5 -31t107 -82t68.5 -116t24 -133q0 -70 -25.5 -134.5t-70.5 -114t-108 -79.5t-138 -30zM221 354q0 -36 8.5 -69.5t26.5 -59.5t45 -42t63 -16
q37 0 64 16.5t44 43t25.5 60.5t8.5 69q0 36 -9 69.5t-26.5 59t-44.5 41t-63 15.5q-37 0 -63.5 -16t-44 -42.5t-26 -60t-8.5 -68.5z" />
    <glyph glyph-name="P" unicode="P" horiz-adv-x="620" 
d="M61 0v710h306q52 0 96 -21.5t75.5 -56t49.5 -79t18 -89.5q0 -47 -17 -91.5t-47.5 -79t-74 -55t-95.5 -20.5h-116v-218h-195zM256 388h103q18 0 33.5 16.5t15.5 59.5q0 44 -18 60t-36 16h-98v-152z" />
    <glyph glyph-name="Q" unicode="Q" horiz-adv-x="730" 
d="M525 38q-35 -20 -76.5 -31.5t-86.5 -11.5q-76 0 -138.5 30.5t-107 81t-69 115.5t-24.5 134q0 70 25.5 135t71.5 115t108.5 79.5t137.5 29.5q76 0 138.5 -31.5t107 -82.5t68.5 -116t24 -133q0 -63 -20.5 -121t-57.5 -106l116 -125h-182zM364 168q17 0 37 5l-117 127h182
l27 -29q7 20 10 41.5t3 43.5q0 36 -9 69.5t-26.5 59.5t-44.5 41.5t-63 15.5q-37 0 -63.5 -16.5t-44 -43t-26 -60t-8.5 -68.5q0 -36 8.5 -69.5t26.5 -59.5t45 -41.5t63 -15.5z" />
    <glyph glyph-name="R" unicode="R" horiz-adv-x="686" 
d="M61 0v710h326q52 0 96 -21.5t75.5 -56t49.5 -79t18 -89.5q0 -62 -27 -115.5t-75 -87.5l160 -261h-220l-135 218h-73v-218h-195zM256 388h123q18 0 33.5 20t15.5 56q0 37 -18 56.5t-36 19.5h-118v-152z" />
    <glyph glyph-name="S" unicode="S" horiz-adv-x="617" 
d="M491 478q-30 18 -62 32q-27 12 -60.5 22.5t-65.5 10.5q-26 0 -41.5 -8t-15.5 -27q0 -14 9 -23t26 -16.5t41.5 -14.5t55.5 -17q49 -15 88.5 -33t67.5 -42.5t43 -59.5t15 -85q0 -64 -23.5 -107.5t-62 -69.5t-87 -37.5t-97.5 -11.5q-39 0 -80 6t-81.5 17t-78 26t-69.5 34
l84 171q35 -22 73 -39q32 -15 72.5 -27t82.5 -12q32 0 44.5 8.5t12.5 22.5q0 15 -12.5 25.5t-34.5 18.5t-50.5 16t-60.5 19q-47 16 -81 34.5t-56 42t-32.5 53.5t-10.5 69q0 59 21.5 104t58.5 75t84.5 45.5t100.5 15.5q39 0 76 -7.5t71.5 -19t64.5 -25t54 -25.5z" />
    <glyph glyph-name="T" unicode="T" horiz-adv-x="624" 
d="M614 540h-204v-540h-195v540h-205v170h604v-170z" />
    <glyph glyph-name="U" unicode="U" horiz-adv-x="741" 
d="M370 167q34 0 58 15t39 39.5t22 56.5t7 67v365h195v-365q0 -74 -19 -138.5t-59 -111.5t-100.5 -74t-142.5 -27q-85 0 -145.5 28.5t-99.5 76.5t-57 111.5t-18 134.5v365h195v-365q0 -35 7 -67.5t22 -57t38.5 -39t57.5 -14.5z" />
    <glyph glyph-name="V" unicode="V" horiz-adv-x="670" 
d="M197 710l139 -465l137 465h205l-261 -710h-162l-264 710h206z" />
    <glyph glyph-name="W" unicode="W" horiz-adv-x="1059" 
d="M288 710h179l62 -219l63 219h179l-117 -339l51 -148l153 487h212l-278 -710h-162l-101 254l-100 -254h-162l-278 710h211l154 -487l49 148z" />
    <glyph glyph-name="X" unicode="X" horiz-adv-x="655" 
d="M199 710l129 -224l129 224h210l-237 -360l229 -350h-210l-121 214l-121 -214h-211l229 350l-237 360h211z" />
    <glyph glyph-name="Y" unicode="Y" horiz-adv-x="652" 
d="M198 710l127 -307l130 307h212l-245 -475v-235h-194v237l-241 473h211z" />
    <glyph glyph-name="Z" unicode="Z" horiz-adv-x="622" 
d="M27 145l332 395h-317v170h542v-145l-312 -395h318v-170h-563v145z" />
    <glyph glyph-name="bracketleft" unicode="[" horiz-adv-x="345" 
d="M61 -40v780h245v-150h-70v-480h70v-150h-245z" />
    <glyph glyph-name="backslash" unicode="\" horiz-adv-x="697" 
d="M235 710l435 -710h-209l-436 710h210z" />
    <glyph glyph-name="bracketright" unicode="]" horiz-adv-x="345" 
d="M39 -40v150h70v480h-70v150h245v-780h-245z" />
    <glyph glyph-name="asciicircum" unicode="^" horiz-adv-x="625" 
d="M36 303l198 407h158l197 -407h-153l-123 253l-126 -253h-151z" />
    <glyph glyph-name="underscore" unicode="_" horiz-adv-x="355" 
d="M1 -170v170h353v-170h-353z" />
    <glyph glyph-name="grave" unicode="`" horiz-adv-x="284" 
d="M45 730h169l50 -142l-120 -32z" />
    <glyph glyph-name="a" unicode="a" horiz-adv-x="604" 
d="M203 -10q-39 0 -73 13t-58.5 35.5t-38.5 53.5t-14 67q0 40 17 73t47 57t71.5 37t91.5 13q64 0 106 -20v16q0 37 -21.5 55t-69.5 18q-45 0 -83 -14.5t-80 -42.5l-55 118q104 67 237 67q126 0 194 -56t68 -168v-102q0 -27 10 -37.5t36 -12.5v-160q-26 -5 -49 -7.5t-41 -2.5
q-51 0 -77.5 18.5t-34.5 54.5l-4 19q-35 -45 -81 -68.5t-98 -23.5zM260 126q17 0 35 5.5t32 14.5q11 8 18 17.5t7 19.5v39q-17 6 -37 10t-36 4q-35 0 -58 -17t-23 -43q0 -22 17.5 -36t44.5 -14z" />
    <glyph glyph-name="b" unicode="b" horiz-adv-x="647" 
d="M383 -10q-119 0 -170 92v-82h-165v730h190v-282q23 43 65 65.5t99 22.5q48 0 89.5 -21t71.5 -57.5t47 -87t17 -109.5t-18.5 -108.5t-51 -85.5t-77.5 -56.5t-97 -20.5zM328 150q47 0 75.5 30t28.5 80q0 24 -7.5 45t-20 37t-30 25t-38.5 9q-30 0 -57 -21.5t-41 -56.5v-94
q37 -54 90 -54z" />
    <glyph glyph-name="c" unicode="c" horiz-adv-x="576" 
d="M19 263q0 54 19 103.5t55.5 87t90.5 60t124 22.5q96 0 160.5 -40t96.5 -103l-185 -56q-27 39 -73 39q-39 0 -66 -29.5t-27 -83.5t27 -83.5t66 -29.5q46 0 73 39l185 -56q-32 -63 -96.5 -103t-160.5 -40q-70 0 -124 22.5t-90.5 60t-55.5 87t-19 103.5z" />
    <glyph glyph-name="d" unicode="d" horiz-adv-x="672" 
d="M268 -10q-54 0 -99.5 20t-78.5 56.5t-51.5 87t-18.5 110.5q0 58 17 108t47.5 86.5t72.5 57t93 20.5t93.5 -23t65.5 -65v282h190v-520q0 -27 10 -37.5t36 -12.5v-160q-29 -5 -51 -7.5t-39 -2.5q-97 0 -112 73l-4 19q-27 -48 -73 -70t-98 -22zM320 150q52 0 90 54v94
q-14 35 -41 56.5t-57 21.5q-21 0 -38.5 -9t-30 -25t-20 -37t-7.5 -45q0 -50 28.5 -80t75.5 -30z" />
    <glyph glyph-name="e" unicode="e" horiz-adv-x="610" 
d="M307 -10q-69 0 -123 21.5t-90.5 58.5t-55.5 85t-19 101q0 57 18.5 108t55 89t90 60.5t124.5 22.5q70 0 124 -22.5t90.5 -60t55 -87t18.5 -103.5q0 -15 -1.5 -30.5t-3.5 -27.5h-369q3 -42 31 -60.5t61 -18.5q31 0 58.5 14t36.5 39l161 -46q-32 -63 -98.5 -103t-163.5 -40z
M391 319q-5 38 -28 60t-59 22t-59 -22t-28 -60h174z" />
    <glyph glyph-name="f" unicode="f" horiz-adv-x="411" 
d="M88 0v322h-65v143h65v57q0 49 14 89.5t39 69t60.5 44t79.5 15.5q66 0 146 -30l-32 -144q-17 6 -36.5 10t-34.5 4q-46 0 -46 -51v-64h115v-143h-115v-322h-190z" />
    <glyph glyph-name="g" unicode="g" horiz-adv-x="647" 
d="M250 0q-51 0 -93.5 20.5t-72.5 56t-46.5 83.5t-16.5 104q0 59 18 109t50.5 86t77.5 56.5t99 20.5q57 0 100 -22.5t68 -65.5v78h165v-478q0 -62 -23 -112t-65 -85t-101 -54.5t-131 -19.5q-84 0 -146 26t-110 75l100 104q29 -27 69.5 -45.5t86.5 -18.5q26 0 49.5 7
t41.5 22.5t28.5 40.5t10.5 60v34q-23 -42 -65.5 -62t-93.5 -20zM318 150q29 0 50.5 13.5t40.5 40.5v94q-14 36 -41.5 57t-57.5 21q-20 0 -37.5 -9.5t-30.5 -25t-20 -37t-7 -45.5q0 -49 29 -79t74 -30z" />
    <glyph glyph-name="h" unicode="h" horiz-adv-x="621" 
d="M577 0h-190v296q0 39 -17.5 56.5t-43.5 17.5q-9 0 -21.5 -5.5t-25 -15t-23.5 -23.5t-18 -31v-295h-190v730h190v-282q28 43 73 65.5t101 22.5q55 0 88 -19t50 -47.5t22 -61.5t5 -62v-346z" />
    <glyph glyph-name="i" unicode="i" 
d="M48 0v526h190v-526h-190zM48 570v160h190v-160h-190z" />
    <glyph glyph-name="j" unicode="j" 
d="M32 -209q-42 0 -80 14t-69 40l78 129q18 -20 47 -20q40 0 40 43v529h190v-514q0 -49 -15 -89.5t-42.5 -70t-65.5 -45.5t-83 -16zM48 570v160h190v-160h-190z" />
    <glyph glyph-name="k" unicode="k" horiz-adv-x="582" 
d="M395 0l-119 192l-38 -42v-150h-190v730h190v-399l140 195h200l-181 -230l199 -296h-201z" />
    <glyph glyph-name="l" unicode="l" horiz-adv-x="363" 
d="M45 730h190v-508q0 -60 49 -60q12 0 26 4t26 11l24 -153q-34 -16 -76.5 -25t-80.5 -9q-76 0 -117 39t-41 113v588z" />
    <glyph glyph-name="m" unicode="m" horiz-adv-x="940" 
d="M896 0h-190v296q0 39 -15.5 56.5t-37.5 17.5q-23 0 -48.5 -21t-37.5 -54v-295h-190v296q0 39 -15.5 56.5t-37.5 17.5q-23 0 -48.5 -21t-37.5 -54v-295h-190v526h171v-78q28 43 77 65.5t116 22.5q32 0 56 -7.5t41.5 -20.5t28 -29t16.5 -34q28 43 76.5 67t110.5 24
q52 0 82.5 -19.5t46.5 -48.5t21 -62t5 -60v-346z" />
    <glyph glyph-name="n" unicode="n" horiz-adv-x="621" 
d="M577 0h-190v296q0 39 -17.5 56.5t-40.5 17.5q-24 0 -51 -21t-40 -54v-295h-190v526h171v-78q28 43 78.5 65.5t119.5 22.5q54 0 85.5 -19.5t48 -48.5t21.5 -62t5 -60v-346z" />
    <glyph glyph-name="o" unicode="o" horiz-adv-x="614" 
d="M307 -10q-71 0 -124.5 22.5t-90 60t-55 87t-18.5 103.5t18.5 103.5t55 87t90 60t124.5 22.5q70 0 124 -22.5t90.5 -60t55 -87t18.5 -103.5t-18.5 -103.5t-55 -87t-90.5 -60t-124 -22.5zM214 263q0 -53 26 -83t67 -30t67 30t26 83t-26 83t-67 30t-67 -30t-26 -83z" />
    <glyph glyph-name="p" unicode="p" horiz-adv-x="646" 
d="M402 -10q-57 0 -99 22.5t-65 65.5v-291h-190v739h165v-79q28 43 69 66t101 23q52 0 97 -20.5t77 -56.5t50.5 -86t18.5 -108q0 -59 -17 -109.5t-47 -87.5t-71 -57.5t-89 -20.5zM336 150q21 0 38.5 9t30 25t20 37t7.5 45q0 50 -28.5 80t-75.5 30q-53 0 -90 -54v-91
q14 -35 41 -58t57 -23z" />
    <glyph glyph-name="q" unicode="q" horiz-adv-x="646" 
d="M244 -10q-48 0 -89 20.5t-71 57.5t-47 87.5t-17 109.5q0 58 18.5 108t50.5 86t76.5 56.5t97.5 20.5q60 0 101 -24t69 -67v81h165v-519q0 -27 10 -37.5t36 -12.5v-160q-25 -5 -54 -7.5t-51 -2.5q-27 0 -50.5 8.5t-41.5 23.5t-28.5 36.5t-10.5 48.5v174q-23 -43 -65 -65.5
t-99 -22.5zM318 150q52 0 90 54v94q-14 35 -41 56.5t-57 21.5q-21 0 -38.5 -9t-30 -25t-20 -37t-7.5 -45q0 -50 28.5 -80t75.5 -30z" />
    <glyph glyph-name="r" unicode="r" horiz-adv-x="417" 
d="M405 364q-55 0 -100 -12t-67 -40v-312h-190v526h174v-100q28 53 69.5 81.5t89.5 28.5q19 0 24 -1v-171z" />
    <glyph glyph-name="s" unicode="s" horiz-adv-x="527" 
d="M282 -10q-33 0 -71 5t-74.5 13t-70.5 19.5t-59 25.5l73 129q55 -29 105 -44t93 -15q50 0 50 25q0 13 -20 23t-76 24q-56 15 -94 30t-61 33.5t-33 41t-10 52.5q0 40 16.5 74t46.5 59t71.5 38.5t90.5 13.5q53 0 113.5 -15t123.5 -44l-73 -121q-56 26 -93 37.5t-71 11.5
q-22 0 -35.5 -6.5t-13.5 -20.5q0 -8 4 -13.5t14 -10.5t27.5 -10.5t43.5 -11.5q60 -15 101 -31.5t65.5 -36t35 -44t10.5 -56.5q0 -81 -61.5 -128t-167.5 -47z" />
    <glyph glyph-name="t" unicode="t" horiz-adv-x="424" 
d="M417 29q-40 -17 -85.5 -28.5t-89.5 -11.5q-32 0 -61 8t-50.5 26t-34 47t-12.5 72v241h-65v143h65v165h190v-165h103v-143h-103v-174q0 -26 11 -36.5t30 -10.5q14 0 32 4.5t36 12.5z" />
    <glyph glyph-name="u" unicode="u" horiz-adv-x="646" 
d="M208 -10q-80 0 -122 48.5t-42 141.5v346h190v-303q0 -35 15.5 -54t42.5 -19q22 0 45 10t46 44v322h190v-316q0 -27 10 -37.5t36 -12.5v-160q-29 -5 -51 -7.5t-39 -2.5q-97 0 -112 73l-4 19q-37 -49 -88 -70.5t-117 -21.5z" />
    <glyph glyph-name="v" unicode="v" horiz-adv-x="555" 
d="M174 0l-177 526h195l94 -377l95 377h177l-177 -526h-207z" />
    <glyph glyph-name="w" unicode="w" horiz-adv-x="870" 
d="M697 526h179l-215 -526h-155l-71 200l-71 -200h-155l-215 526h179l127 -353l33 113l-94 240h151l45 -154l45 154h151l-94 -240l33 -113z" />
    <glyph glyph-name="x" unicode="x" horiz-adv-x="552" 
d="M191 526l75 -129l10 -21l10 21l75 129h193l-176 -263l181 -263h-193l-81 129l-9 20l-9 -20l-81 -129h-193l181 263l-176 263h193z" />
    <glyph glyph-name="y" unicode="y" horiz-adv-x="546" 
d="M36 -53q46 -17 78 -17q61 0 67 70l-191 526h195l100 -365l81 365h177l-178 -589q-12 -39 -34 -70.5t-52.5 -54t-67.5 -34.5t-77 -12q-51 0 -98 19v162z" />
    <glyph glyph-name="z" unicode="z" horiz-adv-x="494" 
d="M22 112l240 284h-225v130h423v-112l-239 -284h248v-130h-447v112z" />
    <glyph glyph-name="braceleft" unicode="{" horiz-adv-x="352" 
d="M257 590v-154q0 -28 -12.5 -45t-28.5 -31q15 -14 28 -31.5t13 -44.5v-165h55v-150h-202q-6 0 -14.5 5.5t-8.5 24.5v220q0 32 -19.5 52t-40.5 25v130q10 0 21 6.5t19.5 17t14 24t5.5 27.5v209q0 18 8.5 24t14.5 6h202v-150h-55z" />
    <glyph glyph-name="bar" unicode="|" horiz-adv-x="278" 
d="M59 -130v905h160v-905h-160z" />
    <glyph glyph-name="braceright" unicode="}" horiz-adv-x="352" 
d="M40 590v150h202q6 0 14.5 -6t8.5 -24v-209q0 -14 5.5 -27.5t14 -24t19 -17t21.5 -6.5v-130q-21 -5 -40.5 -25t-19.5 -52v-220q0 -19 -8.5 -24.5t-14.5 -5.5h-202v150h55v165q0 27 13 44.5t28 31.5q-16 14 -28.5 31t-12.5 45v154h-55z" />
    <glyph glyph-name="asciitilde" unicode="~" horiz-adv-x="609" 
d="M45 216q0 12 8 38.5t27.5 53t51 46.5t79.5 20q30 0 54.5 -8t46.5 -17.5t43 -17.5t45 -8q22 0 36 7.5t21 16.5t9.5 17t2.5 10h100q0 -8 -8.5 -33.5t-28 -53.5t-52 -49.5t-81.5 -21.5q-29 0 -53 7.5t-46.5 16.5t-44 16.5t-45.5 7.5q-23 0 -36 -7t-19 -16t-7.5 -16.5
t-1.5 -8.5h-101v0z" />
    <glyph glyph-name="uni00A0" unicode="&#xa0;" horiz-adv-x="225" 
 />
    <glyph glyph-name="exclamdown" unicode="&#xa1;" horiz-adv-x="328" 
d="M259 410v-417h-190v417h190zM259 710v-184h-190v184h190z" />
    <glyph glyph-name="cent" unicode="&#xa2;" horiz-adv-x="619" 
d="M277 -120v111q-53 4 -97 28.5t-75.5 61.5t-49.5 83t-18 94q0 51 15 96t45 81.5t75 62t105 36.5v111h80v-111q66 -2 128 -36.5t99 -104.5l-185 -56q-7 12 -19 21.5t-23 11.5v-215q16 7 26 15.5t16 18.5l185 -56q-17 -36 -45.5 -63t-60.5 -44.5t-64.5 -26.5t-56.5 -9v-110
h-80zM233 258q0 -28 10.5 -52.5t33.5 -41.5v197q-20 -11 -32 -38.5t-12 -64.5z" />
    <glyph glyph-name="sterling" unicode="&#xa3;" horiz-adv-x="583" 
d="M58 388h55l-28 70t-14 73q0 39 17.5 72.5t48.5 58t72 39t89 14.5q66 0 126.5 -27.5t103.5 -77.5l-96 -117q-13 15 -29.5 27.5t-34.5 21.5t-36.5 14.5t-34.5 5.5q-27 0 -42.5 -14t-15.5 -38q0 -26 14.5 -56t28.5 -66h189v-140h-178q-7 -27 -22 -51.5t-40 -50.5
q24 8 42.5 11.5t35.5 3.5q32 0 65 -7.5t65 -7.5q17 0 31 3t32 10l46 -140q-23 -15 -56 -24.5t-63 -9.5q-23 0 -48 5t-50.5 11.5t-51.5 11.5t-51 5q-29 0 -67.5 -7.5t-76.5 -19.5l-38 134q31 18 54 51.5t32 71.5h-74v140z" />
    <glyph glyph-name="yen" unicode="&#xa5;" horiz-adv-x="742" 
d="M567 432h64v-120h-126l-39 -77v-33h166v-120h-166v-82h-194v82h-165v120h165v35l-38 75h-126v120h65l-142 278h211l127 -307l130 307h212z" />
    <glyph glyph-name="brokenbar" unicode="&#xa6;" horiz-adv-x="282" 
d="M221 254v-384h-160v384h160zM221 775v-384h-160v384h160z" />
    <glyph glyph-name="section" unicode="&#xa7;" horiz-adv-x="551" 
d="M488 232q9 -14 17 -38t8 -62q0 -62 -24 -104t-60 -68t-78 -37t-78 -11q-43 0 -80.5 13t-67.5 31.5t-51 38t-31 32.5l121 116q26 -29 51 -40t49 -11q22 0 36.5 8t14.5 25t-13 20.5t-27 4.5q-56 4 -96.5 20.5t-67.5 42t-40 58t-13 70.5q0 30 5.5 44t6.5 21q-8 11 -20 38.5
t-12 65.5q0 39 16.5 75.5t46 65.5t71 46.5t91.5 17.5q48 0 86 -16t66.5 -39t49 -48t33.5 -44l-145 -68q-11 18 -29 32.5t-49 14.5q-26 0 -35.5 -10t-9.5 -24q0 -20 13 -24t30 -5q38 -2 78.5 -11t73.5 -29.5t54.5 -54t21.5 -83.5q0 -29 -5.5 -48.5t-7.5 -25.5zM242 314
q0 -14 8 -20.5t19 -9.5t23 -3.5t20 -3.5q5 4 7 10.5t2 12.5q0 19 -14 26t-26 7q-5 0 -10 0.5t-10 1.5l-10 2q-9 -7 -9 -23z" />
    <glyph glyph-name="dieresis" unicode="&#xa8;" horiz-adv-x="566" 
d="M90 580v140h156v-140h-156zM320 580v140h156v-140h-156z" />
    <glyph glyph-name="copyright" unicode="&#xa9;" horiz-adv-x="847" 
d="M419 -7q-82 0 -152 27.5t-121 76t-79.5 114.5t-28.5 144q0 77 28.5 143t79.5 114t121 75.5t152 27.5q84 0 156 -27.5t124 -75.5t81.5 -114t29.5 -143q0 -78 -29.5 -144t-81.5 -114.5t-124 -76t-156 -27.5zM419 57q67 0 126 22t102 61t68 94t25 121q0 61 -24.5 115
t-67 94.5t-101.5 63.5t-128 23q-66 0 -123 -23t-99 -63.5t-65.5 -94.5t-23.5 -115q0 -62 23.5 -116.5t65 -95t98.5 -63.5t124 -23zM429 111q-65 0 -115.5 20t-84.5 53.5t-51.5 77.5t-17.5 92t17.5 92t51.5 77.5t84.5 53.5t115.5 20q92 0 154 -40t93 -103l-185 -56
q-23 39 -63 39q-30 0 -51.5 -21.5t-21.5 -61.5t21.5 -61.5t51.5 -21.5q40 0 63 39l185 -56q-31 -63 -93 -103t-154 -40z" />
    <glyph glyph-name="ordfeminine" unicode="&#xaa;" horiz-adv-x="453" 
d="M156 333q-26 0 -48.5 9t-39 24.5t-25.5 37t-9 47.5q0 28 11 51t31 39.5t47.5 26t60.5 9.5q42 0 68 -14v11q0 26 -13 39t-45 13q-29 0 -54 -10t-53 -30l-38 82q69 47 158 47q85 0 130 -39.5t45 -117.5v-71q0 -19 7 -26.5t24 -8.5v-112q-17 -4 -33 -5.5t-28 -1.5
q-35 0 -53 12.5t-23 38.5l-3 14q-47 -65 -117 -65zM195 428q10 0 21.5 4t19.5 10q16 11 16 26v27q-10 5 -22.5 7.5t-22.5 2.5q-22 0 -36.5 -12t-14.5 -30q0 -15 11 -25t28 -10z" />
    <glyph glyph-name="guillemotleft" unicode="&#xab;" horiz-adv-x="709" 
d="M30 298l277 198v-152l-128 -85l128 -77v-152l-277 180v88zM381 298l277 198v-152l-128 -85l128 -77v-152l-277 180v88z" />
    <glyph glyph-name="logicalnot" unicode="&#xac;" horiz-adv-x="637" 
d="M578 431v-342h-160v172h-369v170h529z" />
    <glyph glyph-name="uni00AD" unicode="&#xad;" horiz-adv-x="629" 
d="M50 191v170h529v-170h-529z" />
    <glyph glyph-name="registered" unicode="&#xae;" horiz-adv-x="847" 
d="M421 -7q-83 0 -153.5 27.5t-121.5 76t-79.5 114.5t-28.5 144q0 77 28.5 143t79.5 114t121.5 75.5t153.5 27.5t154.5 -27.5t123.5 -75.5t81.5 -114t29.5 -143q0 -78 -29.5 -144t-81.5 -114.5t-123.5 -76t-154.5 -27.5zM422 56q66 0 123.5 22.5t100 62t66.5 93.5t24 118
q0 63 -23.5 117.5t-65.5 95t-99.5 63.5t-125.5 23t-125 -23t-98 -63.5t-64 -94.5t-23 -116t23 -116t64 -94.5t98 -64t125 -23.5zM251 572h199q31 0 58 -13t46 -34.5t30 -48.5t11 -54q0 -35 -17 -68t-45 -53l96 -157h-147l-81 131h-18v-131h-132v428zM436 387q11 0 20 7t9 28
q0 23 -10 29t-21 6h-51v-70h53z" />
    <glyph glyph-name="macron" unicode="&#xaf;" horiz-adv-x="438" 
d="M64 607v113h310v-113h-310z" />
    <glyph glyph-name="degree" unicode="&#xb0;" horiz-adv-x="304" 
d="M33 610q0 49 33 81.5t86 32.5t86 -32.5t33 -81.5q0 -57 -33 -90.5t-86 -33.5t-86 34.5t-33 89.5zM152 636q-12 0 -22 -8.5t-10 -22.5t9.5 -23t22.5 -9t22 9.5t9 22.5q0 14 -9 22.5t-22 8.5z" />
    <glyph glyph-name="plusminus" unicode="&#xb1;" horiz-adv-x="481" 
d="M50 1v150h380v-150h-380zM431 462v-150h-105v-115h-170v115h-105v150h105v115h170v-115h105z" />
    <glyph glyph-name="twosuperior" unicode="&#xb2;" horiz-adv-x="441" 
d="M26 286q0 43 6 74.5t21 56t41 43.5t66 36q24 10 47 19.5t41 20t29 22.5t11 29q0 23 -19.5 30.5t-52.5 7.5q-38 0 -69 -13.5t-51 -30.5l-68 80q22 29 75 49.5t129 20.5q87 0 133.5 -36.5t46.5 -108.5q0 -34 -12.5 -58t-31 -41t-40.5 -27t-41 -15q-36 -10 -58 -21t-22 -31
h187v-107h-368z" />
    <glyph glyph-name="threesuperior" unicode="&#xb3;" horiz-adv-x="422" 
d="M192 279q-60 0 -104.5 17t-64.5 54l57 84q4 -4 12 -11.5t22.5 -15t35 -13t49.5 -5.5q15 0 29.5 2t26.5 6t19.5 11t7.5 17q0 23 -39.5 31.5t-108.5 8.5h-25v99h24q59 0 96.5 9t37.5 30q0 9 -7 14.5t-17.5 8t-22 3.5t-19.5 1q-41 0 -65.5 -12t-45.5 -32l-69 89
q13 14 33 24.5t43.5 17.5t49 10.5t50.5 3.5q40 0 74.5 -9t59 -25.5t38.5 -38.5t14 -47q0 -36 -26.5 -59.5t-71.5 -30.5q51 -7 79.5 -39t28.5 -76q0 -35 -17.5 -59t-45.5 -39t-64.5 -22t-73.5 -7z" />
    <glyph glyph-name="acute" unicode="&#xb4;" horiz-adv-x="284" 
d="M165 556l-120 32l50 142h169z" />
    <glyph glyph-name="mu" unicode="&#xb5;" horiz-adv-x="669" 
d="M61 526h190v-303q0 -35 15 -54t47 -19q18 0 41 10t46 44v322h190v-316q0 -27 10 -37.5t36 -12.5v-160q-29 -5 -51 -7.5t-39 -2.5q-97 0 -112 73l-4 19q-4 -11 -16.5 -26.5t-30.5 -30t-39 -25t-43 -10.5q-15 0 -26.5 5t-19 11t-11.5 11.5t-5 7.5l12 -238h-190v739z" />
    <glyph glyph-name="paragraph" unicode="&#xb6;" horiz-adv-x="698" 
d="M34 445q0 128 73.5 196.5t208.5 68.5h341v-140h-70v-650h-160v268h-31v-268h-160v268q-45 0 -82 19t-64 52.5t-41.5 81t-14.5 104.5zM191 450q0 -50 12.5 -84t32.5 -38v242q-20 -4 -32.5 -37.5t-12.5 -82.5zM427 570h-31v-242h31v242z" />
    <glyph glyph-name="periodcentered" unicode="&#xb7;" horiz-adv-x="254" 
d="M50 238v184h154v-184h-154z" />
    <glyph glyph-name="cedilla" unicode="&#xb8;" horiz-adv-x="362" 
d="M55 -128q11 -7 37 -13.5t53 -6.5q23 0 39.5 7t16.5 24t-15 23.5t-40 6.5q-21 0 -44.5 -3.5t-34.5 -5.5l64 132l69 -19l-36 -51q6 1 12.5 1.5t14.5 0.5q18 0 35 -4.5t30 -13.5t21 -24t8 -36q0 -42 -36.5 -72.5t-115.5 -30.5q-36 0 -64.5 6.5t-48.5 14.5z" />
    <glyph glyph-name="onesuperior" unicode="&#xb9;" horiz-adv-x="321" 
d="M300 395v-107h-253v107h76v221q-5 -7 -16 -16t-24 -17.5t-27 -14t-26 -5.5v109q15 0 31.5 9t30 20t22.5 20t9 10h110v-336h67z" />
    <glyph glyph-name="ordmasculine" unicode="&#xba;" horiz-adv-x="439" 
d="M219 333q-47 0 -82.5 15.5t-59.5 42t-36.5 61t-12.5 72.5t12.5 72.5t36.5 61t59.5 42t82.5 15.5t83 -15.5t60 -42t36 -61t12 -72.5t-12 -72.5t-36 -61t-60 -42t-83 -15.5zM161 524q0 -37 16 -58t42 -21t42 21t16 58t-16 58t-42 21t-42 -21t-16 -58z" />
    <glyph glyph-name="guillemotright" unicode="&#xbb;" horiz-adv-x="709" 
d="M679 210l-277 -180v152l128 77l-128 85v152l277 -198v-88zM328 210l-277 -180v152l128 77l-128 85v152l277 -198v-88z" />
    <glyph glyph-name="onequarter" unicode="&#xbc;" horiz-adv-x="1017" 
d="M810 1v83h-215v107l249 250h74v-250h64v-107h-64v-83h-108zM696 191h118v121zM309 395v-107h-253v107h76v221q-5 -7 -16 -16t-24 -17.5t-27 -14t-26 -5.5v109q15 0 31.5 9t30 20t22.5 20t9 10h110v-336h67zM210 65l283 319l251 337l83 -75l-271 -309l-263 -347z" />
    <glyph glyph-name="onehalf" unicode="&#xbd;" horiz-adv-x="1033" 
d="M644 0q0 43 5.5 74.5t19 56t37 43.5t60.5 36q22 10 42.5 19.5t37 20t26.5 22.5t10 29q0 23 -18 30.5t-48 7.5q-35 0 -63 -13.5t-46 -30.5l-62 80q20 29 68.5 49.5t118.5 20.5q78 0 120.5 -36.5t42.5 -108.5q0 -34 -11.5 -58t-28.5 -41t-37 -27t-37 -15q-33 -10 -53 -21
t-20 -31h188v-107h-352zM307 395v-107h-253v107h76v221q-5 -7 -16 -16t-24 -17.5t-27 -14t-26 -5.5v109q15 0 31.5 9t30 20t22.5 20t9 10h110v-336h67zM170 65l283 319l251 337l83 -75l-271 -309l-263 -347z" />
    <glyph glyph-name="threequarters" unicode="&#xbe;" horiz-adv-x="1028" 
d="M819 1v83h-215v107l249 250h74v-250h64v-107h-64v-83h-108zM705 191h118v121zM205 279q-60 0 -104.5 17t-64.5 54l57 84q4 -4 12 -11.5t22.5 -15t35 -13t49.5 -5.5q15 0 29.5 2t26.5 6t19.5 11t7.5 17q0 23 -39.5 31.5t-108.5 8.5h-25v99h24q59 0 96.5 9t37.5 30
q0 9 -7 14.5t-17.5 8t-22 3.5t-19.5 1q-41 0 -65.5 -12t-45.5 -32l-69 89q13 14 33 24.5t43.5 17.5t49 10.5t50.5 3.5q40 0 74.5 -9t59 -25.5t38.5 -38.5t14 -47q0 -36 -26.5 -59.5t-71.5 -30.5q51 -7 79.5 -39t28.5 -76q0 -35 -17.5 -59t-45.5 -39t-64.5 -22t-73.5 -7z
M241 65l283 319l251 337l83 -75l-271 -309l-263 -347z" />
    <glyph glyph-name="questiondown" unicode="&#xbf;" horiz-adv-x="492" 
d="M398 247q0 -21 -2 -41.5t-10 -39t-24 -35.5t-43 -31q-11 -6 -32 -16t-41 -24t-35 -31.5t-15 -38.5q0 -23 18 -36.5t42 -13.5q18 0 31 7t22.5 17t16 20.5t12.5 17.5l121 -86q-26 -61 -82 -95t-128 -34q-38 0 -77 11t-70.5 35t-51 63t-19.5 95q0 48 17.5 87.5t62.5 69.5
q22 15 45 26t42.5 22t32 22.5t12.5 28.5h155zM395 506v-164h-155v164h155z" />
    <glyph glyph-name="Agrave" unicode="&#xc0;" horiz-adv-x="671" 
d="M-8 0l265 710h158l264 -710h-206l-43 139h-189l-42 -139h-207zM336 507l-66 -238h129zM179 915h169l50 -142l-120 -32z" />
    <glyph glyph-name="Aacute" unicode="&#xc1;" horiz-adv-x="671" 
d="M-8 0l265 710h158l264 -710h-206l-43 139h-189l-42 -139h-207zM336 507l-66 -238h129zM394 740l-120 32l50 142h169z" />
    <glyph glyph-name="Acircumflex" unicode="&#xc2;" horiz-adv-x="671" 
d="M-8 0l265 710h158l264 -710h-206l-43 139h-189l-42 -139h-207zM336 507l-66 -238h129zM155 799l113 115h136l113 -115l-96 -42l-85 63l-85 -63z" />
    <glyph glyph-name="Atilde" unicode="&#xc3;" horiz-adv-x="671" 
d="M-8 0l265 710h158l264 -710h-206l-43 139h-189l-42 -139h-207zM336 507l-66 -238h129zM400 756q-23 0 -40.5 7.5t-32.5 16.5t-29.5 16.5t-31.5 7.5t-26 -7t-13.5 -16t-5.5 -16.5t-1 -8.5h-101q0 13 7.5 39.5t24.5 52.5t43 46t64 20q24 0 42 -8t33 -17.5t29 -17.5t31 -8
q16 0 26 7.5t15.5 17t7 17.5t1.5 9h100q0 -9 -8 -34.5t-25 -53t-44 -49t-66 -21.5z" />
    <glyph glyph-name="Adieresis" unicode="&#xc4;" horiz-adv-x="671" 
d="M-8 0l265 710h158l264 -710h-206l-43 139h-189l-42 -139h-207zM336 507l-66 -238h129zM143 765v140h156v-140h-156zM373 765v140h156v-140h-156z" />
    <glyph glyph-name="Aring" unicode="&#xc5;" horiz-adv-x="671" 
d="M-8 0l265 710h158l264 -710h-206l-43 139h-189l-42 -139h-207zM336 507l-66 -238h129zM219 827q0 44 31.5 65.5t85.5 21.5t85.5 -21.5t31.5 -65.5t-31.5 -65.5t-85.5 -21.5t-85.5 21.5t-31.5 65.5zM336 860q-17 0 -28.5 -9t-11.5 -23q0 -15 11.5 -24.5t28.5 -9.5
t28.5 9.5t11.5 24.5q0 14 -11.5 23t-28.5 9z" />
    <glyph glyph-name="AE" unicode="&#xc6;" horiz-adv-x="972" 
d="M407 710h527v-170h-282v-94h228v-170h-228v-106h291v-170h-485v139h-201l-75 -139h-206zM443 309v186l-104 -186h104z" />
    <glyph glyph-name="Ccedilla" unicode="&#xc7;" horiz-adv-x="656" 
d="M278 -128q11 -7 37 -13.5t53 -6.5q23 0 39.5 7t16.5 24t-15 23.5t-40 6.5q-21 0 -44.5 -3.5t-34.5 -5.5l44 92q-69 5 -126 38.5t-98.5 84t-64 114t-22.5 128.5t23 128t67.5 113t108 81t144.5 31q95 0 166 -42.5t105 -112.5l-149 -106q-9 26 -23.5 43t-31.5 27t-36 14
t-35 4q-37 0 -63.5 -16.5t-44 -43t-25.5 -60t-8 -66.5q0 -37 9.5 -71t28 -60t45 -41.5t60.5 -15.5q17 0 35 4.5t34.5 15t30 27t21.5 40.5l159 -95q-13 -34 -37.5 -61.5t-56 -47.5t-68 -33.5t-73.5 -18.5l-22 -32q6 1 12.5 1.5t14.5 0.5q18 0 35 -4.5t30 -13.5t21 -24t8 -36
q0 -42 -36.5 -72.5t-115.5 -30.5q-36 0 -64.5 6.5t-48.5 14.5z" />
    <glyph glyph-name="Egrave" unicode="&#xc8;" horiz-adv-x="597" 
d="M567 170v-170h-506v710h497v-170h-302v-100h258v-158h-258v-112h311zM159 915h169l50 -142l-120 -32z" />
    <glyph glyph-name="Eacute" unicode="&#xc9;" horiz-adv-x="597" 
d="M567 170v-170h-506v710h497v-170h-302v-100h258v-158h-258v-112h311zM374 740l-120 32l50 142h169z" />
    <glyph glyph-name="Ecircumflex" unicode="&#xca;" horiz-adv-x="597" 
d="M567 170v-170h-506v710h497v-170h-302v-100h258v-158h-258v-112h311zM135 799l113 115h136l113 -115l-96 -42l-85 63l-85 -63z" />
    <glyph glyph-name="Edieresis" unicode="&#xcb;" horiz-adv-x="597" 
d="M567 170v-170h-506v710h497v-170h-302v-100h258v-158h-258v-112h311zM123 765v140h156v-140h-156zM353 765v140h156v-140h-156z" />
    <glyph glyph-name="Igrave" unicode="&#xcc;" horiz-adv-x="317" 
d="M61 0v710h195v-710h-195zM1 915h169l50 -142l-120 -32z" />
    <glyph glyph-name="Iacute" unicode="&#xcd;" horiz-adv-x="317" 
d="M61 0v710h195v-710h-195zM216 740l-120 32l50 142h169z" />
    <glyph glyph-name="Icircumflex" unicode="&#xce;" horiz-adv-x="317" 
d="M61 0v710h195v-710h-195zM-23 799l113 115h136l113 -115l-96 -42l-85 63l-85 -63z" />
    <glyph glyph-name="Idieresis" unicode="&#xcf;" horiz-adv-x="317" 
d="M61 0v710h195v-710h-195zM-35 765v140h156v-140h-156zM195 765v140h156v-140h-156z" />
    <glyph glyph-name="Eth" unicode="&#xd0;" horiz-adv-x="721" 
d="M65 0v287h-37v140h37v283h273q88 0 155 -28t112 -76t68 -112.5t23 -137.5q0 -81 -25.5 -146.5t-72.5 -112t-113 -72t-147 -25.5h-273zM498 356q0 41 -11 75t-31.5 58t-50.5 37.5t-67 13.5h-78v-113h114v-140h-114v-117h78q38 0 68 14t50.5 39t31 59t10.5 74z" />
    <glyph glyph-name="Ntilde" unicode="&#xd1;" horiz-adv-x="754" 
d="M256 349v-349h-195v710h152l285 -361v361h195v-710h-155zM438 755q-23 0 -40.5 7.5t-32.5 16.5t-29.5 16.5t-31.5 7.5t-26 -7t-13.5 -16t-5.5 -16.5t-1 -8.5h-101q0 13 7.5 39.5t24.5 52.5t43 46t64 20q24 0 42 -8t33 -17.5t29 -17.5t31 -8q16 0 26 7.5t15.5 17t7 17.5
t1.5 9h100q0 -9 -8 -34.5t-25 -53t-44 -49t-66 -21.5z" />
    <glyph glyph-name="Ograve" unicode="&#xd2;" horiz-adv-x="727" 
d="M362 -6q-76 0 -138.5 31t-107 81.5t-69 115.5t-24.5 134q0 70 25.5 135t71.5 114.5t108.5 79t137.5 29.5q76 0 138.5 -31t107 -82t68.5 -116t24 -133q0 -70 -25.5 -134.5t-70.5 -114t-108 -79.5t-138 -30zM221 354q0 -36 8.5 -69.5t26.5 -59.5t45 -42t63 -16
q37 0 64 16.5t44 43t25.5 60.5t8.5 69q0 36 -9 69.5t-26.5 59t-44.5 41t-63 15.5q-37 0 -63.5 -16t-44 -42.5t-26 -60t-8.5 -68.5zM209 915h169l50 -142l-120 -32z" />
    <glyph glyph-name="Oacute" unicode="&#xd3;" horiz-adv-x="727" 
d="M362 -6q-76 0 -138.5 31t-107 81.5t-69 115.5t-24.5 134q0 70 25.5 135t71.5 114.5t108.5 79t137.5 29.5q76 0 138.5 -31t107 -82t68.5 -116t24 -133q0 -70 -25.5 -134.5t-70.5 -114t-108 -79.5t-138 -30zM221 354q0 -36 8.5 -69.5t26.5 -59.5t45 -42t63 -16
q37 0 64 16.5t44 43t25.5 60.5t8.5 69q0 36 -9 69.5t-26.5 59t-44.5 41t-63 15.5q-37 0 -63.5 -16t-44 -42.5t-26 -60t-8.5 -68.5zM424 740l-120 32l50 142h169z" />
    <glyph glyph-name="Ocircumflex" unicode="&#xd4;" horiz-adv-x="727" 
d="M362 -6q-76 0 -138.5 31t-107 81.5t-69 115.5t-24.5 134q0 70 25.5 135t71.5 114.5t108.5 79t137.5 29.5q76 0 138.5 -31t107 -82t68.5 -116t24 -133q0 -70 -25.5 -134.5t-70.5 -114t-108 -79.5t-138 -30zM221 354q0 -36 8.5 -69.5t26.5 -59.5t45 -42t63 -16
q37 0 64 16.5t44 43t25.5 60.5t8.5 69q0 36 -9 69.5t-26.5 59t-44.5 41t-63 15.5q-37 0 -63.5 -16t-44 -42.5t-26 -60t-8.5 -68.5zM185 799l113 115h136l113 -115l-96 -42l-85 63l-85 -63z" />
    <glyph glyph-name="Otilde" unicode="&#xd5;" horiz-adv-x="727" 
d="M362 -6q-76 0 -138.5 31t-107 81.5t-69 115.5t-24.5 134q0 70 25.5 135t71.5 114.5t108.5 79t137.5 29.5q76 0 138.5 -31t107 -82t68.5 -116t24 -133q0 -70 -25.5 -134.5t-70.5 -114t-108 -79.5t-138 -30zM221 354q0 -36 8.5 -69.5t26.5 -59.5t45 -42t63 -16
q37 0 64 16.5t44 43t25.5 60.5t8.5 69q0 36 -9 69.5t-26.5 59t-44.5 41t-63 15.5q-37 0 -63.5 -16t-44 -42.5t-26 -60t-8.5 -68.5zM430 756q-23 0 -40.5 7.5t-32.5 16.5t-29.5 16.5t-31.5 7.5t-26 -7t-13.5 -16t-5.5 -16.5t-1 -8.5h-101q0 13 7.5 39.5t24.5 52.5t43 46
t64 20q24 0 42 -8t33 -17.5t29 -17.5t31 -8q16 0 26 7.5t15.5 17t7 17.5t1.5 9h100q0 -9 -8 -34.5t-25 -53t-44 -49t-66 -21.5z" />
    <glyph glyph-name="Odieresis" unicode="&#xd6;" horiz-adv-x="727" 
d="M362 -6q-76 0 -138.5 31t-107 81.5t-69 115.5t-24.5 134q0 70 25.5 135t71.5 114.5t108.5 79t137.5 29.5q76 0 138.5 -31t107 -82t68.5 -116t24 -133q0 -70 -25.5 -134.5t-70.5 -114t-108 -79.5t-138 -30zM221 354q0 -36 8.5 -69.5t26.5 -59.5t45 -42t63 -16
q37 0 64 16.5t44 43t25.5 60.5t8.5 69q0 36 -9 69.5t-26.5 59t-44.5 41t-63 15.5q-37 0 -63.5 -16t-44 -42.5t-26 -60t-8.5 -68.5zM173 765v140h156v-140h-156zM403 765v140h156v-140h-156z" />
    <glyph glyph-name="multiply" unicode="&#xd7;" horiz-adv-x="491" 
d="M451 191l-119 -118l-87 87l-87 -87l-117 118l86 86l-80 81l119 118l80 -80l80 80l117 -118l-80 -80z" />
    <glyph glyph-name="Oslash" unicode="&#xd8;" horiz-adv-x="729" 
d="M727 710l-96 -132q35 -49 54.5 -107.5t19.5 -118.5q0 -70 -25.5 -134.5t-70.5 -114t-108 -79.5t-138 -30q-38 0 -71.5 7.5t-63.5 21.5l-17 -23h-209l95 131q-35 48 -54 106t-19 119q0 70 25.5 135t71.5 114.5t108.5 79t137.5 29.5q71 0 132 -28l18 24h210zM507 356
q0 11 -1 23t-3 23l-169 -232q15 -3 31 -3q37 0 64 16.5t44 43t25.5 60.5t8.5 69zM222 354q0 -24 3 -46l167 230q-14 3 -28 3q-37 0 -63.5 -16t-44 -42.5t-26 -60t-8.5 -68.5z" />
    <glyph glyph-name="Ugrave" unicode="&#xd9;" horiz-adv-x="741" 
d="M370 167q34 0 58 15t39 39.5t22 56.5t7 67v365h195v-365q0 -74 -19 -138.5t-59 -111.5t-100.5 -74t-142.5 -27q-85 0 -145.5 28.5t-99.5 76.5t-57 111.5t-18 134.5v365h195v-365q0 -35 7 -67.5t22 -57t38.5 -39t57.5 -14.5zM213 915h169l50 -142l-120 -32z" />
    <glyph glyph-name="Uacute" unicode="&#xda;" horiz-adv-x="741" 
d="M370 167q34 0 58 15t39 39.5t22 56.5t7 67v365h195v-365q0 -74 -19 -138.5t-59 -111.5t-100.5 -74t-142.5 -27q-85 0 -145.5 28.5t-99.5 76.5t-57 111.5t-18 134.5v365h195v-365q0 -35 7 -67.5t22 -57t38.5 -39t57.5 -14.5zM428 740l-120 32l50 142h169z" />
    <glyph glyph-name="Ucircumflex" unicode="&#xdb;" horiz-adv-x="741" 
d="M370 167q34 0 58 15t39 39.5t22 56.5t7 67v365h195v-365q0 -74 -19 -138.5t-59 -111.5t-100.5 -74t-142.5 -27q-85 0 -145.5 28.5t-99.5 76.5t-57 111.5t-18 134.5v365h195v-365q0 -35 7 -67.5t22 -57t38.5 -39t57.5 -14.5zM189 799l113 115h136l113 -115l-96 -42l-85 63
l-85 -63z" />
    <glyph glyph-name="Udieresis" unicode="&#xdc;" horiz-adv-x="741" 
d="M370 167q34 0 58 15t39 39.5t22 56.5t7 67v365h195v-365q0 -74 -19 -138.5t-59 -111.5t-100.5 -74t-142.5 -27q-85 0 -145.5 28.5t-99.5 76.5t-57 111.5t-18 134.5v365h195v-365q0 -35 7 -67.5t22 -57t38.5 -39t57.5 -14.5zM177 765v140h156v-140h-156zM407 765v140h156
v-140h-156z" />
    <glyph glyph-name="Yacute" unicode="&#xdd;" horiz-adv-x="652" 
d="M198 710l127 -307l130 307h212l-245 -475v-235h-194v237l-241 473h211zM383 740l-120 32l50 142h169z" />
    <glyph glyph-name="Thorn" unicode="&#xde;" horiz-adv-x="605" 
d="M352 592q52 0 96 -21.5t75.5 -56t49.5 -78.5t18 -89q0 -48 -17 -92t-47.5 -78.5t-74 -55t-95.5 -20.5h-101v-101h-195v710h195v-118h96zM347 271q19 0 34 20.5t15 55.5q0 37 -17.5 56t-36.5 19h-86v-151h91z" />
    <glyph glyph-name="germandbls" unicode="&#xdf;" horiz-adv-x="563" 
d="M254 168q37 0 63.5 17.5t26.5 51.5q0 18 -7.5 30.5t-18.5 20.5t-22.5 11.5t-20.5 3.5h-23v170h21q21 0 30 11t9 28q0 16 -6.5 24.5t-14.5 12.5t-14.5 4.5t-7.5 0.5q-15 0 -23.5 -7.5t-12.5 -17.5t-4.5 -20t-0.5 -15v-494h-180v529q0 40 18.5 73.5t51 58.5t76 39t94.5 14
q44 0 81.5 -11t64.5 -32.5t42.5 -53t15.5 -71.5q0 -25 -6 -48t-15.5 -41.5t-22.5 -32.5t-27 -21q57 -22 90 -70t33 -120q0 -65 -26.5 -107.5t-68 -67t-93 -34.5t-102.5 -10v174z" />
    <glyph glyph-name="agrave" unicode="&#xe0;" horiz-adv-x="604" 
d="M203 -10q-39 0 -73 13t-58.5 35.5t-38.5 53.5t-14 67q0 40 17 73t47 57t71.5 37t91.5 13q64 0 106 -20v16q0 37 -21.5 55t-69.5 18q-45 0 -83 -14.5t-80 -42.5l-55 118q104 67 237 67q126 0 194 -56t68 -168v-102q0 -27 10 -37.5t36 -12.5v-160q-26 -5 -49 -7.5t-41 -2.5
q-51 0 -77.5 18.5t-34.5 54.5l-4 19q-35 -45 -81 -68.5t-98 -23.5zM260 126q17 0 35 5.5t32 14.5q11 8 18 17.5t7 19.5v39q-17 6 -37 10t-36 4q-35 0 -58 -17t-23 -43q0 -22 17.5 -36t44.5 -14zM123 731h169l50 -142l-120 -32z" />
    <glyph glyph-name="aacute" unicode="&#xe1;" horiz-adv-x="604" 
d="M203 -10q-39 0 -73 13t-58.5 35.5t-38.5 53.5t-14 67q0 40 17 73t47 57t71.5 37t91.5 13q64 0 106 -20v16q0 37 -21.5 55t-69.5 18q-45 0 -83 -14.5t-80 -42.5l-55 118q104 67 237 67q126 0 194 -56t68 -168v-102q0 -27 10 -37.5t36 -12.5v-160q-26 -5 -49 -7.5t-41 -2.5
q-51 0 -77.5 18.5t-34.5 54.5l-4 19q-35 -45 -81 -68.5t-98 -23.5zM260 126q17 0 35 5.5t32 14.5q11 8 18 17.5t7 19.5v39q-17 6 -37 10t-36 4q-35 0 -58 -17t-23 -43q0 -22 17.5 -36t44.5 -14zM338 556l-120 32l50 142h169z" />
    <glyph glyph-name="acircumflex" unicode="&#xe2;" horiz-adv-x="604" 
d="M203 -10q-39 0 -73 13t-58.5 35.5t-38.5 53.5t-14 67q0 40 17 73t47 57t71.5 37t91.5 13q64 0 106 -20v16q0 37 -21.5 55t-69.5 18q-45 0 -83 -14.5t-80 -42.5l-55 118q104 67 237 67q126 0 194 -56t68 -168v-102q0 -27 10 -37.5t36 -12.5v-160q-26 -5 -49 -7.5t-41 -2.5
q-51 0 -77.5 18.5t-34.5 54.5l-4 19q-35 -45 -81 -68.5t-98 -23.5zM260 126q17 0 35 5.5t32 14.5q11 8 18 17.5t7 19.5v39q-17 6 -37 10t-36 4q-35 0 -58 -17t-23 -43q0 -22 17.5 -36t44.5 -14zM99 615l113 115h136l113 -115l-96 -42l-85 63l-85 -63z" />
    <glyph glyph-name="atilde" unicode="&#xe3;" horiz-adv-x="604" 
d="M203 -10q-39 0 -73 13t-58.5 35.5t-38.5 53.5t-14 67q0 40 17 73t47 57t71.5 37t91.5 13q64 0 106 -20v16q0 37 -21.5 55t-69.5 18q-45 0 -83 -14.5t-80 -42.5l-55 118q104 67 237 67q126 0 194 -56t68 -168v-102q0 -27 10 -37.5t36 -12.5v-160q-26 -5 -49 -7.5t-41 -2.5
q-51 0 -77.5 18.5t-34.5 54.5l-4 19q-35 -45 -81 -68.5t-98 -23.5zM260 126q17 0 35 5.5t32 14.5q11 8 18 17.5t7 19.5v39q-17 6 -37 10t-36 4q-35 0 -58 -17t-23 -43q0 -22 17.5 -36t44.5 -14zM344 572q-23 0 -40.5 7.5t-32.5 16.5t-29.5 16.5t-31.5 7.5t-26 -7t-13.5 -16
t-5.5 -16.5t-1 -8.5h-101q0 13 7.5 39.5t24.5 52.5t43 46t64 20q24 0 42 -8t33 -17.5t29 -17.5t31 -8q16 0 26 7.5t15.5 17t7 17.5t1.5 9h100q0 -9 -8 -34.5t-25 -53t-44 -49t-66 -21.5z" />
    <glyph glyph-name="adieresis" unicode="&#xe4;" horiz-adv-x="604" 
d="M203 -10q-39 0 -73 13t-58.5 35.5t-38.5 53.5t-14 67q0 40 17 73t47 57t71.5 37t91.5 13q64 0 106 -20v16q0 37 -21.5 55t-69.5 18q-45 0 -83 -14.5t-80 -42.5l-55 118q104 67 237 67q126 0 194 -56t68 -168v-102q0 -27 10 -37.5t36 -12.5v-160q-26 -5 -49 -7.5t-41 -2.5
q-51 0 -77.5 18.5t-34.5 54.5l-4 19q-35 -45 -81 -68.5t-98 -23.5zM260 126q17 0 35 5.5t32 14.5q11 8 18 17.5t7 19.5v39q-17 6 -37 10t-36 4q-35 0 -58 -17t-23 -43q0 -22 17.5 -36t44.5 -14zM87 581v140h156v-140h-156zM317 581v140h156v-140h-156z" />
    <glyph glyph-name="aring" unicode="&#xe5;" horiz-adv-x="604" 
d="M203 -10q-39 0 -73 13t-58.5 35.5t-38.5 53.5t-14 67q0 40 17 73t47 57t71.5 37t91.5 13q64 0 106 -20v16q0 37 -21.5 55t-69.5 18q-45 0 -83 -14.5t-80 -42.5l-55 118q104 67 237 67q126 0 194 -56t68 -168v-102q0 -27 10 -37.5t36 -12.5v-160q-26 -5 -49 -7.5t-41 -2.5
q-51 0 -77.5 18.5t-34.5 54.5l-4 19q-35 -45 -81 -68.5t-98 -23.5zM260 126q17 0 35 5.5t32 14.5q11 8 18 17.5t7 19.5v39q-17 6 -37 10t-36 4q-35 0 -58 -17t-23 -43q0 -22 17.5 -36t44.5 -14zM163 643q0 44 31.5 65.5t85.5 21.5t85.5 -21.5t31.5 -65.5t-31.5 -65.5
t-85.5 -21.5t-85.5 21.5t-31.5 65.5zM280 676q-17 0 -28.5 -9t-11.5 -23q0 -15 11.5 -24.5t28.5 -9.5t28.5 9.5t11.5 24.5q0 14 -11.5 23t-28.5 9z" />
    <glyph glyph-name="ae" unicode="&#xe6;" horiz-adv-x="943" 
d="M203 -10q-39 0 -73 13t-58.5 35.5t-38.5 53.5t-14 67q0 40 17 73t47 57t71.5 37t91.5 13q64 0 106 -20v16q-1 37 -22 55t-69 18q-45 0 -83 -14.5t-80 -42.5l-55 118q104 67 237 67q117 0 185 -50q34 23 77.5 36.5t97.5 13.5q70 0 124 -22.5t90.5 -60t55 -87t18.5 -103.5
q0 -15 -1.5 -30.5t-3.5 -27.5h-369q3 -42 31 -60.5t61 -18.5q31 0 58.5 14t36.5 39l161 -46q-32 -63 -98.5 -103t-163.5 -40q-80 0 -138.5 28t-94.5 74q-19 -27 -44 -46.5t-52 -31.5t-55 -18t-53 -6zM260 126q17 0 35 5.5t32 14.5q11 8 18 17.5t7 19.5v39q-17 6 -37 10
t-36 4q-35 0 -58 -17t-23 -43q0 -22 17.5 -36t44.5 -14zM724 319q-5 38 -28 60t-59 22t-59 -22t-28 -60h174z" />
    <glyph glyph-name="ccedilla" unicode="&#xe7;" horiz-adv-x="578" 
d="M227 -128q11 -7 37 -13.5t53 -6.5q23 0 39.5 7t16.5 24t-15 23.5t-40 6.5q-21 0 -44.5 -3.5t-34.5 -5.5l42 87q-63 4 -112 28t-82 61t-50 84.5t-17 98.5q0 54 19 103.5t55.5 87t90.5 60t124 22.5q96 0 160.5 -40t96.5 -103l-185 -56q-27 39 -73 39q-39 0 -66 -29.5
t-27 -83.5t27 -83.5t66 -29.5q46 0 73 39l185 -56q-29 -56 -81.5 -93.5t-130.5 -46.5l-18 -27q6 1 12.5 1.5t14.5 0.5q18 0 35 -4.5t30 -13.5t21 -24t8 -36q0 -42 -36.5 -72.5t-115.5 -30.5q-36 0 -64.5 6.5t-48.5 14.5z" />
    <glyph glyph-name="egrave" unicode="&#xe8;" horiz-adv-x="610" 
d="M307 -10q-69 0 -123 21.5t-90.5 58.5t-55.5 85t-19 101q0 57 18.5 108t55 89t90 60.5t124.5 22.5q70 0 124 -22.5t90.5 -60t55 -87t18.5 -103.5q0 -15 -1.5 -30.5t-3.5 -27.5h-369q3 -42 31 -60.5t61 -18.5q31 0 58.5 14t36.5 39l161 -46q-32 -63 -98.5 -103t-163.5 -40z
M391 319q-5 38 -28 60t-59 22t-59 -22t-28 -60h174zM150 731h169l50 -142l-120 -32z" />
    <glyph glyph-name="eacute" unicode="&#xe9;" horiz-adv-x="610" 
d="M307 -10q-69 0 -123 21.5t-90.5 58.5t-55.5 85t-19 101q0 57 18.5 108t55 89t90 60.5t124.5 22.5q70 0 124 -22.5t90.5 -60t55 -87t18.5 -103.5q0 -15 -1.5 -30.5t-3.5 -27.5h-369q3 -42 31 -60.5t61 -18.5q31 0 58.5 14t36.5 39l161 -46q-32 -63 -98.5 -103t-163.5 -40z
M391 319q-5 38 -28 60t-59 22t-59 -22t-28 -60h174zM365 556l-120 32l50 142h169z" />
    <glyph glyph-name="ecircumflex" unicode="&#xea;" horiz-adv-x="610" 
d="M307 -10q-69 0 -123 21.5t-90.5 58.5t-55.5 85t-19 101q0 57 18.5 108t55 89t90 60.5t124.5 22.5q70 0 124 -22.5t90.5 -60t55 -87t18.5 -103.5q0 -15 -1.5 -30.5t-3.5 -27.5h-369q3 -42 31 -60.5t61 -18.5q31 0 58.5 14t36.5 39l161 -46q-32 -63 -98.5 -103t-163.5 -40z
M391 319q-5 38 -28 60t-59 22t-59 -22t-28 -60h174zM126 615l113 115h136l113 -115l-96 -42l-85 63l-85 -63z" />
    <glyph glyph-name="edieresis" unicode="&#xeb;" horiz-adv-x="610" 
d="M307 -10q-69 0 -123 21.5t-90.5 58.5t-55.5 85t-19 101q0 57 18.5 108t55 89t90 60.5t124.5 22.5q70 0 124 -22.5t90.5 -60t55 -87t18.5 -103.5q0 -15 -1.5 -30.5t-3.5 -27.5h-369q3 -42 31 -60.5t61 -18.5q31 0 58.5 14t36.5 39l161 -46q-32 -63 -98.5 -103t-163.5 -40z
M391 319q-5 38 -28 60t-59 22t-59 -22t-28 -60h174zM114 581v140h156v-140h-156zM344 581v140h156v-140h-156z" />
    <glyph glyph-name="igrave" unicode="&#xec;" 
d="M48 0v526h190v-526h-190zM-14 731h169l50 -142l-120 -32z" />
    <glyph glyph-name="iacute" unicode="&#xed;" 
d="M48 0v526h190v-526h-190zM201 556l-120 32l50 142h169z" />
    <glyph glyph-name="icircumflex" unicode="&#xee;" 
d="M48 0v526h190v-526h-190zM-38 615l113 115h136l113 -115l-96 -42l-85 63l-85 -63z" />
    <glyph glyph-name="idieresis" unicode="&#xef;" 
d="M48 0v526h190v-526h-190zM-50 581v140h156v-140h-156zM180 581v140h156v-140h-156z" />
    <glyph glyph-name="eth" unicode="&#xf0;" horiz-adv-x="622" 
d="M551 641l-62 -32q51 -66 80 -148t29 -170q0 -71 -20 -126.5t-57 -94.5t-90.5 -59.5t-120.5 -20.5q-63 0 -116 18t-91.5 50.5t-59.5 77t-21 98.5q0 50 18.5 93t50.5 75t75.5 50.5t93.5 18.5q40 0 77 -12t66 -34q-9 33 -23.5 63.5t-35.5 59.5l-76 -38l-52 71l67 34
q-67 61 -175 115h230q23 -11 45.5 -24.5t43.5 -31.5l72 38zM217 235q0 -38 25.5 -61.5t67.5 -23.5t67.5 23.5t25.5 61.5t-25.5 61.5t-67.5 23.5t-67.5 -23.5t-25.5 -61.5z" />
    <glyph glyph-name="ntilde" unicode="&#xf1;" horiz-adv-x="621" 
d="M577 0h-190v296q0 39 -17.5 56.5t-40.5 17.5q-24 0 -51 -21t-40 -54v-295h-190v526h171v-78q28 43 78.5 65.5t119.5 22.5q54 0 85.5 -19.5t48 -48.5t21.5 -62t5 -60v-346zM397 572q-23 0 -40.5 7.5t-32.5 16.5t-29.5 16.5t-31.5 7.5t-26 -7t-13.5 -16t-5.5 -16.5t-1 -8.5
h-101q0 13 7.5 39.5t24.5 52.5t43 46t64 20q24 0 42 -8t33 -17.5t29 -17.5t31 -8q16 0 26 7.5t15.5 17t7 17.5t1.5 9h100q0 -9 -8 -34.5t-25 -53t-44 -49t-66 -21.5z" />
    <glyph glyph-name="ograve" unicode="&#xf2;" horiz-adv-x="614" 
d="M307 -10q-71 0 -124.5 22.5t-90 60t-55 87t-18.5 103.5t18.5 103.5t55 87t90 60t124.5 22.5q70 0 124 -22.5t90.5 -60t55 -87t18.5 -103.5t-18.5 -103.5t-55 -87t-90.5 -60t-124 -22.5zM214 263q0 -53 26 -83t67 -30t67 30t26 83t-26 83t-67 30t-67 -30t-26 -83zM150 731
h169l50 -142l-120 -32z" />
    <glyph glyph-name="oacute" unicode="&#xf3;" horiz-adv-x="614" 
d="M307 -10q-71 0 -124.5 22.5t-90 60t-55 87t-18.5 103.5t18.5 103.5t55 87t90 60t124.5 22.5q70 0 124 -22.5t90.5 -60t55 -87t18.5 -103.5t-18.5 -103.5t-55 -87t-90.5 -60t-124 -22.5zM214 263q0 -53 26 -83t67 -30t67 30t26 83t-26 83t-67 30t-67 -30t-26 -83zM365 556
l-120 32l50 142h169z" />
    <glyph glyph-name="ocircumflex" unicode="&#xf4;" horiz-adv-x="614" 
d="M307 -10q-71 0 -124.5 22.5t-90 60t-55 87t-18.5 103.5t18.5 103.5t55 87t90 60t124.5 22.5q70 0 124 -22.5t90.5 -60t55 -87t18.5 -103.5t-18.5 -103.5t-55 -87t-90.5 -60t-124 -22.5zM214 263q0 -53 26 -83t67 -30t67 30t26 83t-26 83t-67 30t-67 -30t-26 -83zM126 615
l113 115h136l113 -115l-96 -42l-85 63l-85 -63z" />
    <glyph glyph-name="otilde" unicode="&#xf5;" horiz-adv-x="614" 
d="M307 -10q-71 0 -124.5 22.5t-90 60t-55 87t-18.5 103.5t18.5 103.5t55 87t90 60t124.5 22.5q70 0 124 -22.5t90.5 -60t55 -87t18.5 -103.5t-18.5 -103.5t-55 -87t-90.5 -60t-124 -22.5zM214 263q0 -53 26 -83t67 -30t67 30t26 83t-26 83t-67 30t-67 -30t-26 -83zM371 572
q-23 0 -40.5 7.5t-32.5 16.5t-29.5 16.5t-31.5 7.5t-26 -7t-13.5 -16t-5.5 -16.5t-1 -8.5h-101q0 13 7.5 39.5t24.5 52.5t43 46t64 20q24 0 42 -8t33 -17.5t29 -17.5t31 -8q16 0 26 7.5t15.5 17t7 17.5t1.5 9h100q0 -9 -8 -34.5t-25 -53t-44 -49t-66 -21.5z" />
    <glyph glyph-name="odieresis" unicode="&#xf6;" horiz-adv-x="614" 
d="M307 -10q-71 0 -124.5 22.5t-90 60t-55 87t-18.5 103.5t18.5 103.5t55 87t90 60t124.5 22.5q70 0 124 -22.5t90.5 -60t55 -87t18.5 -103.5t-18.5 -103.5t-55 -87t-90.5 -60t-124 -22.5zM214 263q0 -53 26 -83t67 -30t67 30t26 83t-26 83t-67 30t-67 -30t-26 -83zM114 581
v140h156v-140h-156zM344 581v140h156v-140h-156z" />
    <glyph glyph-name="divide" unicode="&#xf7;" horiz-adv-x="486" 
d="M164 435v160h159v-160h-159zM164 27v160h159v-160h-159zM41 235v150h404v-150h-404z" />
    <glyph glyph-name="oslash" unicode="&#xf8;" horiz-adv-x="614" 
d="M88 77q-35 38 -52 85.5t-17 100.5q0 54 18.5 103.5t55 87t90 60t124.5 22.5q46 0 84 -9.5t70 -26.5l29 32h101l-70 -78q37 -38 55.5 -87.5t18.5 -103.5t-18.5 -103.5t-55 -87t-90.5 -60t-124 -22.5q-48 0 -88.5 10.5t-72.5 29.5l-32 -36h-100zM307 150q41 0 67 30t26 83
q0 28 -8 50l-133 -150q20 -13 48 -13zM214 263q0 -12 1.5 -22.5t3.5 -20.5l130 146q-22 10 -42 10q-41 0 -67 -30t-26 -83z" />
    <glyph glyph-name="ugrave" unicode="&#xf9;" horiz-adv-x="646" 
d="M208 -10q-80 0 -122 48.5t-42 141.5v346h190v-303q0 -35 15.5 -54t42.5 -19q22 0 45 10t46 44v322h190v-316q0 -27 10 -37.5t36 -12.5v-160q-29 -5 -51 -7.5t-39 -2.5q-97 0 -112 73l-4 19q-37 -49 -88 -70.5t-117 -21.5zM152 731h169l50 -142l-120 -32z" />
    <glyph glyph-name="uacute" unicode="&#xfa;" horiz-adv-x="646" 
d="M208 -10q-80 0 -122 48.5t-42 141.5v346h190v-303q0 -35 15.5 -54t42.5 -19q22 0 45 10t46 44v322h190v-316q0 -27 10 -37.5t36 -12.5v-160q-29 -5 -51 -7.5t-39 -2.5q-97 0 -112 73l-4 19q-37 -49 -88 -70.5t-117 -21.5zM367 556l-120 32l50 142h169z" />
    <glyph glyph-name="ucircumflex" unicode="&#xfb;" horiz-adv-x="646" 
d="M208 -10q-80 0 -122 48.5t-42 141.5v346h190v-303q0 -35 15.5 -54t42.5 -19q22 0 45 10t46 44v322h190v-316q0 -27 10 -37.5t36 -12.5v-160q-29 -5 -51 -7.5t-39 -2.5q-97 0 -112 73l-4 19q-37 -49 -88 -70.5t-117 -21.5zM128 615l113 115h136l113 -115l-96 -42l-85 63
l-85 -63z" />
    <glyph glyph-name="udieresis" unicode="&#xfc;" horiz-adv-x="646" 
d="M208 -10q-80 0 -122 48.5t-42 141.5v346h190v-303q0 -35 15.5 -54t42.5 -19q22 0 45 10t46 44v322h190v-316q0 -27 10 -37.5t36 -12.5v-160q-29 -5 -51 -7.5t-39 -2.5q-97 0 -112 73l-4 19q-37 -49 -88 -70.5t-117 -21.5zM116 581v140h156v-140h-156zM346 581v140h156
v-140h-156z" />
    <glyph glyph-name="yacute" unicode="&#xfd;" horiz-adv-x="546" 
d="M36 -53q46 -17 78 -17q61 0 67 70l-191 526h195l100 -365l81 365h177l-178 -589q-12 -39 -34 -70.5t-52.5 -54t-67.5 -34.5t-77 -12q-51 0 -98 19v162zM343 556l-120 32l50 142h169z" />
    <glyph glyph-name="thorn" unicode="&#xfe;" horiz-adv-x="599" 
d="M581 255q0 -57 -21.5 -108.5t-58.5 -91t-86 -63t-103 -23.5q-36 0 -51.5 8t-17.5 10v-200h-195v923h195v-185q6 5 17 9q9 4 23 7t36 3q60 0 108 -26t82.5 -67t53 -92.5t18.5 -103.5zM386 259q0 48 -20 81.5t-59 33.5q-23 0 -37.5 -12.5t-26.5 -34.5v-148q0 -5 5 -12
t13 -13t19.5 -10.5t24.5 -4.5q35 0 58 33t23 87z" />
    <glyph glyph-name="ydieresis" unicode="&#xff;" horiz-adv-x="546" 
d="M36 -53q46 -17 78 -17q61 0 67 70l-191 526h195l100 -365l81 365h177l-178 -589q-12 -39 -34 -70.5t-52.5 -54t-67.5 -34.5t-77 -12q-51 0 -98 19v162zM92 581v140h156v-140h-156zM322 581v140h156v-140h-156z" />
    <glyph glyph-name="Amacron" unicode="&#x100;" horiz-adv-x="671" 
d="M-8 0l265 710h158l264 -710h-206l-43 139h-189l-42 -139h-207zM336 507l-66 -238h129zM182 791v113h310v-113h-310z" />
    <glyph glyph-name="amacron" unicode="&#x101;" horiz-adv-x="604" 
d="M203 -10q-39 0 -73 13t-58.5 35.5t-38.5 53.5t-14 67q0 40 17 73t47 57t71.5 37t91.5 13q64 0 106 -20v16q0 37 -21.5 55t-69.5 18q-45 0 -83 -14.5t-80 -42.5l-55 118q104 67 237 67q126 0 194 -56t68 -168v-102q0 -27 10 -37.5t36 -12.5v-160q-26 -5 -49 -7.5t-41 -2.5
q-51 0 -77.5 18.5t-34.5 54.5l-4 19q-35 -45 -81 -68.5t-98 -23.5zM260 126q17 0 35 5.5t32 14.5q11 8 18 17.5t7 19.5v39q-17 6 -37 10t-36 4q-35 0 -58 -17t-23 -43q0 -22 17.5 -36t44.5 -14zM126 607v113h310v-113h-310z" />
    <glyph glyph-name="Abreve" unicode="&#x102;" horiz-adv-x="671" 
d="M-8 0l265 710h158l264 -710h-206l-43 139h-189l-42 -139h-207zM336 507l-66 -238h129zM336 833q23 0 40.5 23t20.5 58h98q0 -36 -11.5 -65.5t-32.5 -51t-50.5 -33.5t-64.5 -12t-64.5 12t-50.5 33.5t-32.5 51t-11.5 65.5h98q0 -33 18 -57t43 -24z" />
    <glyph glyph-name="abreve" unicode="&#x103;" horiz-adv-x="604" 
d="M203 -10q-39 0 -73 13t-58.5 35.5t-38.5 53.5t-14 67q0 40 17 73t47 57t71.5 37t91.5 13q64 0 106 -20v16q0 37 -21.5 55t-69.5 18q-45 0 -83 -14.5t-80 -42.5l-55 118q104 67 237 67q126 0 194 -56t68 -168v-102q0 -27 10 -37.5t36 -12.5v-160q-26 -5 -49 -7.5t-41 -2.5
q-51 0 -77.5 18.5t-34.5 54.5l-4 19q-35 -45 -81 -68.5t-98 -23.5zM260 126q17 0 35 5.5t32 14.5q11 8 18 17.5t7 19.5v39q-17 6 -37 10t-36 4q-35 0 -58 -17t-23 -43q0 -22 17.5 -36t44.5 -14zM280 649q23 0 40.5 23t20.5 58h98q0 -36 -11.5 -65.5t-32.5 -51t-50.5 -33.5
t-64.5 -12t-64.5 12t-50.5 33.5t-32.5 51t-11.5 65.5h98q0 -33 18 -57t43 -24z" />
    <glyph glyph-name="Aogonek" unicode="&#x104;" horiz-adv-x="671" 
d="M632 -215q-67 9 -99.5 37t-32.5 63q0 29 21.5 59t64.5 56h-113l-43 139h-189l-42 -139h-207l265 710h158l264 -710q-40 -23 -61 -45.5t-21 -42.5q0 -17 17 -27t53 -10zM336 507l-66 -238h129z" />
    <glyph glyph-name="aogonek" unicode="&#x105;" horiz-adv-x="604" 
d="M541 -215q-67 9 -99.5 37t-32.5 63q0 26 18 53.5t53 52.5q-42 3 -64.5 21t-29.5 51l-4 19q-35 -45 -81 -68.5t-98 -23.5q-39 0 -73 13t-58.5 35.5t-38.5 53.5t-14 67q0 40 17 73t47 57t71.5 37t91.5 13q64 0 106 -20v16q0 37 -21.5 55t-69.5 18q-45 0 -83 -14.5
t-80 -42.5l-55 118q104 67 237 67q126 0 194 -56t68 -168v-102q0 -27 10 -37.5t36 -12.5v-160q-40 -23 -61 -45.5t-21 -42.5q0 -17 17 -27t53 -10zM260 126q17 0 35 5.5t32 14.5q11 8 18 17.5t7 19.5v39q-17 6 -37 10t-36 4q-35 0 -58 -17t-23 -43q0 -22 17.5 -36t44.5 -14z
" />
    <glyph glyph-name="Cacute" unicode="&#x106;" horiz-adv-x="655" 
d="M22 361q0 65 23 128t67.5 113t108 81t144.5 31q95 0 166 -42.5t105 -112.5l-149 -106q-9 26 -23.5 43t-31.5 27t-36 14t-35 4q-37 0 -63.5 -16.5t-44 -43t-25.5 -60t-8 -66.5q0 -37 9.5 -71t28 -60t45 -41.5t60.5 -15.5q17 0 35 4.5t34.5 15t30 27t21.5 40.5l159 -95
q-15 -39 -45.5 -70t-69.5 -52t-83 -32t-86 -11q-74 0 -136 31.5t-106.5 83.5t-69.5 118t-25 134zM423 740l-120 32l50 142h169z" />
    <glyph glyph-name="cacute" unicode="&#x107;" horiz-adv-x="576" 
d="M19 263q0 54 19 103.5t55.5 87t90.5 60t124 22.5q96 0 160.5 -40t96.5 -103l-185 -56q-27 39 -73 39q-39 0 -66 -29.5t-27 -83.5t27 -83.5t66 -29.5q46 0 73 39l185 -56q-32 -63 -96.5 -103t-160.5 -40q-70 0 -124 22.5t-90.5 60t-55.5 87t-19 103.5zM366 556l-120 32
l50 142h169z" />
    <glyph glyph-name="Ccircumflex" unicode="&#x108;" horiz-adv-x="655" 
d="M22 361q0 65 23 128t67.5 113t108 81t144.5 31q95 0 166 -42.5t105 -112.5l-149 -106q-9 26 -23.5 43t-31.5 27t-36 14t-35 4q-37 0 -63.5 -16.5t-44 -43t-25.5 -60t-8 -66.5q0 -37 9.5 -71t28 -60t45 -41.5t60.5 -15.5q17 0 35 4.5t34.5 15t30 27t21.5 40.5l159 -95
q-15 -39 -45.5 -70t-69.5 -52t-83 -32t-86 -11q-74 0 -136 31.5t-106.5 83.5t-69.5 118t-25 134zM184 799l113 115h136l113 -115l-96 -42l-85 63l-85 -63z" />
    <glyph glyph-name="ccircumflex" unicode="&#x109;" horiz-adv-x="576" 
d="M19 263q0 54 19 103.5t55.5 87t90.5 60t124 22.5q96 0 160.5 -40t96.5 -103l-185 -56q-27 39 -73 39q-39 0 -66 -29.5t-27 -83.5t27 -83.5t66 -29.5q46 0 73 39l185 -56q-32 -63 -96.5 -103t-160.5 -40q-70 0 -124 22.5t-90.5 60t-55.5 87t-19 103.5zM127 615l113 115
h136l113 -115l-96 -42l-85 63l-85 -63z" />
    <glyph glyph-name="Cdotaccent" unicode="&#x10a;" horiz-adv-x="655" 
d="M22 361q0 65 23 128t67.5 113t108 81t144.5 31q95 0 166 -42.5t105 -112.5l-149 -106q-9 26 -23.5 43t-31.5 27t-36 14t-35 4q-37 0 -63.5 -16.5t-44 -43t-25.5 -60t-8 -66.5q0 -37 9.5 -71t28 -60t45 -41.5t60.5 -15.5q17 0 35 4.5t34.5 15t30 27t21.5 40.5l159 -95
q-15 -39 -45.5 -70t-69.5 -52t-83 -32t-86 -11q-74 0 -136 31.5t-106.5 83.5t-69.5 118t-25 134zM280 764v150h170v-150h-170z" />
    <glyph glyph-name="cdotaccent" unicode="&#x10b;" horiz-adv-x="576" 
d="M19 263q0 54 19 103.5t55.5 87t90.5 60t124 22.5q96 0 160.5 -40t96.5 -103l-185 -56q-27 39 -73 39q-39 0 -66 -29.5t-27 -83.5t27 -83.5t66 -29.5q46 0 73 39l185 -56q-32 -63 -96.5 -103t-160.5 -40q-70 0 -124 22.5t-90.5 60t-55.5 87t-19 103.5zM223 580v150h170
v-150h-170z" />
    <glyph glyph-name="Ccaron" unicode="&#x10c;" horiz-adv-x="655" 
d="M22 361q0 65 23 128t67.5 113t108 81t144.5 31q95 0 166 -42.5t105 -112.5l-149 -106q-9 26 -23.5 43t-31.5 27t-36 14t-35 4q-37 0 -63.5 -16.5t-44 -43t-25.5 -60t-8 -66.5q0 -37 9.5 -71t28 -60t45 -41.5t60.5 -15.5q17 0 35 4.5t34.5 15t30 27t21.5 40.5l159 -95
q-15 -39 -45.5 -70t-69.5 -52t-83 -32t-86 -11q-74 0 -136 31.5t-106.5 83.5t-69.5 118t-25 134zM280 914l85 -63l85 63l96 -42l-113 -115h-136l-113 115z" />
    <glyph glyph-name="ccaron" unicode="&#x10d;" horiz-adv-x="576" 
d="M19 263q0 54 19 103.5t55.5 87t90.5 60t124 22.5q96 0 160.5 -40t96.5 -103l-185 -56q-27 39 -73 39q-39 0 -66 -29.5t-27 -83.5t27 -83.5t66 -29.5q46 0 73 39l185 -56q-32 -63 -96.5 -103t-160.5 -40q-70 0 -124 22.5t-90.5 60t-55.5 87t-19 103.5zM223 730l85 -63
l85 63l96 -42l-113 -115h-136l-113 115z" />
    <glyph glyph-name="Dcaron" unicode="&#x10e;" horiz-adv-x="717" 
d="M61 0v710h273q88 0 155 -28t112 -76t68 -112.5t23 -137.5q0 -81 -25.5 -146.5t-72.5 -112t-113 -72t-147 -25.5h-273zM494 356q0 41 -11 75t-31.5 58t-50.5 37.5t-67 13.5h-78v-370h78q38 0 68 14t50.5 39t31 59t10.5 74zM232 914l85 -63l85 63l96 -42l-113 -115h-136
l-113 115z" />
    <glyph glyph-name="dcaron" unicode="&#x10f;" horiz-adv-x="672" 
d="M268 -10q-54 0 -99.5 20t-78.5 56.5t-51.5 87t-18.5 110.5q0 58 17 108t47.5 86.5t72.5 57t93 20.5t93.5 -23t65.5 -65v282h190v-520q0 -27 10 -37.5t36 -12.5v-160q-29 -5 -51 -7.5t-39 -2.5q-97 0 -112 73l-4 19q-27 -48 -73 -70t-98 -22zM320 150q52 0 90 54v94
q-14 35 -41 56.5t-57 21.5q-21 0 -38.5 -9t-30 -25t-20 -37t-7.5 -45q0 -50 28.5 -80t75.5 -30zM739 556l-120 32l50 142h169z" />
    <glyph glyph-name="Dcroat" unicode="&#x110;" horiz-adv-x="721" 
d="M65 0v287h-37v140h37v283h273q88 0 155 -28t112 -76t68 -112.5t23 -137.5q0 -81 -25.5 -146.5t-72.5 -112t-113 -72t-147 -25.5h-273zM498 356q0 41 -11 75t-31.5 58t-50.5 37.5t-67 13.5h-78v-113h114v-140h-114v-117h78q38 0 68 14t50.5 39t31 59t10.5 74z" />
    <glyph glyph-name="dcroat" unicode="&#x111;" horiz-adv-x="672" 
d="M268 -10q-54 0 -99.5 20t-78.5 56.5t-51.5 87t-18.5 110.5q0 58 17 108t47.5 86.5t72.5 57t93 20.5t93.5 -23t65.5 -65v131h-87v109h87v42h190v-42h58v-109h-58v-369q0 -27 10 -37.5t36 -12.5v-160q-29 -5 -51 -7.5t-39 -2.5q-97 0 -112 73l-4 19q-27 -48 -73 -70
t-98 -22zM320 150q52 0 90 54v94q-14 35 -41 56.5t-57 21.5q-21 0 -38.5 -9t-30 -25t-20 -37t-7.5 -45q0 -50 28.5 -80t75.5 -30z" />
    <glyph glyph-name="Emacron" unicode="&#x112;" horiz-adv-x="597" 
d="M567 170v-170h-506v710h497v-170h-302v-100h258v-158h-258v-112h311zM162 791v113h310v-113h-310z" />
    <glyph glyph-name="emacron" unicode="&#x113;" horiz-adv-x="610" 
d="M307 -10q-69 0 -123 21.5t-90.5 58.5t-55.5 85t-19 101q0 57 18.5 108t55 89t90 60.5t124.5 22.5q70 0 124 -22.5t90.5 -60t55 -87t18.5 -103.5q0 -15 -1.5 -30.5t-3.5 -27.5h-369q3 -42 31 -60.5t61 -18.5q31 0 58.5 14t36.5 39l161 -46q-32 -63 -98.5 -103t-163.5 -40z
M391 319q-5 38 -28 60t-59 22t-59 -22t-28 -60h174zM153 607v113h310v-113h-310z" />
    <glyph glyph-name="Ebreve" unicode="&#x114;" horiz-adv-x="597" 
d="M567 170v-170h-506v710h497v-170h-302v-100h258v-158h-258v-112h311zM316 833q23 0 40.5 23t20.5 58h98q0 -36 -11.5 -65.5t-32.5 -51t-50.5 -33.5t-64.5 -12t-64.5 12t-50.5 33.5t-32.5 51t-11.5 65.5h98q0 -33 18 -57t43 -24z" />
    <glyph glyph-name="ebreve" unicode="&#x115;" horiz-adv-x="610" 
d="M307 -10q-69 0 -123 21.5t-90.5 58.5t-55.5 85t-19 101q0 57 18.5 108t55 89t90 60.5t124.5 22.5q70 0 124 -22.5t90.5 -60t55 -87t18.5 -103.5q0 -15 -1.5 -30.5t-3.5 -27.5h-369q3 -42 31 -60.5t61 -18.5q31 0 58.5 14t36.5 39l161 -46q-32 -63 -98.5 -103t-163.5 -40z
M391 319q-5 38 -28 60t-59 22t-59 -22t-28 -60h174zM307 649q23 0 40.5 23t20.5 58h98q0 -36 -11.5 -65.5t-32.5 -51t-50.5 -33.5t-64.5 -12t-64.5 12t-50.5 33.5t-32.5 51t-11.5 65.5h98q0 -33 18 -57t43 -24z" />
    <glyph glyph-name="Edotaccent" unicode="&#x116;" horiz-adv-x="597" 
d="M567 170v-170h-506v710h497v-170h-302v-100h258v-158h-258v-112h311zM231 764v150h170v-150h-170z" />
    <glyph glyph-name="edotaccent" unicode="&#x117;" horiz-adv-x="610" 
d="M307 -10q-69 0 -123 21.5t-90.5 58.5t-55.5 85t-19 101q0 57 18.5 108t55 89t90 60.5t124.5 22.5q70 0 124 -22.5t90.5 -60t55 -87t18.5 -103.5q0 -15 -1.5 -30.5t-3.5 -27.5h-369q3 -42 31 -60.5t61 -18.5q31 0 58.5 14t36.5 39l161 -46q-32 -63 -98.5 -103t-163.5 -40z
M391 319q-5 38 -28 60t-59 22t-59 -22t-28 -60h174zM222 580v150h170v-150h-170z" />
    <glyph glyph-name="Eogonek" unicode="&#x118;" horiz-adv-x="597" 
d="M310 -214q-67 9 -99.5 37t-32.5 63q0 29 21 58.5t63 55.5h-201v710h497v-170h-302v-100h258v-158h-258v-112h311v-170h-212q-39 -22 -59.5 -44.5t-20.5 -42.5q0 -17 17 -27t53 -10l-35 -90v0z" />
    <glyph glyph-name="eogonek" unicode="&#x119;" horiz-adv-x="612" 
d="M353 -213q-67 9 -99.5 37t-32.5 63q0 26 17 53t51 51q-65 3 -115 25.5t-84.5 59t-52 83t-17.5 97.5q0 57 18.5 108t55 89t90 60.5t124.5 22.5q70 0 124 -22.5t90.5 -60t55 -87t18.5 -103.5q0 -15 -1.5 -30.5t-3.5 -27.5h-369q3 -42 31 -60.5t61 -18.5q31 0 58.5 14
t36.5 39l161 -46q-24 -48 -67.5 -82.5t-105.5 -50.5q-38 -22 -58.5 -44t-20.5 -42q0 -17 17 -27t53 -10zM392 319q-5 38 -28 60t-59 22t-59 -22t-28 -60h174z" />
    <glyph glyph-name="Ecaron" unicode="&#x11a;" horiz-adv-x="597" 
d="M567 170v-170h-506v710h497v-170h-302v-100h258v-158h-258v-112h311zM231 914l85 -63l85 63l96 -42l-113 -115h-136l-113 115z" />
    <glyph glyph-name="ecaron" unicode="&#x11b;" horiz-adv-x="610" 
d="M307 -10q-69 0 -123 21.5t-90.5 58.5t-55.5 85t-19 101q0 57 18.5 108t55 89t90 60.5t124.5 22.5q70 0 124 -22.5t90.5 -60t55 -87t18.5 -103.5q0 -15 -1.5 -30.5t-3.5 -27.5h-369q3 -42 31 -60.5t61 -18.5q31 0 58.5 14t36.5 39l161 -46q-32 -63 -98.5 -103t-163.5 -40z
M391 319q-5 38 -28 60t-59 22t-59 -22t-28 -60h174zM222 730l85 -63l85 63l96 -42l-113 -115h-136l-113 115z" />
    <glyph glyph-name="Gcircumflex" unicode="&#x11c;" horiz-adv-x="699" 
d="M503 58q-67 -63 -155 -63q-66 0 -125 29.5t-103.5 79.5t-70.5 116.5t-26 140.5q0 75 26.5 139.5t73 112t109.5 75t135 27.5q45 0 86 -10.5t76 -31t62.5 -49t45.5 -64.5l-145 -111q-18 42 -54.5 67.5t-77.5 25.5q-30 0 -55.5 -14t-44 -39t-29 -59.5t-10.5 -75.5
q0 -42 10.5 -76t29.5 -58.5t45.5 -38t58.5 -13.5q36 0 69.5 18t62.5 52h-125v140h292v-378h-161v58zM185 799l113 115h136l113 -115l-96 -42l-85 63l-85 -63z" />
    <glyph glyph-name="gcircumflex" unicode="&#x11d;" horiz-adv-x="647" 
d="M250 0q-51 0 -93.5 20.5t-72.5 56t-46.5 83.5t-16.5 104q0 59 18 109t50.5 86t77.5 56.5t99 20.5q57 0 100 -22.5t68 -65.5v78h165v-478q0 -62 -23 -112t-65 -85t-101 -54.5t-131 -19.5q-84 0 -146 26t-110 75l100 104q29 -27 69.5 -45.5t86.5 -18.5q26 0 49.5 7
t41.5 22.5t28.5 40.5t10.5 60v34q-23 -42 -65.5 -62t-93.5 -20zM318 150q29 0 50.5 13.5t40.5 40.5v94q-14 36 -41.5 57t-57.5 21q-20 0 -37.5 -9.5t-30.5 -25t-20 -37t-7 -45.5q0 -49 29 -79t74 -30zM172 615l113 115h136l113 -115l-96 -42l-85 63l-85 -63z" />
    <glyph glyph-name="Gbreve" unicode="&#x11e;" horiz-adv-x="699" 
d="M503 58q-67 -63 -155 -63q-66 0 -125 29.5t-103.5 79.5t-70.5 116.5t-26 140.5q0 75 26.5 139.5t73 112t109.5 75t135 27.5q45 0 86 -10.5t76 -31t62.5 -49t45.5 -64.5l-145 -111q-18 42 -54.5 67.5t-77.5 25.5q-30 0 -55.5 -14t-44 -39t-29 -59.5t-10.5 -75.5
q0 -42 10.5 -76t29.5 -58.5t45.5 -38t58.5 -13.5q36 0 69.5 18t62.5 52h-125v140h292v-378h-161v58zM366 833q23 0 40.5 23t20.5 58h98q0 -36 -11.5 -65.5t-32.5 -51t-50.5 -33.5t-64.5 -12t-64.5 12t-50.5 33.5t-32.5 51t-11.5 65.5h98q0 -33 18 -57t43 -24z" />
    <glyph glyph-name="gbreve" unicode="&#x11f;" horiz-adv-x="647" 
d="M250 0q-51 0 -93.5 20.5t-72.5 56t-46.5 83.5t-16.5 104q0 59 18 109t50.5 86t77.5 56.5t99 20.5q57 0 100 -22.5t68 -65.5v78h165v-478q0 -62 -23 -112t-65 -85t-101 -54.5t-131 -19.5q-84 0 -146 26t-110 75l100 104q29 -27 69.5 -45.5t86.5 -18.5q26 0 49.5 7
t41.5 22.5t28.5 40.5t10.5 60v34q-23 -42 -65.5 -62t-93.5 -20zM318 150q29 0 50.5 13.5t40.5 40.5v94q-14 36 -41.5 57t-57.5 21q-20 0 -37.5 -9.5t-30.5 -25t-20 -37t-7 -45.5q0 -49 29 -79t74 -30zM353 649q23 0 40.5 23t20.5 58h98q0 -36 -11.5 -65.5t-32.5 -51
t-50.5 -33.5t-64.5 -12t-64.5 12t-50.5 33.5t-32.5 51t-11.5 65.5h98q0 -33 18 -57t43 -24z" />
    <glyph glyph-name="Gdotaccent" unicode="&#x120;" horiz-adv-x="699" 
d="M503 58q-67 -63 -155 -63q-66 0 -125 29.5t-103.5 79.5t-70.5 116.5t-26 140.5q0 75 26.5 139.5t73 112t109.5 75t135 27.5q45 0 86 -10.5t76 -31t62.5 -49t45.5 -64.5l-145 -111q-18 42 -54.5 67.5t-77.5 25.5q-30 0 -55.5 -14t-44 -39t-29 -59.5t-10.5 -75.5
q0 -42 10.5 -76t29.5 -58.5t45.5 -38t58.5 -13.5q36 0 69.5 18t62.5 52h-125v140h292v-378h-161v58zM281 764v150h170v-150h-170z" />
    <glyph glyph-name="gdotaccent" unicode="&#x121;" horiz-adv-x="647" 
d="M250 0q-51 0 -93.5 20.5t-72.5 56t-46.5 83.5t-16.5 104q0 59 18 109t50.5 86t77.5 56.5t99 20.5q57 0 100 -22.5t68 -65.5v78h165v-478q0 -62 -23 -112t-65 -85t-101 -54.5t-131 -19.5q-84 0 -146 26t-110 75l100 104q29 -27 69.5 -45.5t86.5 -18.5q26 0 49.5 7
t41.5 22.5t28.5 40.5t10.5 60v34q-23 -42 -65.5 -62t-93.5 -20zM318 150q29 0 50.5 13.5t40.5 40.5v94q-14 36 -41.5 57t-57.5 21q-20 0 -37.5 -9.5t-30.5 -25t-20 -37t-7 -45.5q0 -49 29 -79t74 -30zM268 580v150h170v-150h-170z" />
    <glyph glyph-name="Gcommaaccent" unicode="&#x122;" horiz-adv-x="699" 
d="M503 58q-67 -63 -155 -63q-66 0 -125 29.5t-103.5 79.5t-70.5 116.5t-26 140.5q0 75 26.5 139.5t73 112t109.5 75t135 27.5q45 0 86 -10.5t76 -31t62.5 -49t45.5 -64.5l-145 -111q-18 42 -54.5 67.5t-77.5 25.5q-30 0 -55.5 -14t-44 -39t-29 -59.5t-10.5 -75.5
q0 -42 10.5 -76t29.5 -58.5t45.5 -38t58.5 -13.5q36 0 69.5 18t62.5 52h-125v140h292v-378h-161v58zM239 -140q43 0 43 30v64h154v-72q0 -33 -15 -52t-41.5 -28.5t-62.5 -12t-78 -2.5v73z" />
    <glyph glyph-name="gcommaaccent" unicode="&#x123;" horiz-adv-x="647" 
d="M250 0q-51 0 -93.5 20.5t-72.5 56t-46.5 83.5t-16.5 104q0 59 18 109t50.5 86t77.5 56.5t99 20.5q57 0 100 -22.5t68 -65.5v78h165v-478q0 -62 -23 -112t-65 -85t-101 -54.5t-131 -19.5q-84 0 -146 26t-110 75l100 104q29 -27 69.5 -45.5t86.5 -18.5q26 0 49.5 7
t41.5 22.5t28.5 40.5t10.5 60v34q-23 -42 -65.5 -62t-93.5 -20zM318 150q29 0 50.5 13.5t40.5 40.5v94q-14 36 -41.5 57t-57.5 21q-20 0 -37.5 -9.5t-30.5 -25t-20 -37t-7 -45.5q0 -49 29 -79t74 -30zM411 556l-120 32l50 142h169z" />
    <glyph glyph-name="Hcircumflex" unicode="&#x124;" horiz-adv-x="750" 
d="M689 710v-710h-195v278h-238v-278h-195v710h195v-262h238v262h195zM197 798l113 115h136l113 -115l-96 -42l-85 63l-85 -63z" />
    <glyph glyph-name="hcircumflex" unicode="&#x125;" horiz-adv-x="621" 
d="M577 0h-190v296q0 39 -17.5 56.5t-43.5 17.5q-9 0 -21.5 -5.5t-25 -15t-23.5 -23.5t-18 -31v-295h-190v730h190v-282q28 43 73 65.5t101 22.5q55 0 88 -19t50 -47.5t22 -61.5t5 -62v-346zM266 617l93 112h111l92 -112l-78 -40l-70 61l-69 -61z" />
    <glyph glyph-name="Hbar" unicode="&#x126;" horiz-adv-x="756" 
d="M692 710v-84h50v-88h-50v-538h-195v278h-238v-278h-195v538h-50v88h50v84h195v-84h238v84h195zM497 448v90h-238v-90h238z" />
    <glyph glyph-name="hbar" unicode="&#x127;" horiz-adv-x="621" 
d="M577 0h-190v296q0 39 -17.5 56.5t-43.5 17.5q-9 0 -21.5 -5.5t-25 -15t-23.5 -23.5t-18 -31v-295h-190v579h-30v109h30v42h190v-42h115v-109h-115v-131q28 43 73 65.5t101 22.5q55 0 88 -19t50 -47.5t22 -61.5t5 -62v-346z" />
    <glyph glyph-name="Itilde" unicode="&#x128;" horiz-adv-x="317" 
d="M61 0v710h195v-710h-195zM222 756q-23 0 -40.5 7.5t-32.5 16.5t-29.5 16.5t-31.5 7.5t-26 -7t-13.5 -16t-5.5 -16.5t-1 -8.5h-101q0 13 7.5 39.5t24.5 52.5t43 46t64 20q24 0 42 -8t33 -17.5t29 -17.5t31 -8q16 0 26 7.5t15.5 17t7 17.5t1.5 9h100q0 -9 -8 -34.5t-25 -53
t-44 -49t-66 -21.5z" />
    <glyph glyph-name="itilde" unicode="&#x129;" 
d="M48 0v526h190v-526h-190zM207 572q-23 0 -40.5 7.5t-32.5 16.5t-29.5 16.5t-31.5 7.5t-26 -7t-13.5 -16t-5.5 -16.5t-1 -8.5h-101q0 13 7.5 39.5t24.5 52.5t43 46t64 20q24 0 42 -8t33 -17.5t29 -17.5t31 -8q16 0 26 7.5t15.5 17t7 17.5t1.5 9h100q0 -9 -8 -34.5t-25 -53
t-44 -49t-66 -21.5z" />
    <glyph glyph-name="Imacron" unicode="&#x12a;" horiz-adv-x="317" 
d="M61 0v710h195v-710h-195zM4 791v113h310v-113h-310z" />
    <glyph glyph-name="imacron" unicode="&#x12b;" 
d="M48 0v526h190v-526h-190zM-11 607v113h310v-113h-310z" />
    <glyph glyph-name="Ibreve" unicode="&#x12c;" horiz-adv-x="317" 
d="M61 0v710h195v-710h-195zM158 833q23 0 40.5 23t20.5 58h98q0 -36 -11.5 -65.5t-32.5 -51t-50.5 -33.5t-64.5 -12t-64.5 12t-50.5 33.5t-32.5 51t-11.5 65.5h98q0 -33 18 -57t43 -24z" />
    <glyph glyph-name="ibreve" unicode="&#x12d;" 
d="M48 0v526h190v-526h-190zM143 649q23 0 40.5 23t20.5 58h98q0 -36 -11.5 -65.5t-32.5 -51t-50.5 -33.5t-64.5 -12t-64.5 12t-50.5 33.5t-32.5 51t-11.5 65.5h98q0 -33 18 -57t43 -24z" />
    <glyph glyph-name="Iogonek" unicode="&#x12e;" horiz-adv-x="317" 
d="M209 -215q-67 9 -99.5 37t-32.5 63q0 29 21.5 59t64.5 56h-102v710h195v-710q-40 -23 -61 -45.5t-21 -42.5q0 -17 17 -27t53 -10l-35 -90v0z" />
    <glyph glyph-name="iogonek" unicode="&#x12f;" 
d="M191 -215q-67 9 -99.5 37t-32.5 63q0 29 21.5 59t64.5 56h-97v526h190v-526q-40 -23 -61 -45.5t-21 -42.5q0 -17 17 -27t53 -10zM48 570v160h190v-160h-190z" />
    <glyph glyph-name="Idotaccent" unicode="&#x130;" horiz-adv-x="317" 
d="M61 0v710h195v-710h-195zM73 764v150h170v-150h-170z" />
    <glyph glyph-name="dotlessi" unicode="&#x131;" 
d="M48 0v526h190v-526h-190z" />
    <glyph glyph-name="IJ" unicode="&#x132;" horiz-adv-x="819" 
d="M61 0v710h195v-710h-195zM363 192q3 -2 13 -7t25 -10t34.5 -9t40.5 -4q31 0 50 10t29 32.5t13 58t3 86.5v361h195v-361q0 -81 -9 -147.5t-39 -113.5t-87.5 -73t-154.5 -26q-90 0 -154 44z" />
    <glyph glyph-name="ij" unicode="&#x133;" horiz-adv-x="572" 
d="M48 0v526h190v-526h-190zM48 570v160h190v-160h-190zM318 -209q-42 0 -80 14t-69 40l78 129q18 -20 47 -20q40 0 40 43v529h190v-514q0 -49 -15 -89.5t-42.5 -70t-65.5 -45.5t-83 -16zM334 570v160h190v-160h-190z" />
    <glyph glyph-name="Jcircumflex" unicode="&#x134;" horiz-adv-x="502" 
d="M46 192q3 -2 13 -7t25 -10t34.5 -9t40.5 -4q31 0 50 10t29 32.5t13 58t3 86.5v361h195v-361q0 -81 -9 -147.5t-39 -113.5t-87.5 -73t-154.5 -26q-90 0 -154 44zM173 799l113 115h136l113 -115l-96 -42l-85 63l-85 -63z" />
    <glyph glyph-name="jcircumflex" unicode="&#x135;" 
d="M32 -209q-42 0 -80 14t-69 40l78 129q18 -20 47 -20q40 0 40 43v529h190v-514q0 -49 -15 -89.5t-42.5 -70t-65.5 -45.5t-83 -16zM-38 615l113 115h136l113 -115l-96 -42l-85 63l-85 -63z" />
    <glyph glyph-name="Kcommaaccent" unicode="&#x136;" horiz-adv-x="689" 
d="M61 0v710h195v-290l236 290h200l-258 -318l276 -392h-204l-187 283l-63 -72v-211h-195zM248 -140q43 0 43 30v64h154v-72q0 -33 -15 -52t-41.5 -28.5t-62.5 -12t-78 -2.5v73z" />
    <glyph glyph-name="kcommaaccent" unicode="&#x137;" horiz-adv-x="582" 
d="M395 0l-119 192l-38 -42v-150h-190v730h190v-399l140 195h200l-181 -230l199 -296h-201zM178 -140q43 0 43 30v64h154v-72q0 -33 -15 -52t-41.5 -28.5t-62.5 -12t-78 -2.5v73z" />
    <glyph glyph-name="kgreenlandic" unicode="&#x138;" horiz-adv-x="582" 
d="M395 0l-119 192l-38 -42v-150h-190v526h190v-195l140 195h200l-181 -230l199 -296h-201z" />
    <glyph glyph-name="Lacute" unicode="&#x139;" horiz-adv-x="588" 
d="M61 0v710h195v-540h322v-170h-517zM429 740l-120 32l50 142h169z" />
    <glyph glyph-name="lacute" unicode="&#x13a;" horiz-adv-x="363" 
d="M45 730h190v-508q0 -60 49 -60q12 0 26 4t26 11l24 -153q-34 -16 -76.5 -25t-80.5 -9q-76 0 -117 39t-41 113v588zM198 758l-120 32l50 142h169z" />
    <glyph glyph-name="Lcommaaccent" unicode="&#x13b;" horiz-adv-x="588" 
d="M61 0v710h195v-540h322v-170h-517zM215 -140q43 0 43 30v64h154v-72q0 -33 -15 -52t-41.5 -28.5t-62.5 -12t-78 -2.5v73z" />
    <glyph glyph-name="lcommaaccent" unicode="&#x13c;" horiz-adv-x="363" 
d="M45 730h190v-508q0 -60 49 -60q12 0 26 4t26 11l24 -153q-34 -16 -76.5 -25t-80.5 -9q-76 0 -117 39t-41 113v588zM81 -140q43 0 43 30v64h154v-72q0 -33 -15 -52t-41.5 -28.5t-62.5 -12t-78 -2.5v73z" />
    <glyph glyph-name="Lcaron" unicode="&#x13d;" horiz-adv-x="589" 
d="M61 0v710h195v-540h322v-170h-517zM439 555l-120 32l50 142h169z" />
    <glyph glyph-name="lcaron" unicode="&#x13e;" horiz-adv-x="363" 
d="M45 730h190v-508q0 -60 49 -60q12 0 26 4t26 11l24 -153q-34 -16 -76.5 -25t-80.5 -9q-76 0 -117 39t-41 113v588zM390 555l-120 32l50 142h169z" />
    <glyph glyph-name="Ldot" unicode="&#x13f;" horiz-adv-x="589" 
d="M61 0v710h195v-540h322v-170h-517zM364 317v184h154v-184h-154z" />
    <glyph glyph-name="ldot" unicode="&#x140;" horiz-adv-x="466" 
d="M45 730h190v-508q0 -60 49 -60q12 0 26 4t26 11l24 -153q-34 -16 -76.5 -25t-80.5 -9q-76 0 -117 39t-41 113v588zM296 299v184h154v-184h-154z" />
    <glyph glyph-name="Lslash" unicode="&#x141;" horiz-adv-x="600" 
d="M73 0v275l-47 -23l-43 101l90 44v313h195v-218l71 35l43 -101l-114 -56v-200h322v-170h-517z" />
    <glyph glyph-name="lslash" unicode="&#x142;" horiz-adv-x="394" 
d="M71 271l-40 -19l-43 101l83 40v337h190v-244l83 41l43 -101l-126 -62v-142q0 -60 49 -60q12 0 26 4t26 11l24 -153q-34 -16 -76.5 -25t-80.5 -9q-76 0 -117 39t-41 113v129z" />
    <glyph glyph-name="Nacute" unicode="&#x143;" horiz-adv-x="754" 
d="M256 349v-349h-195v710h152l285 -361v361h195v-710h-155zM432 739l-120 32l50 142h169z" />
    <glyph glyph-name="nacute" unicode="&#x144;" horiz-adv-x="621" 
d="M577 0h-190v296q0 39 -17.5 56.5t-40.5 17.5q-24 0 -51 -21t-40 -54v-295h-190v526h171v-78q28 43 78.5 65.5t119.5 22.5q54 0 85.5 -19.5t48 -48.5t21.5 -62t5 -60v-346zM391 556l-120 32l50 142h169z" />
    <glyph glyph-name="Ncommaaccent" unicode="&#x145;" horiz-adv-x="754" 
d="M256 349v-349h-195v710h152l285 -361v361h195v-710h-155zM252 -140q43 0 43 30v64h154v-72q0 -33 -15 -52t-41.5 -28.5t-62.5 -12t-78 -2.5v73z" />
    <glyph glyph-name="ncommaaccent" unicode="&#x146;" horiz-adv-x="621" 
d="M577 0h-190v296q0 39 -17.5 56.5t-40.5 17.5q-24 0 -51 -21t-40 -54v-295h-190v526h171v-78q28 43 78.5 65.5t119.5 22.5q54 0 85.5 -19.5t48 -48.5t21.5 -62t5 -60v-346zM189 -140q43 0 43 30v64h154v-72q0 -33 -15 -52t-41.5 -28.5t-62.5 -12t-78 -2.5v73z" />
    <glyph glyph-name="Ncaron" unicode="&#x147;" horiz-adv-x="754" 
d="M256 349v-349h-195v710h152l285 -361v361h195v-710h-155zM289 913l85 -63l85 63l96 -42l-113 -115h-136l-113 115z" />
    <glyph glyph-name="ncaron" unicode="&#x148;" horiz-adv-x="621" 
d="M577 0h-190v296q0 39 -17.5 56.5t-40.5 17.5q-24 0 -51 -21t-40 -54v-295h-190v526h171v-78q28 43 78.5 65.5t119.5 22.5q54 0 85.5 -19.5t48 -48.5t21.5 -62t5 -60v-346zM248 730l85 -63l85 63l96 -42l-113 -115h-136l-113 115z" />
    <glyph glyph-name="napostrophe" unicode="&#x149;" horiz-adv-x="621" 
d="M577 0h-190v296q0 39 -17.5 56.5t-40.5 17.5q-24 0 -51 -21t-40 -54v-295h-190v526h171v-78q28 43 78.5 65.5t119.5 22.5q54 0 85.5 -19.5t48 -48.5t21.5 -62t5 -60v-346zM79 556l-120 32l31 87l-11 55h199z" />
    <glyph glyph-name="Eng" unicode="&#x14a;" horiz-adv-x="734" 
d="M256 343v-343h-195v710h150l267 -351v350h195v-704q0 -49 -15.5 -88.5t-43.5 -67.5t-65.5 -43t-81.5 -15q-42 0 -80 14t-69 40l78 129q18 -20 47 -20q40 0 40 43v47z" />
    <glyph glyph-name="eng" unicode="&#x14b;" horiz-adv-x="620" 
d="M370 -209q-42 0 -80 14t-69 40l78 129q18 -20 47 -20q19 0 30 11.5t11 31.5v299q0 39 -17.5 56.5t-40.5 17.5q-24 0 -51 -21t-40 -54v-295h-190v526h171v-78q28 43 78.5 65.5t119.5 22.5q54 0 85.5 -19.5t48 -48.5t21 -62t4.5 -60v-334q0 -49 -15.5 -89.5t-43 -70
t-65 -45.5t-82.5 -16z" />
    <glyph glyph-name="Omacron" unicode="&#x14c;" horiz-adv-x="727" 
d="M362 -6q-76 0 -138.5 31t-107 81.5t-69 115.5t-24.5 134q0 70 25.5 135t71.5 114.5t108.5 79t137.5 29.5q76 0 138.5 -31t107 -82t68.5 -116t24 -133q0 -70 -25.5 -134.5t-70.5 -114t-108 -79.5t-138 -30zM221 354q0 -36 8.5 -69.5t26.5 -59.5t45 -42t63 -16
q37 0 64 16.5t44 43t25.5 60.5t8.5 69q0 36 -9 69.5t-26.5 59t-44.5 41t-63 15.5q-37 0 -63.5 -16t-44 -42.5t-26 -60t-8.5 -68.5zM212 791v113h310v-113h-310z" />
    <glyph glyph-name="omacron" unicode="&#x14d;" horiz-adv-x="614" 
d="M307 -10q-71 0 -124.5 22.5t-90 60t-55 87t-18.5 103.5t18.5 103.5t55 87t90 60t124.5 22.5q70 0 124 -22.5t90.5 -60t55 -87t18.5 -103.5t-18.5 -103.5t-55 -87t-90.5 -60t-124 -22.5zM214 263q0 -53 26 -83t67 -30t67 30t26 83t-26 83t-67 30t-67 -30t-26 -83zM153 607
v113h310v-113h-310z" />
    <glyph glyph-name="Obreve" unicode="&#x14e;" horiz-adv-x="727" 
d="M362 -6q-76 0 -138.5 31t-107 81.5t-69 115.5t-24.5 134q0 70 25.5 135t71.5 114.5t108.5 79t137.5 29.5q76 0 138.5 -31t107 -82t68.5 -116t24 -133q0 -70 -25.5 -134.5t-70.5 -114t-108 -79.5t-138 -30zM221 354q0 -36 8.5 -69.5t26.5 -59.5t45 -42t63 -16
q37 0 64 16.5t44 43t25.5 60.5t8.5 69q0 36 -9 69.5t-26.5 59t-44.5 41t-63 15.5q-37 0 -63.5 -16t-44 -42.5t-26 -60t-8.5 -68.5zM366 833q23 0 40.5 23t20.5 58h98q0 -36 -11.5 -65.5t-32.5 -51t-50.5 -33.5t-64.5 -12t-64.5 12t-50.5 33.5t-32.5 51t-11.5 65.5h98
q0 -33 18 -57t43 -24z" />
    <glyph glyph-name="obreve" unicode="&#x14f;" horiz-adv-x="614" 
d="M307 -10q-71 0 -124.5 22.5t-90 60t-55 87t-18.5 103.5t18.5 103.5t55 87t90 60t124.5 22.5q70 0 124 -22.5t90.5 -60t55 -87t18.5 -103.5t-18.5 -103.5t-55 -87t-90.5 -60t-124 -22.5zM214 263q0 -53 26 -83t67 -30t67 30t26 83t-26 83t-67 30t-67 -30t-26 -83zM307 649
q23 0 40.5 23t20.5 58h98q0 -36 -11.5 -65.5t-32.5 -51t-50.5 -33.5t-64.5 -12t-64.5 12t-50.5 33.5t-32.5 51t-11.5 65.5h98q0 -33 18 -57t43 -24z" />
    <glyph glyph-name="Ohungarumlaut" unicode="&#x150;" horiz-adv-x="727" 
d="M362 -6q-76 0 -138.5 31t-107 81.5t-69 115.5t-24.5 134q0 70 25.5 135t71.5 114.5t108.5 79t137.5 29.5q76 0 138.5 -31t107 -82t68.5 -116t24 -133q0 -70 -25.5 -134.5t-70.5 -114t-108 -79.5t-138 -30zM221 354q0 -36 8.5 -69.5t26.5 -59.5t45 -42t63 -16
q37 0 64 16.5t44 43t25.5 60.5t8.5 69q0 36 -9 69.5t-26.5 59t-44.5 41t-63 15.5q-37 0 -63.5 -16t-44 -42.5t-26 -60t-8.5 -68.5zM303 741l-90 32l40 142h139zM493 741l-90 32l40 142h139z" />
    <glyph glyph-name="ohungarumlaut" unicode="&#x151;" horiz-adv-x="614" 
d="M307 -10q-71 0 -124.5 22.5t-90 60t-55 87t-18.5 103.5t18.5 103.5t55 87t90 60t124.5 22.5q70 0 124 -22.5t90.5 -60t55 -87t18.5 -103.5t-18.5 -103.5t-55 -87t-90.5 -60t-124 -22.5zM214 263q0 -53 26 -83t67 -30t67 30t26 83t-26 83t-67 30t-67 -30t-26 -83zM244 557
l-90 32l40 142h139zM434 557l-90 32l40 142h139z" />
    <glyph glyph-name="OE" unicode="&#x152;" horiz-adv-x="1030" 
d="M1001 170v-170h-486v41q-34 -21 -72.5 -33.5t-80.5 -12.5q-76 0 -138.5 30.5t-107 81t-69 115.5t-24.5 134q0 70 25.5 135t71.5 115t108.5 79.5t137.5 29.5q42 0 79 -12t70 -33v40h477v-170h-282v-94h228v-170h-228v-106h291zM364 168q37 0 64 16.5t44 43t25.5 60
t8.5 68.5q0 36 -9 69.5t-26.5 59.5t-44.5 41.5t-63 15.5q-37 0 -63.5 -16.5t-44 -43t-26 -60t-8.5 -68.5q0 -36 8.5 -69.5t26.5 -59.5t45 -41.5t63 -15.5z" />
    <glyph glyph-name="oe" unicode="&#x153;" horiz-adv-x="992" 
d="M305 -10q-63 0 -115.5 20t-90.5 56.5t-59 86.5t-21 110t21 110t58.5 86.5t90 56.5t114.5 20q60 0 106.5 -20.5t87.5 -65.5q47 46 92.5 66t103.5 20q62 0 114.5 -20.5t90 -56.5t58.5 -86t21 -110q0 -15 -1.5 -30.5t-3.5 -27.5h-369q2 -36 29 -59.5t66 -23.5q32 0 59.5 16
t37.5 41l156 -46q-35 -67 -103.5 -105t-155.5 -38q-27 0 -50 4t-46 13.5t-47 25t-52 37.5q-28 -23 -51.5 -38t-46 -24.5t-45.5 -13.5t-49 -4zM307 150q42 0 67.5 31t25.5 82t-25.5 82t-67.5 31t-67.5 -31t-25.5 -82t25.5 -82t67.5 -31zM777 319q-5 38 -29 60t-61 22
q-38 0 -62 -22t-28 -60h180z" />
    <glyph glyph-name="Racute" unicode="&#x154;" horiz-adv-x="686" 
d="M61 0v710h326q52 0 96 -21.5t75.5 -56t49.5 -79t18 -89.5q0 -62 -27 -115.5t-75 -87.5l160 -261h-220l-135 218h-73v-218h-195zM256 388h123q18 0 33.5 20t15.5 56q0 37 -18 56.5t-36 19.5h-118v-152zM377 739l-120 32l50 142h169z" />
    <glyph glyph-name="racute" unicode="&#x155;" horiz-adv-x="417" 
d="M405 364q-55 0 -100 -12t-67 -40v-312h-190v526h174v-100q28 53 69.5 81.5t89.5 28.5q19 0 24 -1v-171zM317 556l-120 32l50 142h169z" />
    <glyph glyph-name="Rcommaaccent" unicode="&#x156;" horiz-adv-x="686" 
d="M61 0v710h326q52 0 96 -21.5t75.5 -56t49.5 -79t18 -89.5q0 -62 -27 -115.5t-75 -87.5l160 -261h-220l-135 218h-73v-218h-195zM256 388h123q18 0 33.5 20t15.5 56q0 37 -18 56.5t-36 19.5h-118v-152zM232 -140q43 0 43 30v64h154v-72q0 -33 -15 -52t-41.5 -28.5
t-62.5 -12t-78 -2.5v73z" />
    <glyph glyph-name="rcommaaccent" unicode="&#x157;" horiz-adv-x="417" 
d="M405 364q-55 0 -100 -12t-67 -40v-312h-190v526h174v-100q28 53 69.5 81.5t89.5 28.5q19 0 24 -1v-171zM14 -140q43 0 43 30v64h154v-72q0 -33 -15 -52t-41.5 -28.5t-62.5 -12t-78 -2.5v73z" />
    <glyph glyph-name="Rcaron" unicode="&#x158;" horiz-adv-x="686" 
d="M61 0v710h326q52 0 96 -21.5t75.5 -56t49.5 -79t18 -89.5q0 -62 -27 -115.5t-75 -87.5l160 -261h-220l-135 218h-73v-218h-195zM256 388h123q18 0 33.5 20t15.5 56q0 37 -18 56.5t-36 19.5h-118v-152zM234 913l85 -63l85 63l96 -42l-113 -115h-136l-113 115z" />
    <glyph glyph-name="rcaron" unicode="&#x159;" horiz-adv-x="417" 
d="M405 364q-55 0 -100 -12t-67 -40v-312h-190v526h174v-100q28 53 69.5 81.5t89.5 28.5q19 0 24 -1v-171zM174 730l85 -63l85 63l96 -42l-113 -115h-136l-113 115z" />
    <glyph glyph-name="Sacute" unicode="&#x15a;" horiz-adv-x="617" 
d="M491 478q-30 18 -62 32q-27 12 -60.5 22.5t-65.5 10.5q-26 0 -41.5 -8t-15.5 -27q0 -14 9 -23t26 -16.5t41.5 -14.5t55.5 -17q49 -15 88.5 -33t67.5 -42.5t43 -59.5t15 -85q0 -64 -23.5 -107.5t-62 -69.5t-87 -37.5t-97.5 -11.5q-39 0 -80 6t-81.5 17t-78 26t-69.5 34
l84 171q35 -22 73 -39q32 -15 72.5 -27t82.5 -12q32 0 44.5 8.5t12.5 22.5q0 15 -12.5 25.5t-34.5 18.5t-50.5 16t-60.5 19q-47 16 -81 34.5t-56 42t-32.5 53.5t-10.5 69q0 59 21.5 104t58.5 75t84.5 45.5t100.5 15.5q39 0 76 -7.5t71.5 -19t64.5 -25t54 -25.5zM385 740
l-120 32l50 142h169z" />
    <glyph glyph-name="sacute" unicode="&#x15b;" horiz-adv-x="527" 
d="M282 -10q-33 0 -71 5t-74.5 13t-70.5 19.5t-59 25.5l73 129q55 -29 105 -44t93 -15q50 0 50 25q0 13 -20 23t-76 24q-56 15 -94 30t-61 33.5t-33 41t-10 52.5q0 40 16.5 74t46.5 59t71.5 38.5t90.5 13.5q53 0 113.5 -15t123.5 -44l-73 -121q-56 26 -93 37.5t-71 11.5
q-22 0 -35.5 -6.5t-13.5 -20.5q0 -8 4 -13.5t14 -10.5t27.5 -10.5t43.5 -11.5q60 -15 101 -31.5t65.5 -36t35 -44t10.5 -56.5q0 -81 -61.5 -128t-167.5 -47zM317 556l-120 32l50 142h169z" />
    <glyph glyph-name="Scircumflex" unicode="&#x15c;" horiz-adv-x="617" 
d="M491 478q-30 18 -62 32q-27 12 -60.5 22.5t-65.5 10.5q-26 0 -41.5 -8t-15.5 -27q0 -14 9 -23t26 -16.5t41.5 -14.5t55.5 -17q49 -15 88.5 -33t67.5 -42.5t43 -59.5t15 -85q0 -64 -23.5 -107.5t-62 -69.5t-87 -37.5t-97.5 -11.5q-39 0 -80 6t-81.5 17t-78 26t-69.5 34
l84 171q35 -22 73 -39q32 -15 72.5 -27t82.5 -12q32 0 44.5 8.5t12.5 22.5q0 15 -12.5 25.5t-34.5 18.5t-50.5 16t-60.5 19q-47 16 -81 34.5t-56 42t-32.5 53.5t-10.5 69q0 59 21.5 104t58.5 75t84.5 45.5t100.5 15.5q39 0 76 -7.5t71.5 -19t64.5 -25t54 -25.5zM146 799
l113 115h136l113 -115l-96 -42l-85 63l-85 -63z" />
    <glyph glyph-name="scircumflex" unicode="&#x15d;" horiz-adv-x="527" 
d="M282 -10q-33 0 -71 5t-74.5 13t-70.5 19.5t-59 25.5l73 129q55 -29 105 -44t93 -15q50 0 50 25q0 13 -20 23t-76 24q-56 15 -94 30t-61 33.5t-33 41t-10 52.5q0 40 16.5 74t46.5 59t71.5 38.5t90.5 13.5q53 0 113.5 -15t123.5 -44l-73 -121q-56 26 -93 37.5t-71 11.5
q-22 0 -35.5 -6.5t-13.5 -20.5q0 -8 4 -13.5t14 -10.5t27.5 -10.5t43.5 -11.5q60 -15 101 -31.5t65.5 -36t35 -44t10.5 -56.5q0 -81 -61.5 -128t-167.5 -47zM78 615l113 115h136l113 -115l-96 -42l-85 63l-85 -63z" />
    <glyph glyph-name="uni015E" unicode="&#x15e;" horiz-adv-x="617" 
d="M233 -128q11 -7 37 -13.5t53 -6.5q23 0 39.5 7t16.5 24t-15 23.5t-40 6.5q-21 0 -44.5 -3.5t-34.5 -5.5l42 88q-71 5 -144 26.5t-130 55.5l84 171q35 -22 73 -39q32 -15 72.5 -27t82.5 -12q32 0 44.5 8.5t12.5 22.5q0 15 -12.5 25.5t-34.5 18.5t-50.5 16t-60.5 19
q-47 16 -81 34.5t-56 42t-32.5 53.5t-10.5 69q0 59 21.5 104t58.5 75t84.5 45.5t100.5 15.5q39 0 76 -7.5t71.5 -19t64.5 -25t54 -25.5l-84 -161q-30 18 -62 32q-27 12 -60.5 22.5t-65.5 10.5q-26 0 -41.5 -8t-15.5 -27q0 -14 9 -23t26 -16.5t41.5 -14.5t55.5 -17
q49 -15 88.5 -33t67.5 -42.5t43 -59.5t15 -85q0 -58 -19.5 -99t-52 -67.5t-74 -40.5t-86.5 -17l-18 -27q6 1 12.5 1.5t14.5 0.5q18 0 35 -4.5t30 -13.5t21 -24t8 -36q0 -42 -36.5 -72.5t-115.5 -30.5q-36 0 -64.5 6.5t-48.5 14.5z" />
    <glyph glyph-name="uni015F" unicode="&#x15f;" horiz-adv-x="528" 
d="M200 -128q11 -7 37 -13.5t53 -6.5q23 0 39.5 7t16.5 24t-15 23.5t-40 6.5q-21 0 -44.5 -3.5t-34.5 -5.5l42 87q-32 2 -66 7t-66.5 13.5t-62 19t-52.5 22.5l73 129q55 -29 105 -44t93 -15q50 0 50 25q0 13 -20 23t-76 24q-56 15 -94 30t-61 33.5t-33 41t-10 52.5
q0 40 16.5 74t46.5 59t71.5 38.5t90.5 13.5q53 0 113.5 -15t123.5 -44l-73 -121q-56 26 -93 37.5t-71 11.5q-22 0 -35.5 -6.5t-13.5 -20.5q0 -8 4 -13.5t14 -10.5t27.5 -10.5t43.5 -11.5q60 -15 101 -31.5t65.5 -36t35 -44t10.5 -56.5q0 -72 -49 -117.5t-135 -54.5l-18 -27
q6 1 12.5 1.5t14.5 0.5q18 0 35 -4.5t30 -13.5t21 -24t8 -36q0 -42 -36.5 -72.5t-115.5 -30.5q-36 0 -64.5 6.5t-48.5 14.5z" />
    <glyph glyph-name="Scaron" unicode="&#x160;" horiz-adv-x="617" 
d="M491 478q-30 18 -62 32q-27 12 -60.5 22.5t-65.5 10.5q-26 0 -41.5 -8t-15.5 -27q0 -14 9 -23t26 -16.5t41.5 -14.5t55.5 -17q49 -15 88.5 -33t67.5 -42.5t43 -59.5t15 -85q0 -64 -23.5 -107.5t-62 -69.5t-87 -37.5t-97.5 -11.5q-39 0 -80 6t-81.5 17t-78 26t-69.5 34
l84 171q35 -22 73 -39q32 -15 72.5 -27t82.5 -12q32 0 44.5 8.5t12.5 22.5q0 15 -12.5 25.5t-34.5 18.5t-50.5 16t-60.5 19q-47 16 -81 34.5t-56 42t-32.5 53.5t-10.5 69q0 59 21.5 104t58.5 75t84.5 45.5t100.5 15.5q39 0 76 -7.5t71.5 -19t64.5 -25t54 -25.5zM242 914
l85 -63l85 63l96 -42l-113 -115h-136l-113 115z" />
    <glyph glyph-name="scaron" unicode="&#x161;" horiz-adv-x="527" 
d="M282 -10q-33 0 -71 5t-74.5 13t-70.5 19.5t-59 25.5l73 129q55 -29 105 -44t93 -15q50 0 50 25q0 13 -20 23t-76 24q-56 15 -94 30t-61 33.5t-33 41t-10 52.5q0 40 16.5 74t46.5 59t71.5 38.5t90.5 13.5q53 0 113.5 -15t123.5 -44l-73 -121q-56 26 -93 37.5t-71 11.5
q-22 0 -35.5 -6.5t-13.5 -20.5q0 -8 4 -13.5t14 -10.5t27.5 -10.5t43.5 -11.5q60 -15 101 -31.5t65.5 -36t35 -44t10.5 -56.5q0 -81 -61.5 -128t-167.5 -47zM174 730l85 -63l85 63l96 -42l-113 -115h-136l-113 115z" />
    <glyph glyph-name="uni0162" unicode="&#x162;" horiz-adv-x="624" 
d="M238 -128q11 -7 37 -13.5t53 -6.5q23 0 39.5 7t16.5 24t-15 23.5t-40 6.5q-21 0 -44.5 -3.5t-34.5 -5.5l46 96h-81v540h-205v170h604v-170h-204v-540h-39l-24 -34q6 1 12.5 1.5t14.5 0.5q18 0 35 -4.5t30 -13.5t21 -24t8 -36q0 -42 -36.5 -72.5t-115.5 -30.5
q-36 0 -64.5 6.5t-48.5 14.5z" />
    <glyph glyph-name="uni0163" unicode="&#x163;" horiz-adv-x="425" 
d="M161 -128q11 -7 37 -13.5t53 -6.5q23 0 39.5 7t16.5 24t-15 23.5t-40 6.5q-21 0 -44.5 -3.5t-34.5 -5.5l42 87q-27 3 -51 12.5t-41.5 27.5t-27.5 45.5t-10 65.5v241h-65v143h65v165h190v-165h103v-143h-103v-174q0 -26 11 -36.5t30 -10.5q14 0 32 4.5t36 12.5l34 -150
q-30 -13 -63 -22.5t-67 -14.5l-18 -26q6 1 12.5 1.5t14.5 0.5q18 0 35 -4.5t30 -13.5t21 -24t8 -36q0 -42 -36.5 -72.5t-115.5 -30.5q-36 0 -64.5 6.5t-48.5 14.5z" />
    <glyph glyph-name="Tcaron" unicode="&#x164;" horiz-adv-x="624" 
d="M614 540h-204v-540h-195v540h-205v170h604v-170zM235 914l85 -63l85 63l96 -42l-113 -115h-136l-113 115z" />
    <glyph glyph-name="tcaron" unicode="&#x165;" horiz-adv-x="424" 
d="M417 29q-40 -17 -85.5 -28.5t-89.5 -11.5q-32 0 -61 8t-50.5 26t-34 47t-12.5 72v241h-65v143h65v165h190v-165h103v-143h-103v-174q0 -26 11 -36.5t30 -10.5q14 0 32 4.5t36 12.5zM424 556l-120 32l50 142h169z" />
    <glyph glyph-name="Tbar" unicode="&#x166;" horiz-adv-x="648" 
d="M626 540h-204v-184h164v-88h-164v-268h-195v268h-165v88h165v184h-205v170h604v-170z" />
    <glyph glyph-name="tbar" unicode="&#x167;" horiz-adv-x="425" 
d="M418 29q-40 -17 -85.5 -28.5t-89.5 -11.5q-32 0 -61 8t-50.5 26t-34 47t-12.5 72v85h-65v109h65v47h-65v143h65v165h190v-165h103v-143h-103v-47h103v-109h-103v-18q0 -26 11 -36.5t30 -10.5q14 0 32 4.5t36 12.5z" />
    <glyph glyph-name="Utilde" unicode="&#x168;" horiz-adv-x="741" 
d="M370 167q34 0 58 15t39 39.5t22 56.5t7 67v365h195v-365q0 -74 -19 -138.5t-59 -111.5t-100.5 -74t-142.5 -27q-85 0 -145.5 28.5t-99.5 76.5t-57 111.5t-18 134.5v365h195v-365q0 -35 7 -67.5t22 -57t38.5 -39t57.5 -14.5zM434 756q-23 0 -40.5 7.5t-32.5 16.5
t-29.5 16.5t-31.5 7.5t-26 -7t-13.5 -16t-5.5 -16.5t-1 -8.5h-101q0 13 7.5 39.5t24.5 52.5t43 46t64 20q24 0 42 -8t33 -17.5t29 -17.5t31 -8q16 0 26 7.5t15.5 17t7 17.5t1.5 9h100q0 -9 -8 -34.5t-25 -53t-44 -49t-66 -21.5z" />
    <glyph glyph-name="utilde" unicode="&#x169;" horiz-adv-x="646" 
d="M208 -10q-80 0 -122 48.5t-42 141.5v346h190v-303q0 -35 15.5 -54t42.5 -19q22 0 45 10t46 44v322h190v-316q0 -27 10 -37.5t36 -12.5v-160q-29 -5 -51 -7.5t-39 -2.5q-97 0 -112 73l-4 19q-37 -49 -88 -70.5t-117 -21.5zM373 572q-23 0 -40.5 7.5t-32.5 16.5t-29.5 16.5
t-31.5 7.5t-26 -7t-13.5 -16t-5.5 -16.5t-1 -8.5h-101q0 13 7.5 39.5t24.5 52.5t43 46t64 20q24 0 42 -8t33 -17.5t29 -17.5t31 -8q16 0 26 7.5t15.5 17t7 17.5t1.5 9h100q0 -9 -8 -34.5t-25 -53t-44 -49t-66 -21.5z" />
    <glyph glyph-name="Umacron" unicode="&#x16a;" horiz-adv-x="741" 
d="M370 167q34 0 58 15t39 39.5t22 56.5t7 67v365h195v-365q0 -74 -19 -138.5t-59 -111.5t-100.5 -74t-142.5 -27q-85 0 -145.5 28.5t-99.5 76.5t-57 111.5t-18 134.5v365h195v-365q0 -35 7 -67.5t22 -57t38.5 -39t57.5 -14.5zM216 791v113h310v-113h-310z" />
    <glyph glyph-name="umacron" unicode="&#x16b;" horiz-adv-x="646" 
d="M208 -10q-80 0 -122 48.5t-42 141.5v346h190v-303q0 -35 15.5 -54t42.5 -19q22 0 45 10t46 44v322h190v-316q0 -27 10 -37.5t36 -12.5v-160q-29 -5 -51 -7.5t-39 -2.5q-97 0 -112 73l-4 19q-37 -49 -88 -70.5t-117 -21.5zM155 607v113h310v-113h-310z" />
    <glyph glyph-name="Ubreve" unicode="&#x16c;" horiz-adv-x="741" 
d="M370 167q34 0 58 15t39 39.5t22 56.5t7 67v365h195v-365q0 -74 -19 -138.5t-59 -111.5t-100.5 -74t-142.5 -27q-85 0 -145.5 28.5t-99.5 76.5t-57 111.5t-18 134.5v365h195v-365q0 -35 7 -67.5t22 -57t38.5 -39t57.5 -14.5zM370 833q23 0 40.5 23t20.5 58h98
q0 -36 -11.5 -65.5t-32.5 -51t-50.5 -33.5t-64.5 -12t-64.5 12t-50.5 33.5t-32.5 51t-11.5 65.5h98q0 -33 18 -57t43 -24z" />
    <glyph glyph-name="ubreve" unicode="&#x16d;" horiz-adv-x="646" 
d="M208 -10q-80 0 -122 48.5t-42 141.5v346h190v-303q0 -35 15.5 -54t42.5 -19q22 0 45 10t46 44v322h190v-316q0 -27 10 -37.5t36 -12.5v-160q-29 -5 -51 -7.5t-39 -2.5q-97 0 -112 73l-4 19q-37 -49 -88 -70.5t-117 -21.5zM309 649q23 0 40.5 23t20.5 58h98
q0 -36 -11.5 -65.5t-32.5 -51t-50.5 -33.5t-64.5 -12t-64.5 12t-50.5 33.5t-32.5 51t-11.5 65.5h98q0 -33 18 -57t43 -24z" />
    <glyph glyph-name="Uring" unicode="&#x16e;" horiz-adv-x="741" 
d="M370 167q34 0 58 15t39 39.5t22 56.5t7 67v365h195v-365q0 -74 -19 -138.5t-59 -111.5t-100.5 -74t-142.5 -27q-85 0 -145.5 28.5t-99.5 76.5t-57 111.5t-18 134.5v365h195v-365q0 -35 7 -67.5t22 -57t38.5 -39t57.5 -14.5zM253 827q0 44 31.5 65.5t85.5 21.5t85.5 -21.5
t31.5 -65.5t-31.5 -65.5t-85.5 -21.5t-85.5 21.5t-31.5 65.5zM370 860q-17 0 -28.5 -9t-11.5 -23q0 -15 11.5 -24.5t28.5 -9.5t28.5 9.5t11.5 24.5q0 14 -11.5 23t-28.5 9z" />
    <glyph glyph-name="uring" unicode="&#x16f;" horiz-adv-x="646" 
d="M208 -10q-80 0 -122 48.5t-42 141.5v346h190v-303q0 -35 15.5 -54t42.5 -19q22 0 45 10t46 44v322h190v-316q0 -27 10 -37.5t36 -12.5v-160q-29 -5 -51 -7.5t-39 -2.5q-97 0 -112 73l-4 19q-37 -49 -88 -70.5t-117 -21.5zM192 643q0 44 31.5 65.5t85.5 21.5t85.5 -21.5
t31.5 -65.5t-31.5 -65.5t-85.5 -21.5t-85.5 21.5t-31.5 65.5zM309 676q-17 0 -28.5 -9t-11.5 -23q0 -15 11.5 -24.5t28.5 -9.5t28.5 9.5t11.5 24.5q0 14 -11.5 23t-28.5 9z" />
    <glyph glyph-name="Uhungarumlaut" unicode="&#x170;" horiz-adv-x="741" 
d="M370 167q34 0 58 15t39 39.5t22 56.5t7 67v365h195v-365q0 -74 -19 -138.5t-59 -111.5t-100.5 -74t-142.5 -27q-85 0 -145.5 28.5t-99.5 76.5t-57 111.5t-18 134.5v365h195v-365q0 -35 7 -67.5t22 -57t38.5 -39t57.5 -14.5zM307 741l-90 32l40 142h139zM497 741l-90 32
l40 142h139z" />
    <glyph glyph-name="uhungarumlaut" unicode="&#x171;" horiz-adv-x="646" 
d="M208 -10q-80 0 -122 48.5t-42 141.5v346h190v-303q0 -35 15.5 -54t42.5 -19q22 0 45 10t46 44v322h190v-316q0 -27 10 -37.5t36 -12.5v-160q-29 -5 -51 -7.5t-39 -2.5q-97 0 -112 73l-4 19q-37 -49 -88 -70.5t-117 -21.5zM246 557l-90 32l40 142h139zM436 557l-90 32
l40 142h139z" />
    <glyph glyph-name="Uogonek" unicode="&#x172;" horiz-adv-x="741" 
d="M364 -214q-67 9 -99.5 37t-32.5 63q0 29 20 57.5t60 54.5q-69 9 -119 40.5t-81.5 78t-46.5 105.5t-15 123v365h195v-365q0 -35 7 -67.5t22 -57t38.5 -39t57.5 -14.5t58 15t39 39.5t22 56.5t7 67v365h195v-365q0 -71 -17.5 -132.5t-53.5 -108.5t-90.5 -75.5t-129.5 -33.5
q-35 -21 -53 -42.5t-18 -39.5q0 -17 17 -27t53 -10l-35 -90v0z" />
    <glyph glyph-name="uogonek" unicode="&#x173;" horiz-adv-x="646" 
d="M572 -215q-67 9 -99.5 37t-32.5 63q0 26 18 53.5t53 52.5q-81 6 -94 72l-4 19q-37 -49 -88 -70.5t-117 -21.5q-80 0 -122 48.5t-42 141.5v346h190v-303q0 -35 15.5 -54t42.5 -19q22 0 45 10t46 44v322h190v-316q0 -27 10 -37.5t36 -12.5v-160q-40 -23 -61 -45.5
t-21 -42.5q0 -17 17 -27t53 -10l-35 -90v0z" />
    <glyph glyph-name="Wcircumflex" unicode="&#x174;" horiz-adv-x="1059" 
d="M288 710h179l62 -219l63 219h179l-117 -339l51 -148l153 487h212l-278 -710h-162l-101 254l-100 -254h-162l-278 710h211l154 -487l49 148zM348 799l113 115h136l113 -115l-96 -42l-85 63l-85 -63z" />
    <glyph glyph-name="wcircumflex" unicode="&#x175;" horiz-adv-x="870" 
d="M697 526h179l-215 -526h-155l-71 200l-71 -200h-155l-215 526h179l127 -353l33 113l-94 240h151l45 -154l45 154h151l-94 -240l33 -113zM254 615l113 115h136l113 -115l-96 -42l-85 63l-85 -63z" />
    <glyph glyph-name="Ycircumflex" unicode="&#x176;" horiz-adv-x="652" 
d="M198 710l127 -307l130 307h212l-245 -475v-235h-194v237l-241 473h211zM144 799l113 115h136l113 -115l-96 -42l-85 63l-85 -63z" />
    <glyph glyph-name="ycircumflex" unicode="&#x177;" horiz-adv-x="546" 
d="M36 -53q46 -17 78 -17q61 0 67 70l-191 526h195l100 -365l81 365h177l-178 -589q-12 -39 -34 -70.5t-52.5 -54t-67.5 -34.5t-77 -12q-51 0 -98 19v162zM104 615l113 115h136l113 -115l-96 -42l-85 63l-85 -63z" />
    <glyph glyph-name="Ydieresis" unicode="&#x178;" horiz-adv-x="652" 
d="M198 710l127 -307l130 307h212l-245 -475v-235h-194v237l-241 473h211zM132 765v140h156v-140h-156zM362 765v140h156v-140h-156z" />
    <glyph glyph-name="Zacute" unicode="&#x179;" horiz-adv-x="622" 
d="M27 145l332 395h-317v170h542v-145l-312 -395h318v-170h-563v145zM378 740l-120 32l50 142h169z" />
    <glyph glyph-name="zacute" unicode="&#x17a;" horiz-adv-x="494" 
d="M22 112l240 284h-225v130h423v-112l-239 -284h248v-130h-447v112zM301 556l-120 32l50 142h169z" />
    <glyph glyph-name="Zdotaccent" unicode="&#x17b;" horiz-adv-x="622" 
d="M27 145l332 395h-317v170h542v-145l-312 -395h318v-170h-563v145zM235 764v150h170v-150h-170z" />
    <glyph glyph-name="zdotaccent" unicode="&#x17c;" horiz-adv-x="494" 
d="M22 112l240 284h-225v130h423v-112l-239 -284h248v-130h-447v112zM158 580v150h170v-150h-170z" />
    <glyph glyph-name="Zcaron" unicode="&#x17d;" horiz-adv-x="622" 
d="M27 145l332 395h-317v170h542v-145l-312 -395h318v-170h-563v145zM235 914l85 -63l85 63l96 -42l-113 -115h-136l-113 115z" />
    <glyph glyph-name="zcaron" unicode="&#x17e;" horiz-adv-x="494" 
d="M22 112l240 284h-225v130h423v-112l-239 -284h248v-130h-447v112zM158 730l85 -63l85 63l96 -42l-113 -115h-136l-113 115z" />
    <glyph glyph-name="florin" unicode="&#x192;" horiz-adv-x="567" 
d="M177 -209q-42 0 -80 14t-69 40l78 129q18 -20 47 -20q40 0 40 43v325h-65v143h65v57q0 49 14 89.5t39 69t60.5 44t79.5 15.5q66 0 146 -30l-32 -144q-17 6 -36.5 10t-34.5 4q-46 0 -46 -51v-64h115v-143h-115v-320q0 -47 -15.5 -86t-43 -66.5t-65.5 -43t-82 -15.5z" />
    <glyph glyph-name="Oogonek" unicode="&#x1ea;" horiz-adv-x="727" 
d="M355 -214q-67 9 -99.5 37t-32.5 63q0 29 20 58t62 55q-64 11 -116 44.5t-89 82.5t-57 108.5t-20 121.5q0 70 25.5 135t71.5 114.5t108.5 79t137.5 29.5q76 0 138.5 -31t107 -82t68.5 -116t24 -133q0 -66 -23 -128t-64 -110.5t-98.5 -80t-126.5 -37.5q-72 -44 -72 -83
q0 -17 17 -27t53 -10zM221 354q0 -36 8.5 -69.5t26.5 -59.5t45 -42t63 -16q37 0 64 16.5t44 43t25.5 60.5t8.5 69q0 36 -9 69.5t-26.5 59t-44.5 41t-63 15.5q-37 0 -63.5 -16t-44 -42.5t-26 -60t-8.5 -68.5z" />
    <glyph glyph-name="oogonek" unicode="&#x1eb;" horiz-adv-x="616" 
d="M344 -214q-67 9 -99.5 37t-32.5 63q0 26 17.5 53.5t52.5 51.5q-64 4 -113 27.5t-82 60.5t-50 84.5t-17 99.5q0 54 18.5 103.5t55 87t90 60t124.5 22.5q70 0 124 -22.5t90.5 -60t55 -87t18.5 -103.5q0 -46 -13.5 -89t-40 -78t-66 -60.5t-90.5 -36.5q-77 -46 -77 -86
q0 -17 17 -27t53 -10zM215 263q0 -53 26 -83t67 -30t67 30t26 83t-26 83t-67 30t-67 -30t-26 -83z" />
    <glyph glyph-name="Aringacute" unicode="&#x1fa;" horiz-adv-x="671" 
d="M431 799q22 -22 22 -56q0 -39 -28 -62l254 -681h-206l-43 139h-189l-42 -139h-207l254 681q-27 24 -27 62q0 36 22.5 57.5t61.5 27.5l37 90h169zM336 507l-66 -238h129zM336 776q-17 0 -28.5 -9t-11.5 -23q0 -15 11.5 -24.5t28.5 -9.5t28.5 9.5t11.5 24.5q0 14 -11.5 23
t-28.5 9z" />
    <glyph glyph-name="aringacute" unicode="&#x1fb;" horiz-adv-x="604" 
d="M203 -10q-39 0 -73 13t-58.5 35.5t-38.5 53.5t-14 67q0 40 17 73t47 57t71.5 37t91.5 13q64 0 106 -20v16q0 37 -21.5 55t-69.5 18q-45 0 -83 -14.5t-80 -42.5l-55 118q104 67 237 67q126 0 194 -56t68 -168v-102q0 -27 10 -37.5t36 -12.5v-160q-26 -5 -49 -7.5t-41 -2.5
q-51 0 -77.5 18.5t-34.5 54.5l-4 19q-35 -45 -81 -68.5t-98 -23.5zM260 126q17 0 35 5.5t32 14.5q11 8 18 17.5t7 19.5v39q-17 6 -37 10t-36 4q-35 0 -58 -17t-23 -43q0 -22 17.5 -36t44.5 -14zM163 643q0 44 31.5 65.5t85.5 21.5t85.5 -21.5t31.5 -65.5t-31.5 -65.5
t-85.5 -21.5t-85.5 21.5t-31.5 65.5zM280 676q-17 0 -28.5 -9t-11.5 -23q0 -15 11.5 -24.5t28.5 -9.5t28.5 9.5t11.5 24.5q0 14 -11.5 23t-28.5 9zM338 744l-120 32l50 142h169z" />
    <glyph glyph-name="AEacute" unicode="&#x1fc;" horiz-adv-x="972" 
d="M407 710h527v-170h-282v-94h228v-170h-228v-106h291v-170h-485v139h-201l-75 -139h-206zM443 309v186l-104 -186h104zM685 740l-120 32l50 142h169z" />
    <glyph glyph-name="aeacute" unicode="&#x1fd;" horiz-adv-x="943" 
d="M203 -10q-39 0 -73 13t-58.5 35.5t-38.5 53.5t-14 67q0 40 17 73t47 57t71.5 37t91.5 13q64 0 106 -20v16q-1 37 -22 55t-69 18q-45 0 -83 -14.5t-80 -42.5l-55 118q104 67 237 67q117 0 185 -50q34 23 77.5 36.5t97.5 13.5q70 0 124 -22.5t90.5 -60t55 -87t18.5 -103.5
q0 -15 -1.5 -30.5t-3.5 -27.5h-369q3 -42 31 -60.5t61 -18.5q31 0 58.5 14t36.5 39l161 -46q-32 -63 -98.5 -103t-163.5 -40q-80 0 -138.5 28t-94.5 74q-19 -27 -44 -46.5t-52 -31.5t-55 -18t-53 -6zM260 126q17 0 35 5.5t32 14.5q11 8 18 17.5t7 19.5v39q-17 6 -37 10
t-36 4q-35 0 -58 -17t-23 -43q0 -22 17.5 -36t44.5 -14zM724 319q-5 38 -28 60t-59 22t-59 -22t-28 -60h174zM523 556l-120 32l50 142h169z" />
    <glyph glyph-name="Oslashacute" unicode="&#x1fe;" horiz-adv-x="729" 
d="M727 710l-96 -132q35 -49 54.5 -107.5t19.5 -118.5q0 -70 -25.5 -134.5t-70.5 -114t-108 -79.5t-138 -30q-38 0 -71.5 7.5t-63.5 21.5l-17 -23h-209l95 131q-35 48 -54 106t-19 119q0 70 25.5 135t71.5 114.5t108.5 79t137.5 29.5q71 0 132 -28l18 24h210zM425 740
l-120 32l50 142h169zM507 356q0 11 -1 23t-3 23l-169 -232q15 -3 31 -3q37 0 64 16.5t44 43t25.5 60.5t8.5 69zM222 354q0 -24 3 -46l167 230q-14 3 -28 3q-37 0 -63.5 -16t-44 -42.5t-26 -60t-8.5 -68.5z" />
    <glyph glyph-name="oslashacute" unicode="&#x1ff;" horiz-adv-x="614" 
d="M88 77q-35 38 -52 85.5t-17 100.5q0 54 18.5 103.5t55 87t90 60t124.5 22.5q46 0 84 -9.5t70 -26.5l29 32h101l-70 -78q37 -38 55.5 -87.5t18.5 -103.5t-18.5 -103.5t-55 -87t-90.5 -60t-124 -22.5q-48 0 -88.5 10.5t-72.5 29.5l-32 -36h-100zM307 150q41 0 67 30t26 83
q0 28 -8 50l-133 -150q20 -13 48 -13zM214 263q0 -12 1.5 -22.5t3.5 -20.5l130 146q-22 10 -42 10q-41 0 -67 -30t-26 -83zM365 556l-120 32l50 142h169z" />
    <glyph glyph-name="uni0218" unicode="&#x218;" horiz-adv-x="617" 
d="M491 478q-30 18 -62 32q-27 12 -60.5 22.5t-65.5 10.5q-26 0 -41.5 -8t-15.5 -27q0 -14 9 -23t26 -16.5t41.5 -14.5t55.5 -17q49 -15 88.5 -33t67.5 -42.5t43 -59.5t15 -85q0 -64 -23.5 -107.5t-62 -69.5t-87 -37.5t-97.5 -11.5q-39 0 -80 6t-81.5 17t-78 26t-69.5 34
l84 171q35 -22 73 -39q32 -15 72.5 -27t82.5 -12q32 0 44.5 8.5t12.5 22.5q0 15 -12.5 25.5t-34.5 18.5t-50.5 16t-60.5 19q-47 16 -81 34.5t-56 42t-32.5 53.5t-10.5 69q0 59 21.5 104t58.5 75t84.5 45.5t100.5 15.5q39 0 76 -7.5t71.5 -19t64.5 -25t54 -25.5zM205 -140
q43 0 43 30v64h154v-72q0 -33 -15 -52t-41.5 -28.5t-62.5 -12t-78 -2.5v73z" />
    <glyph glyph-name="uni0219" unicode="&#x219;" horiz-adv-x="527" 
d="M282 -10q-33 0 -71 5t-74.5 13t-70.5 19.5t-59 25.5l73 129q55 -29 105 -44t93 -15q50 0 50 25q0 13 -20 23t-76 24q-56 15 -94 30t-61 33.5t-33 41t-10 52.5q0 40 16.5 74t46.5 59t71.5 38.5t90.5 13.5q53 0 113.5 -15t123.5 -44l-73 -121q-56 26 -93 37.5t-71 11.5
q-22 0 -35.5 -6.5t-13.5 -20.5q0 -8 4 -13.5t14 -10.5t27.5 -10.5t43.5 -11.5q60 -15 101 -31.5t65.5 -36t35 -44t10.5 -56.5q0 -81 -61.5 -128t-167.5 -47zM160 -140q43 0 43 30v64h154v-72q0 -33 -15 -52t-41.5 -28.5t-62.5 -12t-78 -2.5v73z" />
    <glyph glyph-name="uni021A" unicode="&#x21a;" horiz-adv-x="624" 
d="M614 540h-204v-540h-195v540h-205v170h604v-170zM198 -140q43 0 43 30v64h154v-72q0 -33 -15 -52t-41.5 -28.5t-62.5 -12t-78 -2.5v73z" />
    <glyph glyph-name="uni021B" unicode="&#x21b;" horiz-adv-x="424" 
d="M417 29q-40 -17 -85.5 -28.5t-89.5 -11.5q-32 0 -61 8t-50.5 26t-34 47t-12.5 72v241h-65v143h65v165h190v-165h103v-143h-103v-174q0 -26 11 -36.5t30 -10.5q14 0 32 4.5t36 12.5zM120 -140q43 0 43 30v64h154v-72q0 -33 -15 -52t-41.5 -28.5t-62.5 -12t-78 -2.5v73z
" />
    <glyph glyph-name="dotlessj" unicode="&#x237;" 
d="M32 -209q-42 0 -80 14t-69 40l78 129q18 -20 47 -20q40 0 40 43v529h190v-514q0 -49 -15 -89.5t-42.5 -70t-65.5 -45.5t-83 -16z" />
    <glyph glyph-name="schwa" unicode="&#x259;" horiz-adv-x="611" 
d="M304 -10q-71 0 -124.5 22.5t-90 60t-55 87t-18.5 103.5q0 15 1.5 30.5t3.5 27.5h369q-3 42 -31 60.5t-61 18.5q-31 0 -58.5 -14t-36.5 -39l-161 46q32 63 98.5 103t163.5 40q69 0 123 -21.5t90.5 -58.5t55.5 -85t19 -101q0 -57 -18.5 -108t-55 -89t-90.5 -60.5
t-124 -22.5zM307 125q36 0 59 22t28 60h-174q5 -38 28 -60t59 -22z" />
    <glyph glyph-name="apostrophe" unicode="&#x2bc;" horiz-adv-x="384" 
d="M218 556l-120 32l31 87l-11 55h199z" />
    <glyph glyph-name="circumflex" unicode="&#x2c6;" horiz-adv-x="402" 
d="M20 615l113 115h136l113 -115l-96 -42l-85 63l-85 -63z" />
    <glyph glyph-name="caron" unicode="&#x2c7;" horiz-adv-x="402" 
d="M116 730l85 -63l85 63l96 -42l-113 -115h-136l-113 115z" />
    <glyph glyph-name="breve" unicode="&#x2d8;" horiz-adv-x="368" 
d="M184 649q23 0 40.5 23t20.5 58h98q0 -36 -11.5 -65.5t-32.5 -51t-50.5 -33.5t-64.5 -12t-64.5 12t-50.5 33.5t-32.5 51t-11.5 65.5h98q0 -33 18 -57t43 -24z" />
    <glyph glyph-name="dotaccent" unicode="&#x2d9;" horiz-adv-x="270" 
d="M50 580v150h170v-150h-170z" />
    <glyph glyph-name="ring" unicode="&#x2da;" horiz-adv-x="274" 
d="M20 643q0 44 31.5 65.5t85.5 21.5t85.5 -21.5t31.5 -65.5t-31.5 -65.5t-85.5 -21.5t-85.5 21.5t-31.5 65.5zM137 676q-17 0 -28.5 -9t-11.5 -23q0 -15 11.5 -24.5t28.5 -9.5t28.5 9.5t11.5 24.5q0 14 -11.5 23t-28.5 9z" />
    <glyph glyph-name="ogonek" unicode="&#x2db;" horiz-adv-x="332" 
d="M206 -214q-67 9 -99.5 37t-32.5 63q0 36 33.5 73t99.5 66l46 -24q-40 -23 -61 -45.5t-21 -42.5q0 -17 17 -27t53 -10l-35 -90v0z" />
    <glyph glyph-name="tilde" unicode="&#x2dc;" horiz-adv-x="464" 
d="M301 572q-23 0 -40.5 7.5t-32.5 16.5t-29.5 16.5t-31.5 7.5t-26 -7t-13.5 -16t-5.5 -16.5t-1 -8.5h-101q0 13 7.5 39.5t24.5 52.5t43 46t64 20q24 0 42 -8t33 -17.5t29 -17.5t31 -8q16 0 26 7.5t15.5 17t7 17.5t1.5 9h100q0 -9 -8 -34.5t-25 -53t-44 -49t-66 -21.5z" />
    <glyph glyph-name="hungarumlaut" unicode="&#x2dd;" horiz-adv-x="399" 
d="M115 556l-90 32l40 142h139zM305 556l-90 32l40 142h139z" />
    <glyph glyph-name="uni03BC" unicode="&#x3bc;" horiz-adv-x="653" 
d="M48 526h190v-303q0 -35 15 -54t47 -19q18 0 41 10t46 44v322h190v-316q0 -27 10 -37.5t36 -12.5v-160q-29 -5 -51 -7.5t-39 -2.5q-97 0 -112 73l-4 19q-4 -11 -16.5 -26.5t-30.5 -30t-39 -25t-43 -10.5q-15 0 -26.5 5t-19 11t-11.5 11.5t-5 7.5l12 -238h-190v739z" />
    <glyph glyph-name="Ndotaccent" unicode="&#x1e44;" horiz-adv-x="754" 
d="M256 349v-349h-195v710h152l285 -361v361h195v-710h-155zM289 763v150h170v-150h-170z" />
    <glyph glyph-name="ndotaccent" unicode="&#x1e45;" horiz-adv-x="621" 
d="M577 0h-190v296q0 39 -17.5 56.5t-40.5 17.5q-24 0 -51 -21t-40 -54v-295h-190v526h171v-78q28 43 78.5 65.5t119.5 22.5q54 0 85.5 -19.5t48 -48.5t21.5 -62t5 -60v-346zM248 580v150h170v-150h-170z" />
    <glyph glyph-name="Wgrave" unicode="&#x1e80;" horiz-adv-x="1059" 
d="M288 710h179l62 -219l63 219h179l-117 -339l51 -148l153 487h212l-278 -710h-162l-101 254l-100 -254h-162l-278 710h211l154 -487l49 148zM372 915h169l50 -142l-120 -32z" />
    <glyph glyph-name="wgrave" unicode="&#x1e81;" horiz-adv-x="870" 
d="M697 526h179l-215 -526h-155l-71 200l-71 -200h-155l-215 526h179l127 -353l33 113l-94 240h151l45 -154l45 154h151l-94 -240l33 -113zM278 731h169l50 -142l-120 -32z" />
    <glyph glyph-name="Wacute" unicode="&#x1e82;" horiz-adv-x="1059" 
d="M288 710h179l62 -219l63 219h179l-117 -339l51 -148l153 487h212l-278 -710h-162l-101 254l-100 -254h-162l-278 710h211l154 -487l49 148zM587 740l-120 32l50 142h169z" />
    <glyph glyph-name="wacute" unicode="&#x1e83;" horiz-adv-x="870" 
d="M697 526h179l-215 -526h-155l-71 200l-71 -200h-155l-215 526h179l127 -353l33 113l-94 240h151l45 -154l45 154h151l-94 -240l33 -113zM493 556l-120 32l50 142h169z" />
    <glyph glyph-name="Wdieresis" unicode="&#x1e84;" horiz-adv-x="1059" 
d="M288 710h179l62 -219l63 219h179l-117 -339l51 -148l153 487h212l-278 -710h-162l-101 254l-100 -254h-162l-278 710h211l154 -487l49 148zM336 765v140h156v-140h-156zM566 765v140h156v-140h-156z" />
    <glyph glyph-name="wdieresis" unicode="&#x1e85;" horiz-adv-x="870" 
d="M697 526h179l-215 -526h-155l-71 200l-71 -200h-155l-215 526h179l127 -353l33 113l-94 240h151l45 -154l45 154h151l-94 -240l33 -113zM242 581v140h156v-140h-156zM472 581v140h156v-140h-156z" />
    <glyph glyph-name="Etilde" unicode="&#x1ebc;" horiz-adv-x="597" 
d="M567 170v-170h-506v710h497v-170h-302v-100h258v-158h-258v-112h311zM380 756q-23 0 -40.5 7.5t-32.5 16.5t-29.5 16.5t-31.5 7.5t-26 -7t-13.5 -16t-5.5 -16.5t-1 -8.5h-101q0 13 7.5 39.5t24.5 52.5t43 46t64 20q24 0 42 -8t33 -17.5t29 -17.5t31 -8q16 0 26 7.5
t15.5 17t7 17.5t1.5 9h100q0 -9 -8 -34.5t-25 -53t-44 -49t-66 -21.5z" />
    <glyph glyph-name="etilde" unicode="&#x1ebd;" horiz-adv-x="610" 
d="M307 -10q-69 0 -123 21.5t-90.5 58.5t-55.5 85t-19 101q0 57 18.5 108t55 89t90 60.5t124.5 22.5q70 0 124 -22.5t90.5 -60t55 -87t18.5 -103.5q0 -15 -1.5 -30.5t-3.5 -27.5h-369q3 -42 31 -60.5t61 -18.5q31 0 58.5 14t36.5 39l161 -46q-32 -63 -98.5 -103t-163.5 -40z
M391 319q-5 38 -28 60t-59 22t-59 -22t-28 -60h174zM371 572q-23 0 -40.5 7.5t-32.5 16.5t-29.5 16.5t-31.5 7.5t-26 -7t-13.5 -16t-5.5 -16.5t-1 -8.5h-101q0 13 7.5 39.5t24.5 52.5t43 46t64 20q24 0 42 -8t33 -17.5t29 -17.5t31 -8q16 0 26 7.5t15.5 17t7 17.5t1.5 9h100
q0 -9 -8 -34.5t-25 -53t-44 -49t-66 -21.5z" />
    <glyph glyph-name="Ygrave" unicode="&#x1ef2;" horiz-adv-x="652" 
d="M198 710l127 -307l130 307h212l-245 -475v-235h-194v237l-241 473h211zM168 915h169l50 -142l-120 -32z" />
    <glyph glyph-name="ygrave" unicode="&#x1ef3;" horiz-adv-x="546" 
d="M36 -53q46 -17 78 -17q61 0 67 70l-191 526h195l100 -365l81 365h177l-178 -589q-12 -39 -34 -70.5t-52.5 -54t-67.5 -34.5t-77 -12q-51 0 -98 19v162zM128 731h169l50 -142l-120 -32z" />
    <glyph glyph-name="Ytilde" unicode="&#x1ef8;" horiz-adv-x="652" 
d="M198 710l127 -307l130 307h212l-245 -475v-235h-194v237l-241 473h211zM389 756q-23 0 -40.5 7.5t-32.5 16.5t-29.5 16.5t-31.5 7.5t-26 -7t-13.5 -16t-5.5 -16.5t-1 -8.5h-101q0 13 7.5 39.5t24.5 52.5t43 46t64 20q24 0 42 -8t33 -17.5t29 -17.5t31 -8q16 0 26 7.5
t15.5 17t7 17.5t1.5 9h100q0 -9 -8 -34.5t-25 -53t-44 -49t-66 -21.5z" />
    <glyph glyph-name="ytilde" unicode="&#x1ef9;" horiz-adv-x="546" 
d="M36 -53q46 -17 78 -17q61 0 67 70l-191 526h195l100 -365l81 365h177l-178 -589q-12 -39 -34 -70.5t-52.5 -54t-67.5 -34.5t-77 -12q-51 0 -98 19v162zM349 572q-23 0 -40.5 7.5t-32.5 16.5t-29.5 16.5t-31.5 7.5t-26 -7t-13.5 -16t-5.5 -16.5t-1 -8.5h-101
q0 13 7.5 39.5t24.5 52.5t43 46t64 20q24 0 42 -8t33 -17.5t29 -17.5t31 -8q16 0 26 7.5t15.5 17t7 17.5t1.5 9h100q0 -9 -8 -34.5t-25 -53t-44 -49t-66 -21.5z" />
    <glyph glyph-name="endash" unicode="&#x2013;" horiz-adv-x="629" 
d="M50 191v170h529v-170h-529z" />
    <glyph glyph-name="emdash" unicode="&#x2014;" horiz-adv-x="948" 
d="M50 191v170h848v-170h-848z" />
    <glyph glyph-name="quoteleft" unicode="&#x2018;" horiz-adv-x="280" 
d="M234 453q-30 0 -65 6t-64 21t-48.5 41t-19.5 67v142h154v-104q1 -14 6.5 -21.5t12.5 -12t14 -5.5t10 -1v-133z" />
    <glyph glyph-name="quoteright" unicode="&#x2019;" horiz-adv-x="284" 
d="M37 730q30 0 65 -6t64 -21t48.5 -41.5t19.5 -66.5v-142h-154v104q-1 13 -6.5 21t-12.5 12.5t-14 5.5t-10 1v133z" />
    <glyph glyph-name="quotesinglbase" unicode="&#x201a;" horiz-adv-x="263" 
d="M13 -20q3 0 10 1t14 5.5t12.5 12t6.5 21.5v164h154v-202q0 -41 -19.5 -67t-48.5 -41t-64 -21t-65 -6v133z" />
    <glyph glyph-name="quotedblleft" unicode="&#x201c;" horiz-adv-x="529" 
d="M234 453q-30 0 -65 6t-64 21t-48.5 41t-19.5 67v142h154v-104q1 -14 6.5 -21.5t12.5 -12t14 -5.5t10 -1v-133zM483 453q-30 0 -65 6t-64 21t-48.5 41t-19.5 67v142h154v-104q1 -14 6.5 -21.5t12.5 -12t14 -5.5t10 -1v-133z" />
    <glyph glyph-name="quotedblright" unicode="&#x201d;" horiz-adv-x="533" 
d="M37 730q30 0 65 -6t64 -21t48.5 -41.5t19.5 -66.5v-142h-154v104q-1 13 -6.5 21t-12.5 12.5t-14 5.5t-10 1v133zM286 730q30 0 65 -6t64 -21t48.5 -41.5t19.5 -66.5v-142h-154v104q-1 13 -6.5 21t-12.5 12.5t-14 5.5t-10 1v133z" />
    <glyph glyph-name="quotedblbase" unicode="&#x201e;" horiz-adv-x="500" 
d="M13 -20q3 0 10 1t14 5.5t12.5 12t6.5 21.5v164h154v-202q0 -41 -19.5 -67t-48.5 -41t-64 -21t-65 -6v133zM250 -20q3 0 10 1t14 5.5t12.5 12t6.5 21.5v164h154v-202q0 -41 -19.5 -67t-48.5 -41t-64 -21t-65 -6v133z" />
    <glyph glyph-name="dagger" unicode="&#x2020;" horiz-adv-x="509" 
d="M165 -130v316h-132v170h132v419h180v-419h131v-170h-131v-316h-180z" />
    <glyph glyph-name="daggerdbl" unicode="&#x2021;" horiz-adv-x="521" 
d="M171 -130v183h-132v170h132v113h-132v170h132v269h180v-269h131v-170h-131v-113h131v-170h-131v-183h-180z" />
    <glyph glyph-name="bullet" unicode="&#x2022;" horiz-adv-x="370" 
d="M302 353q0 -24 -9 -45.5t-25 -37.5t-37.5 -25t-45.5 -9t-45.5 9t-37 25t-25 37.5t-9.5 45.5t9.5 45.5t25 37t37 25t45.5 9.5t45.5 -9.5t37.5 -25t25 -37t9 -45.5z" />
    <glyph glyph-name="ellipsis" unicode="&#x2026;" horiz-adv-x="722" 
d="M50 0v184h154v-184h-154zM284 0v184h154v-184h-154zM518 0v184h154v-184h-154z" />
    <glyph glyph-name="perthousand" unicode="&#x2030;" horiz-adv-x="1258" 
d="M214 404q-38 0 -70.5 12.5t-56.5 33.5t-37.5 50t-13.5 62t13.5 62t37.5 50t56.5 33.5t70.5 12.5q37 0 69.5 -12.5t56.5 -33.5t38 -50t14 -62t-14 -62t-38 -50t-56.5 -33.5t-69.5 -12.5zM214 494q20 0 34 20t14 48t-14 48t-34 20t-34 -20t-14 -48t14 -48t34 -20zM643 -10
q-38 0 -70.5 12.5t-56.5 33.5t-37.5 50t-13.5 62t13.5 62t37.5 50t56.5 33.5t70.5 12.5q37 0 69.5 -12.5t56.5 -33.5t38 -50t14 -62t-14 -62t-38 -50t-56.5 -33.5t-69.5 -12.5zM643 80q20 0 34 20t14 48t-14 48t-34 20t-34 -20t-14 -48t14 -48t34 -20zM1049 -10
q-38 0 -70.5 12.5t-56.5 33.5t-37.5 50t-13.5 62t13.5 62t37.5 50t56.5 33.5t70.5 12.5q37 0 69.5 -12.5t56.5 -33.5t38 -50t14 -62t-14 -62t-38 -50t-56.5 -33.5t-69.5 -12.5zM1049 80q20 0 34 20t14 48t-14 48t-34 20t-34 -20t-14 -48t14 -48t34 -20zM120 65l283 319
l251 337l83 -75l-271 -309l-263 -347z" />
    <glyph glyph-name="guilsinglleft" unicode="&#x2039;" horiz-adv-x="358" 
d="M30 298l277 198v-152l-128 -85l128 -77v-152l-277 180v88z" />
    <glyph glyph-name="guilsinglright" unicode="&#x203a;" horiz-adv-x="358" 
d="M328 210l-277 -180v152l128 77l-128 85v152l277 -198v-88z" />
    <glyph glyph-name="fraction" unicode="&#x2044;" horiz-adv-x="240" 
d="M-188 65l283 319l251 337l83 -75l-271 -309l-263 -347z" />
    <glyph glyph-name="zerosuperior" unicode="&#x2070;" horiz-adv-x="513" 
d="M257 284q-57 0 -100 21t-72 53.5t-43.5 72t-14.5 76.5q0 40 16 79.5t46 71.5t72.5 52t95.5 20q57 0 99.5 -21.5t71.5 -54t43.5 -72t14.5 -75.5q0 -40 -16 -80t-45.5 -71.5t-72 -51.5t-95.5 -20zM139 507q0 -20 7 -40t21.5 -36.5t37 -27t52.5 -10.5q31 0 53 11t36.5 28
t21 37t6.5 38q0 20 -7.5 40t-22 36.5t-36.5 27t-51 10.5q-32 0 -54 -11t-36.5 -28t-21 -37t-6.5 -38z" />
    <glyph glyph-name="foursuperior" unicode="&#x2074;" horiz-adv-x="431" 
d="M234 291v83h-215v107l249 250h74v-250h64v-107h-64v-83h-108zM120 481h118v121z" />
    <glyph glyph-name="fivesuperior" unicode="&#x2075;" horiz-adv-x="412" 
d="M216 579q37 0 68.5 -10.5t55 -29.5t36.5 -45.5t13 -57.5q0 -33 -14.5 -61t-41 -48.5t-63 -31.5t-79.5 -11q-55 0 -100.5 18.5t-70.5 50.5l62 76q21 -19 50.5 -29.5t65.5 -10.5q33 0 56.5 11.5t23.5 41.5q0 15 -6.5 26t-17 18t-22.5 10t-23 3q-23 0 -47 -12t-34 -31h-94
q13 69 31 137t30 138h258v-109h-180l-17 -51q7 2 21.5 5t38.5 3z" />
    <glyph glyph-name="sixsuperior" unicode="&#x2076;" horiz-adv-x="442" 
d="M416 434q0 -32 -14.5 -60t-40.5 -49t-61.5 -33t-77.5 -12q-91 0 -142 56.5t-51 161.5q0 108 55.5 170t152.5 62q47 0 88.5 -15t71.5 -44l-62 -77q-17 16 -44.5 24t-58.5 8q-46 0 -73.5 -17t-29.5 -49q17 11 45.5 15t52.5 4q42 0 77 -11t60 -30.5t38.5 -46t13.5 -57.5z
M224 380q36 0 62.5 16t26.5 38t-26 36.5t-63 14.5q-38 0 -64 -14.5t-26 -36.5t27 -38t63 -16z" />
    <glyph glyph-name="sevensuperior" unicode="&#x2077;" horiz-adv-x="414" 
d="M252 622h-230v109h400l-259 -440h-123z" />
    <glyph glyph-name="eightsuperior" unicode="&#x2078;" horiz-adv-x="440" 
d="M412 423q0 -30 -15.5 -55.5t-41.5 -44t-61 -29t-74 -10.5t-74.5 10.5t-61.5 29.5t-41.5 45t-15.5 56q0 19 6.5 34t17 27t25 21.5t30.5 17.5q-25 11 -43.5 30t-18.5 50q0 27 15.5 50t40.5 39.5t56.5 26t62.5 9.5t62.5 -9t57 -25.5t41.5 -39t16 -49.5q0 -29 -18 -49.5
t-45 -32.5q35 -17 57 -41t22 -61zM302 435q0 19 -25.5 30t-57.5 11q-34 0 -58 -11.5t-24 -29.5q0 -19 26 -30.5t57 -11.5q32 0 57 12t25 30zM152 595q0 -14 21.5 -22t45.5 -8t46 8t22 22t-20.5 22t-47.5 8t-47 -8t-20 -22z" />
    <glyph glyph-name="ninesuperior" unicode="&#x2079;" horiz-adv-x="442" 
d="M26 575q0 33 14.5 61t40.5 49t61.5 33t77.5 12q91 0 142 -57t51 -162q0 -108 -55 -169.5t-152 -61.5q-48 0 -89.5 15t-71.5 44l62 77q17 -16 44.5 -24.5t58.5 -8.5q46 0 73.5 17.5t29.5 49.5q-16 -11 -44.5 -15.5t-54.5 -4.5q-42 0 -76.5 11t-59 30.5t-38.5 46t-14 57.5z
M218 630q-36 0 -62 -16.5t-26 -38.5q0 -21 26 -35.5t63 -14.5t63 14.5t26 35.5q0 22 -26.5 38.5t-63.5 16.5z" />
    <glyph glyph-name="zeroinferior" unicode="&#x2080;" horiz-adv-x="513" 
d="M257 -6q-57 0 -100 21t-72 53.5t-43.5 72t-14.5 76.5q0 40 16 79.5t46 71.5t72.5 52t95.5 20q57 0 99.5 -21.5t71.5 -54t43.5 -72t14.5 -75.5q0 -40 -16 -80t-45.5 -71.5t-72 -51.5t-95.5 -20zM139 217q0 -20 7 -40t21.5 -36.5t37 -27t52.5 -10.5q31 0 53 11t36.5 28
t21 37t6.5 38q0 20 -7.5 40t-22 36.5t-36.5 27t-51 10.5q-32 0 -54 -11t-36.5 -28t-21 -37t-6.5 -38z" />
    <glyph glyph-name="oneinferior" unicode="&#x2081;" horiz-adv-x="371" 
d="M354 107v-107h-307v107h103v221q-6 -7 -20 -16t-31.5 -17.5t-35.5 -14t-33 -5.5v109q19 0 40.5 9t39 20t29 20t11.5 10h110v-336h94z" />
    <glyph glyph-name="twoinferior" unicode="&#x2082;" horiz-adv-x="448" 
d="M26 0q0 43 6 74.5t21 56t41 43.5t67 36q24 10 46.5 19.5t40.5 20t29 22.5t11 29q0 23 -19.5 30.5t-52.5 7.5q-38 0 -69 -13.5t-51 -30.5l-68 80q22 29 75 49.5t130 20.5q86 0 132.5 -36.5t46.5 -108.5q0 -34 -12.5 -58t-31 -41t-40.5 -27t-41 -15q-36 -10 -58 -21
t-22 -31h206v-107h-387z" />
    <glyph glyph-name="threeinferior" unicode="&#x2083;" horiz-adv-x="422" 
d="M192 -6q-60 0 -104.5 17t-64.5 54l57 84q3 -4 11 -11.5t22.5 -15t35 -13t49.5 -5.5q15 0 30 2t27 6t19.5 11t7.5 17q0 23 -39.5 31.5t-108.5 8.5h-25v99h24q59 0 96.5 9t37.5 30q0 9 -7 14.5t-17.5 8t-22 3.5t-19.5 1q-41 0 -65.5 -12t-45.5 -32l-69 89q13 14 33 24.5
t43.5 17.5t49 10.5t50.5 3.5q40 0 74.5 -9t59 -25.5t38.5 -38.5t14 -47q0 -36 -26.5 -59.5t-71.5 -30.5q51 -7 79.5 -39t28.5 -76q0 -35 -17.5 -59t-45.5 -39t-64.5 -22t-73.5 -7z" />
    <glyph glyph-name="fourinferior" unicode="&#x2084;" horiz-adv-x="431" 
d="M234 1v83h-215v107l249 250h74v-250h64v-107h-64v-83h-108zM120 191h118v121z" />
    <glyph glyph-name="fiveinferior" unicode="&#x2085;" horiz-adv-x="412" 
d="M215 289q37 0 68.5 -10.5t55 -29.5t36.5 -45.5t13 -57.5q0 -33 -14.5 -61t-41 -48.5t-63 -31.5t-79.5 -11q-55 0 -100.5 18.5t-70.5 50.5l62 76q21 -19 50.5 -29.5t65.5 -10.5q33 0 56.5 11.5t23.5 41.5q0 15 -6.5 26t-17 18t-22.5 10t-23 3q-23 0 -47 -12t-34 -31h-94
q13 69 31 137t30 138h258v-109h-180l-17 -51q7 2 21.5 5t38.5 3z" />
    <glyph glyph-name="sixinferior" unicode="&#x2086;" horiz-adv-x="442" 
d="M416 148q0 -32 -14.5 -60t-40.5 -49t-61.5 -33t-77.5 -12q-91 0 -142 56.5t-51 161.5q0 108 55.5 170t152.5 62q47 0 88.5 -15t71.5 -44l-62 -77q-17 16 -44.5 24t-58.5 8q-46 0 -73.5 -17t-29.5 -49q17 11 45.5 15t52.5 4q42 0 77 -11t60 -30.5t38.5 -46t13.5 -57.5z
M224 94q36 0 62.5 16t26.5 38t-26 36.5t-63 14.5q-38 0 -64 -14.5t-26 -36.5t27 -38t63 -16z" />
    <glyph glyph-name="seveninferior" unicode="&#x2087;" horiz-adv-x="416" 
d="M253 332h-230v109h400l-259 -440h-123z" />
    <glyph glyph-name="eightinferior" unicode="&#x2088;" horiz-adv-x="440" 
d="M412 133q0 -30 -15.5 -55.5t-41.5 -44t-61 -29t-74 -10.5t-74.5 10.5t-61.5 29.5t-41.5 45t-15.5 56q0 19 6.5 34t17 27t25 21.5t30.5 17.5q-25 11 -43.5 30t-18.5 50q0 27 15.5 50t40.5 39.5t56.5 26t62.5 9.5t62.5 -9t57 -25.5t41.5 -39t16 -49.5q0 -29 -18 -49.5
t-45 -32.5q35 -17 57 -41t22 -61zM302 145q0 19 -25.5 30t-57.5 11q-34 0 -58 -11.5t-24 -29.5q0 -19 26 -30.5t57 -11.5q32 0 57 12t25 30zM152 305q0 -14 21.5 -22t45.5 -8t46 8t22 22t-20.5 22t-47.5 8t-47 -8t-20 -22z" />
    <glyph glyph-name="nineinferior" unicode="&#x2089;" horiz-adv-x="442" 
d="M26 289q0 33 14.5 61t40.5 49t61.5 33t77.5 12q91 0 142 -57t51 -162q0 -108 -55 -169.5t-152 -61.5q-48 0 -89.5 15t-71.5 44l62 77q17 -16 44.5 -24.5t58.5 -8.5q46 0 73.5 17.5t29.5 49.5q-16 -11 -44.5 -15.5t-54.5 -4.5q-42 0 -76.5 11t-59 30.5t-38.5 46t-14 57.5z
M218 344q-36 0 -62 -16.5t-26 -38.5q0 -21 26 -35.5t63 -14.5t63 14.5t26 35.5q0 22 -26.5 38.5t-63.5 16.5z" />
    <glyph glyph-name="Euro" unicode="&#x20ac;" horiz-adv-x="761" 
d="M114 454q13 52 42 99t71 83t97 57t121 21q95 0 166 -42.5t105 -112.5l-149 -106q-9 26 -23.5 43t-31.5 27t-36 14t-35 4q-46 0 -75.5 -25t-46.5 -62h188l-40 -100h-167q0 -22 3 -43h176l-40 -100h-91q18 -20 42 -32t53 -12q17 0 35 4.5t34.5 15t30 27t21.5 40.5l159 -95
q-15 -39 -45.5 -70t-69.5 -52t-83 -32t-86 -11q-54 0 -101 16.5t-86 46t-69.5 69t-49.5 85.5h-99l40 100h31q-2 11 -2 21.5t-1 21.5h-68l40 100h40z" />
    <glyph glyph-name="trademark" unicode="&#x2122;" horiz-adv-x="912" 
d="M370 592h-95v-191h-120v191h-95v120h310v-120zM667 710h182v-309h-120v161l-48 -119h-97l-48 119v-161h-120v309h181l35 -131z" />
    <glyph glyph-name="onethird" unicode="&#x2153;" horiz-adv-x="1038" 
d="M802 -6q-60 0 -104.5 17t-64.5 54l57 84q3 -4 11 -11.5t22.5 -15t35 -13t49.5 -5.5q15 0 30 2t27 6t19.5 11t7.5 17q0 23 -39.5 31.5t-108.5 8.5h-25v99h24q59 0 96.5 9t37.5 30q0 9 -7 14.5t-17.5 8t-22 3.5t-19.5 1q-41 0 -65.5 -12t-45.5 -32l-69 89q13 14 33 24.5
t43.5 17.5t49 10.5t50.5 3.5q40 0 74.5 -9t59 -25.5t38.5 -38.5t14 -47q0 -36 -26.5 -59.5t-71.5 -30.5q51 -7 79.5 -39t28.5 -76q0 -35 -17.5 -59t-45.5 -39t-64.5 -22t-73.5 -7zM311 395v-107h-253v107h76v221q-5 -7 -16 -16t-24 -17.5t-27 -14t-26 -5.5v109q15 0 31.5 9
t30 20t22.5 20t9 10h110v-336h67zM160 65l283 319l251 337l83 -75l-271 -309l-263 -347z" />
    <glyph glyph-name="twothirds" unicode="&#x2154;" horiz-adv-x="1055" 
d="M819 -6q-60 0 -104.5 17t-64.5 54l57 84q3 -4 11 -11.5t22.5 -15t35 -13t49.5 -5.5q15 0 30 2t27 6t19.5 11t7.5 17q0 23 -39.5 31.5t-108.5 8.5h-25v99h24q59 0 96.5 9t37.5 30q0 9 -7 14.5t-17.5 8t-22 3.5t-19.5 1q-41 0 -65.5 -12t-45.5 -32l-69 89q13 14 33 24.5
t43.5 17.5t49 10.5t50.5 3.5q40 0 74.5 -9t59 -25.5t38.5 -38.5t14 -47q0 -36 -26.5 -59.5t-71.5 -30.5q51 -7 79.5 -39t28.5 -76q0 -35 -17.5 -59t-45.5 -39t-64.5 -22t-73.5 -7zM40 285q0 43 5.5 74.5t19 56t37 43.5t60.5 36q22 10 43 19.5t37.5 20t26.5 22.5t10 29
q0 23 -17.5 30.5t-48.5 7.5q-35 0 -63.5 -13.5t-45.5 -30.5l-62 80q20 29 68.5 49.5t117.5 20.5q79 0 121.5 -36.5t42.5 -108.5q0 -34 -11 -58t-28 -41t-37 -27t-38 -15q-33 -10 -53 -21t-20 -31h171v-107h-336zM216 65l283 319l251 337l83 -75l-271 -309l-263 -347z" />
    <glyph glyph-name="oneeighth" unicode="&#x215b;" horiz-adv-x="1032" 
d="M998 133q0 -30 -15.5 -55.5t-41.5 -44t-61 -29t-74 -10.5t-74.5 10.5t-61.5 29.5t-41.5 45t-15.5 56q0 19 6.5 34t17 27t25 21.5t30.5 17.5q-25 11 -43.5 30t-18.5 50q0 27 15.5 50t40.5 39.5t56.5 26t62.5 9.5t62.5 -9t57 -25.5t41.5 -39t16 -49.5q0 -29 -18 -49.5
t-45 -32.5q35 -17 57 -41t22 -61zM888 145q0 19 -25.5 30t-57.5 11q-34 0 -58 -11.5t-24 -29.5q0 -19 26 -30.5t57 -11.5q32 0 57 12t25 30zM738 305q0 -14 21.5 -22t45.5 -8t46 8t22 22t-20.5 22t-47.5 8t-47 -8t-20 -22zM311 395v-107h-253v107h76v221q-5 -7 -16 -16
t-24 -17.5t-27 -14t-26 -5.5v109q15 0 31.5 9t30 20t22.5 20t9 10h110v-336h67zM172 65l283 319l251 337l83 -75l-271 -309l-263 -347z" />
    <glyph glyph-name="threeeighths" unicode="&#x215c;" horiz-adv-x="1049" 
d="M1015 133q0 -30 -15.5 -55.5t-41.5 -44t-61 -29t-74 -10.5t-74.5 10.5t-61.5 29.5t-41.5 45t-15.5 56q0 19 6.5 34t17 27t25 21.5t30.5 17.5q-25 11 -43.5 30t-18.5 50q0 27 15.5 50t40.5 39.5t56.5 26t62.5 9.5t62.5 -9t57 -25.5t41.5 -39t16 -49.5q0 -29 -18 -49.5
t-45 -32.5q35 -17 57 -41t22 -61zM905 145q0 19 -25.5 30t-57.5 11q-34 0 -58 -11.5t-24 -29.5q0 -19 26 -30.5t57 -11.5q32 0 57 12t25 30zM755 305q0 -14 21.5 -22t45.5 -8t46 8t22 22t-20.5 22t-47.5 8t-47 -8t-20 -22zM216 65l283 319l251 337l83 -75l-271 -309
l-263 -347zM207 279q-60 0 -104.5 17t-64.5 54l57 84q4 -4 12 -11.5t22.5 -15t35 -13t49.5 -5.5q15 0 29.5 2t26.5 6t19.5 11t7.5 17q0 23 -39.5 31.5t-108.5 8.5h-25v99h24q59 0 96.5 9t37.5 30q0 9 -7 14.5t-17.5 8t-22 3.5t-19.5 1q-41 0 -65.5 -12t-45.5 -32l-69 89
q13 14 33 24.5t43.5 17.5t49 10.5t50.5 3.5q40 0 74.5 -9t59 -25.5t38.5 -38.5t14 -47q0 -36 -26.5 -59.5t-71.5 -30.5q51 -7 79.5 -39t28.5 -76q0 -35 -17.5 -59t-45.5 -39t-64.5 -22t-73.5 -7z" />
    <glyph glyph-name="fiveeighths" unicode="&#x215d;" horiz-adv-x="1071" 
d="M1036 133q0 -30 -15.5 -55.5t-41.5 -44t-61 -29t-74 -10.5t-74.5 10.5t-61.5 29.5t-41.5 45t-15.5 56q0 19 6.5 34t17 27t25 21.5t30.5 17.5q-25 11 -43.5 30t-18.5 50q0 27 15.5 50t40.5 39.5t56.5 26t62.5 9.5t62.5 -9t57 -25.5t41.5 -39t16 -49.5q0 -29 -18 -49.5
t-45 -32.5q35 -17 57 -41t22 -61zM926 145q0 19 -25.5 30t-57.5 11q-34 0 -58 -11.5t-24 -29.5q0 -19 26 -30.5t57 -11.5q32 0 57 12t25 30zM776 305q0 -14 21.5 -22t45.5 -8t46 8t22 22t-20.5 22t-47.5 8t-47 -8t-20 -22zM228 579q37 0 68.5 -10.5t55 -29.5t36.5 -45.5
t13 -57.5q0 -33 -14.5 -61t-41 -48.5t-63 -31.5t-79.5 -11q-55 0 -100.5 18.5t-70.5 50.5l62 76q21 -19 50.5 -29.5t65.5 -10.5q33 0 56.5 11.5t23.5 41.5q0 15 -6.5 26t-17 18t-22.5 10t-23 3q-23 0 -47 -12t-34 -31h-94q13 69 31 137t30 138h258v-109h-180l-17 -51
q7 2 21.5 5t38.5 3zM222 65l283 319l251 337l83 -75l-271 -309l-263 -347z" />
    <glyph glyph-name="seveneighths" unicode="&#x215e;" horiz-adv-x="994" 
d="M270 622h-230v109h400l-259 -440h-123zM116 65l283 319l251 337l83 -75l-271 -309l-263 -347zM960 133q0 -30 -15.5 -55.5t-41.5 -44t-61 -29t-74 -10.5t-74.5 10.5t-61.5 29.5t-41.5 45t-15.5 56q0 19 6.5 34t17 27t25 21.5t30.5 17.5q-25 11 -43.5 30t-18.5 50
q0 27 15.5 50t40.5 39.5t56.5 26t62.5 9.5t62.5 -9t57 -25.5t41.5 -39t16 -49.5q0 -29 -18 -49.5t-45 -32.5q35 -17 57 -41t22 -61zM850 145q0 19 -25.5 30t-57.5 11q-34 0 -58 -11.5t-24 -29.5q0 -19 26 -30.5t57 -11.5q32 0 57 12t25 30zM700 305q0 -14 21.5 -22t45.5 -8
t46 8t22 22t-20.5 22t-47.5 8t-47 -8t-20 -22z" />
    <glyph glyph-name="minus" unicode="&#x2212;" horiz-adv-x="514" 
d="M55 280v150h404v-150h-404z" />
    <glyph glyph-name="uni2215" unicode="&#x2215;" horiz-adv-x="646" 
d="M-20 79l578 642l107 -89l-578 -642z" />
    <glyph glyph-name="uni2219" unicode="&#x2219;" horiz-adv-x="254" 
d="M50 238v184h154v-184h-154z" />
    <glyph glyph-name="commaaccent" unicode="&#xf6c3;" horiz-adv-x="241" 
d="M24 -140q43 0 43 30v64h154v-72q0 -33 -15 -52t-41.5 -28.5t-62.5 -12t-78 -2.5v73z" />
    <glyph glyph-name="s_t" unicode="&#xfb06;" horiz-adv-x="911" 
d="M904 29q-40 -17 -85.5 -28.5t-89.5 -11.5q-32 0 -61 8t-50.5 26t-34 47t-12.5 72v241h-65v143h65q-1 66 -12.5 95.5t-51.5 29.5q-38 0 -58.5 -22.5t-20.5 -54.5q0 -23 10 -48t29 -46l-69 -121q-51 26 -86 36.5t-63 10.5q-23 0 -35.5 -7t-12.5 -21q0 -17 19.5 -25
t64.5 -20q59 -16 97.5 -32t61.5 -34.5t32 -42t9 -54.5q0 -87 -57.5 -133.5t-157.5 -46.5q-32 0 -67.5 5t-70.5 13t-67 19.5t-56 25.5l69 129q52 -29 99 -44t87 -15q48 0 48 25q0 16 -20 24.5t-70 22.5q-52 15 -87.5 29.5t-57.5 32t-32 39.5t-10 53q0 43 16.5 77.5t44.5 59
t64.5 38t75.5 13.5q10 0 26.5 -1t35 -4.5t37.5 -10t36 -16.5q-11 17 -15 35t-4 40q0 31 12 58.5t36.5 48t63.5 32t93 11.5q69 0 109.5 -13.5t61.5 -40t27 -64.5t6 -86h103v-143h-103v-174q0 -26 11 -36.5t30 -10.5q14 0 32 4.5t36 12.5z" />
    <glyph glyph-name="A.sc" horiz-adv-x="600" 
d="M-9 0l240 568h138l239 -568h-180l-41 102h-175l-40 -102h-181zM300 363l-52 -113h101z" />
    <glyph glyph-name="B.sc" horiz-adv-x="611" 
d="M587 145q0 -39 -18 -66.5t-48.5 -45t-71 -25.5t-86.5 -8h-308v568h362q33 0 59.5 -12.5t45 -33.5t28.5 -47t10 -53q0 -39 -22.5 -76t-67.5 -55q54 -14 85.5 -49.5t31.5 -96.5zM414 181q0 18 -12.5 29t-32.5 11h-144v-78h138q21 0 36 9t15 29zM225 423v-69h119
q18 0 32.5 5t14.5 30q0 20 -12.5 27t-29.5 7h-124z" />
    <glyph glyph-name="C.sc" horiz-adv-x="594" 
d="M22 289q0 52 21 102.5t60.5 90.5t96.5 64.5t130 24.5q86 0 150 -33.5t94 -90.5l-130 -93q-8 19 -21.5 32t-29.5 20.5t-33.5 10.5t-32.5 3q-34 0 -59 -12t-41 -31.5t-24 -44t-8 -48.5q0 -27 9 -52t26.5 -44t42 -30.5t56.5 -11.5q16 0 33 3.5t32.5 11t28 20t19.5 30.5
l139 -84q-14 -32 -41.5 -56.5t-62.5 -41t-74.5 -25.5t-77.5 -9q-67 0 -122.5 25.5t-95.5 67t-62.5 94t-22.5 107.5z" />
    <glyph glyph-name="D.sc" horiz-adv-x="645" 
d="M55 0v568h244q79 0 139.5 -22t101 -60.5t61 -90t20.5 -110.5q0 -65 -23 -117.5t-65 -89.5t-101.5 -57.5t-132.5 -20.5h-244zM448 285q0 61 -39.5 98t-109.5 37h-74v-272h74q72 0 110.5 38.5t38.5 98.5z" />
    <glyph glyph-name="E.sc" horiz-adv-x="541" 
d="M509 148v-148h-454v568h446v-148h-276v-62h236v-138h-236v-72h284z" />
    <glyph glyph-name="F.sc" horiz-adv-x="505" 
d="M55 0v568h437v-148h-267v-78h219v-138h-219v-204h-170z" />
    <glyph glyph-name="G.alt" horiz-adv-x="711" 
d="M381 -5q-80 0 -146 30.5t-113 81.5t-73.5 117t-26.5 137q0 67 24 131t69 113.5t110.5 79.5t148.5 30q92 0 162 -37t110 -108l-155 -121q-2 5 -10 20.5t-23.5 31.5t-39 28.5t-56.5 12.5q-36 0 -63 -16t-44.5 -42.5t-26 -60t-8.5 -67.5q0 -31 7.5 -64.5t24 -61t43.5 -45
t66 -17.5q42 0 74.5 18.5t46.5 41.5h-111v170h322v-89q0 -65 -22 -122t-62.5 -99.5t-98.5 -67.5t-129 -25z" />
    <glyph glyph-name="G.sc" horiz-adv-x="624" 
d="M449 41q-32 -24 -65 -34.5t-73 -10.5q-58 0 -110.5 23.5t-92 63.5t-62.5 93t-23 113t23.5 112t64.5 90t96.5 59.5t119.5 21.5q81 0 144.5 -33t94.5 -91l-127 -97q-16 31 -49 50.5t-69 19.5q-55 0 -90 -37.5t-35 -100.5t36 -99.5t94 -36.5q52 0 100 37h-94v122h258v-306
h-141v41z" />
    <glyph glyph-name="H.sc" horiz-adv-x="672" 
d="M617 568v-568h-170v216h-222v-216h-170v568h170v-203h222v203h170z" />
    <glyph glyph-name="I.sc" horiz-adv-x="280" 
d="M55 0v568h170v-568h-170z" />
    <glyph glyph-name="J.sc" horiz-adv-x="452" 
d="M42 165q3 -1 12 -5t23 -8t31 -7t37 -3q29 0 46.5 7t26.5 23.5t12 42.5t3 64v289h170v-289q0 -65 -8 -118t-35 -91t-78 -58.5t-137 -20.5q-81 0 -139 35z" />
    <glyph glyph-name="K.sc" horiz-adv-x="622" 
d="M55 0v568h170v-218l219 218h175l-233 -255l249 -313h-178l-172 218l-60 -50v-168h-170z" />
    <glyph glyph-name="L.sc" horiz-adv-x="483" 
d="M55 0v568h170v-420h248v-148h-418z" />
    <glyph glyph-name="M.sc" horiz-adv-x="767" 
d="M542 0v275l-113 -189h-91l-113 189v-275h-170v568h186l143 -250l143 250h185v-568h-170z" />
    <glyph glyph-name="N.sc" horiz-adv-x="677" 
d="M225 253v-253h-170v568h133l264 -262v262h170v-568h-135z" />
    <glyph glyph-name="O.sc" horiz-adv-x="656" 
d="M327 -5q-68 0 -124.5 24.5t-96.5 65t-62 93t-22 107.5q0 56 23 108t64 91.5t97.5 63t123.5 23.5q69 0 125 -25t96 -65.5t61.5 -93t21.5 -106.5q0 -56 -22.5 -107.5t-63.5 -91t-97.5 -63.5t-123.5 -24zM195 283q0 -26 8.5 -50.5t25 -44t41.5 -31t59 -11.5t59 12t41 32
t24 44.5t8 50.5t-8.5 50.5t-25 43t-41.5 30t-58 11.5q-34 0 -59 -12t-41.5 -31t-24.5 -44t-8 -50z" />
    <glyph glyph-name="P.sc" horiz-adv-x="558" 
d="M55 0v568h275q46 0 85.5 -17.5t68 -45.5t44.5 -63.5t16 -72.5q0 -38 -15 -74t-42.5 -64t-66.5 -45t-86 -17h-109v-169h-170zM225 318h98q18 0 33 9.5t15 41.5q0 16 -5 26t-12.5 15.5t-16.5 7.5t-18 2h-94v-102z" />
    <glyph glyph-name="Q.sc" horiz-adv-x="659" 
d="M476 31q-33 -17 -70 -26t-79 -9q-68 0 -124.5 24.5t-96.5 65t-62 92.5t-22 107q0 56 23 108t64 91.5t97.5 63.5t123.5 24q69 0 125 -25t96 -66t61.5 -93.5t21.5 -106.5q0 -50 -18 -95.5t-50 -83.5l100 -102h-159zM329 147q16 0 30 3l-97 99h160l26 -27q7 14 10 30t3 33
q0 26 -8.5 50.5t-25 43.5t-41.5 30.5t-58 11.5q-34 0 -59 -12t-41.5 -31.5t-24.5 -44.5t-8 -50q0 -26 8.5 -50.5t25 -43.5t41.5 -30.5t59 -11.5z" />
    <glyph glyph-name="R.sc" horiz-adv-x="616" 
d="M55 0v568h292q47 0 86 -17.5t67.5 -45.5t44.5 -63.5t16 -72.5q0 -48 -24.5 -90.5t-69.5 -71.5l145 -207h-193l-122 169h-72v-169h-170zM225 318h116q18 0 32.5 12.5t14.5 38.5t-17 38.5t-35 12.5h-111v-102z" />
    <glyph glyph-name="S.sc" horiz-adv-x="541" 
d="M427 371q-3 2 -18.5 10.5t-38 17.5t-50 16t-54.5 7q-22 0 -35 -3.5t-13 -13.5q0 -18 30 -26t83 -24q42 -12 76.5 -26.5t58.5 -35t37 -48.5t13 -68q0 -53 -20.5 -88.5t-53.5 -57t-75 -30.5t-85 -9q-33 0 -69 5t-70.5 13.5t-67.5 20.5t-60 26l74 149q4 -5 22 -15t45 -20
t60.5 -17.5t68.5 -7.5q26 0 36.5 4.5t10.5 10.5q0 10 -11 16.5t-29.5 12.5t-43 11.5t-51.5 14.5q-81 26 -118 63.5t-37 102.5q0 46 19 82t50.5 60t73 36.5t86.5 12.5q33 0 65.5 -6t62 -15t55 -20t46.5 -20z" />
    <glyph glyph-name="T.sc" horiz-adv-x="566" 
d="M554 420h-185v-420h-171v420h-186v148h542v-148z" />
    <glyph glyph-name="U.sc" horiz-adv-x="651" 
d="M325 146q31 0 52 10.5t34 28.5t19 41.5t6 48.5v293h170v-293q0 -60 -17 -111t-51.5 -88.5t-87.5 -59t-125 -21.5q-75 0 -128 22.5t-86.5 61t-49.5 89t-16 107.5v293h170v-293q0 -26 6 -49.5t19.5 -41t34 -28t50.5 -10.5z" />
    <glyph glyph-name="V.sc" horiz-adv-x="601" 
d="M171 568l130 -327l128 327h179l-236 -568h-142l-239 568h180z" />
    <glyph glyph-name="W.alt" horiz-adv-x="1138" 
d="M1144 711l-219 -710h-202l-154 390l-153 -391h-202l-219 710h221l119 -415l128 415h212l129 -414l118 415h222z" />
    <glyph glyph-name="W.sc" horiz-adv-x="953" 
d="M262 568h156l58 -171l58 171h157l-106 -275l41 -89l150 364h186l-252 -568h-141l-93 192l-92 -192h-142l-251 568h184l152 -364l39 89z" />
    <glyph glyph-name="X.sc" horiz-adv-x="597" 
d="M178 568l121 -169l120 169h184l-215 -288l208 -280h-184l-113 161l-113 -161h-185l208 280l-215 288h184z" />
    <glyph glyph-name="Y.sc" horiz-adv-x="585" 
d="M173 568l119 -237l121 237h185l-221 -383v-185h-170v186l-218 382h184z" />
    <glyph glyph-name="Z.sc" horiz-adv-x="569" 
d="M29 126l305 294h-292v148h489v-126l-288 -294h293v-148h-507v126z" />
    <glyph glyph-name="a.alt" horiz-adv-x="647" 
d="M268 -10q-54 0 -99.5 20t-78.5 56.5t-51.5 87t-18.5 110.5q0 58 17 108t47.5 86.5t72.5 57t92 20.5q53 0 95 -23t65 -65v70h190v-518h-189v69q-23 -40 -56.5 -59.5t-85.5 -19.5zM410 298q-14 36 -41.5 57t-57.5 21q-20 0 -37.5 -9.5t-30.5 -25t-20 -36.5t-7 -45
q0 -50 29 -80t74 -30q29 0 50.5 13.5t40.5 40.5v94z" />
    <glyph glyph-name="a.alt2" horiz-adv-x="584" 
d="M359 0v65q-52 -75 -156 -75q-39 0 -73 13t-58.5 35.5t-38.5 53.5t-14 67q0 40 17 73t47 57t71.5 37t91.5 13q64 0 106 -20v16q0 37 -21.5 55t-69.5 18q-45 0 -83 -14.5t-80 -42.5l-55 118q104 67 237 67q126 0 194 -56t68 -168v-312h-183zM327 146q11 8 18 17.5t7 19.5
v39q-17 6 -37 10t-36 4q-35 0 -58 -17t-23 -43q0 -22 17.5 -36t44.5 -14q17 0 35 5.5t32 14.5z" />
    <glyph glyph-name="c_t" horiz-adv-x="1003" 
d="M996 29q-40 -17 -85.5 -28.5t-89.5 -11.5q-32 0 -61 8t-50.5 26t-34 47t-12.5 72v241h-65v143h65q0 34 -3.5 58t-11 39t-20.5 21.5t-33 6.5q-43 0 -59 -24.5t-16 -60.5q0 -23 4.5 -47.5t11.5 -47.5t15 -43.5t14 -34.5l-185 -56q-27 39 -73 39q-39 0 -66 -29.5t-27 -83.5
t27 -83.5t66 -29.5q46 0 73 39l185 -56q-32 -63 -96.5 -103t-160.5 -40q-70 0 -124 22.5t-90.5 60t-55.5 87t-19 104.5q0 54 18.5 103t55.5 86.5t92.5 60t129.5 22.5q24 0 43 -2.5t35.5 -7t32 -11.5t32.5 -16q-8 21 -11 40.5t-3 36.5q0 75 53 114.5t156 39.5q75 0 115.5 -19
t59 -49t22 -66t3.5 -70h103v-143h-103v-174q0 -26 11 -36.5t30 -10.5q14 0 32 4.5t36 12.5z" />
    <glyph glyph-name="caron.alt" horiz-adv-x="284" 
d="M165 556l-120 32l50 142h169z" />
    <glyph glyph-name="d.alt" horiz-adv-x="647" 
d="M410 0v69q-23 -40 -56.5 -59.5t-85.5 -19.5q-54 0 -99.5 20t-78.5 56.5t-51.5 87t-18.5 110.5q0 58 17 108t47.5 86.5t72.5 57t92 20.5q53 0 95 -23t65 -65v282h190v-730h-189zM410 298q-14 36 -41.5 57t-57.5 21q-20 0 -37.5 -9.5t-30.5 -25t-20 -36.5t-7 -45
q0 -50 29 -80t74 -30q29 0 50.5 13.5t40.5 40.5v94z" />
    <glyph glyph-name="eight.lnum" horiz-adv-x="612" 
d="M574 221q0 -52 -21 -94.5t-57.5 -73t-85.5 -47t-104 -16.5q-53 0 -101.5 16.5t-85.5 47.5t-59 75t-22 98q0 27 8 50t20.5 42t27.5 34t30 26q-29 17 -47.5 51t-18.5 69q0 51 23.5 90.5t59.5 66.5t80 40.5t85 13.5t85 -13.5t80.5 -39.5t60 -65.5t23.5 -90.5q0 -35 -19 -70
t-48 -52q15 -11 30.5 -26.5t27.5 -35.5t20 -44t8 -52zM381 232q0 33 -21.5 51t-53.5 18q-33 0 -54 -18.5t-21 -50.5q0 -29 21.5 -49t53.5 -20q33 0 54 20t21 49zM251 495q0 -27 17.5 -40t37.5 -13t38 13t18 40q0 20 -15.5 34t-40.5 14t-40 -14t-15 -34z" />
    <glyph glyph-name="five.lnum" horiz-adv-x="576" 
d="M305 466q52 0 95 -17t74.5 -47.5t49 -73t17.5 -93.5q0 -54 -20 -99t-56.5 -77t-87 -50t-111.5 -18q-78 0 -140.5 29t-96.5 83l104 120q29 -31 64.5 -48.5t69.5 -17.5q37 0 58 20t21 54q0 33 -19 53t-50 20q-21 0 -38.5 -9.5t-26.5 -25.5h-163l84 442h356v-173h-219
l-11 -77q4 1 11 2q5 1 14 2t21 1z" />
    <glyph glyph-name="four.lnum" horiz-adv-x="597" 
d="M282 1v136h-257v170l317 404h130v-404h88v-170h-88v-136h-190zM212 307h92v120z" />
    <glyph glyph-name="j.alt" 
d="M48 517h190v-730h-190v730zM48 730h189v-160h-189v160z" />
    <glyph glyph-name="l.alt" 
d="M48 730h190v-730h-190v730z" />
    <glyph glyph-name="nine.lnum" horiz-adv-x="608" 
d="M36 466q0 52 20 98t56 79.5t84.5 53t105.5 19.5q64 0 113.5 -23.5t83.5 -68.5t52 -110t18 -148q0 -88 -19.5 -157.5t-56.5 -118t-90 -74.5t-120 -26q-130 0 -226 96l105 122q54 -54 124 -54q49 0 77.5 29.5t30.5 83.5q-38 -34 -108 -34q-54 0 -99.5 17.5t-79 49t-52.5 74
t-19 92.5zM302 557q-17 0 -32.5 -7.5t-27 -20t-18.5 -29t-7 -34.5q0 -35 25 -59.5t60 -24.5t60 24.5t25 59.5q0 18 -7 34.5t-18.5 29t-27 20t-32.5 7.5z" />
    <glyph glyph-name="one.lnum" horiz-adv-x="550" 
d="M528 170v-170h-463v170h142v362q-8 -12 -27.5 -26.5t-43 -28t-49 -22.5t-45.5 -9v174q27 0 56 14.5t53 31.5t39.5 32t16.5 17h194v-545h127z" />
    <glyph glyph-name="q.alt" horiz-adv-x="646" 
d="M244 -10q-48 0 -89 20.5t-71 57.5t-47 87.5t-17 109.5q0 58 18.5 108t50.5 86t76.5 56.5t97.5 20.5q60 0 101 -24t69 -67v81h165v-740h-190v292q-23 -43 -65 -65.5t-99 -22.5zM318 150q52 0 90 54v94q-14 35 -41 56.5t-57 21.5q-21 0 -38.5 -9t-30 -25t-20 -37t-7.5 -45
q0 -50 28.5 -80t75.5 -30z" />
    <glyph glyph-name="seven.lnum" horiz-adv-x="595" 
d="M306 538h-271v173h570l-347 -710h-215z" />
    <glyph glyph-name="six.lnum" horiz-adv-x="608" 
d="M572 240q0 -53 -20 -98.5t-56 -79t-84.5 -53t-105.5 -19.5q-128 0 -197.5 92t-69.5 258q0 88 19.5 157.5t56.5 118t90 74.5t120 26q130 0 226 -96l-105 -122q-54 54 -124 54q-49 0 -77.5 -29.5t-30.5 -83.5q38 34 108 34q54 0 99.5 -17.5t79 -49t52.5 -74t19 -92.5z
M306 149q17 0 32.5 7.5t27 20t18.5 29t7 34.5q0 35 -25 59.5t-60 24.5t-60 -24.5t-25 -59.5q0 -18 7 -34.5t18.5 -29t27 -20t32.5 -7.5z" />
    <glyph glyph-name="t.alt" horiz-adv-x="412" 
d="M91 0v424h-80v170h80v138h195v-138h120v-170h-120v-424h-195z" />
    <glyph glyph-name="three.lnum" horiz-adv-x="586" 
d="M263 -9q-80 0 -136.5 28t-91.5 88l97 132q3 -3 10.5 -15t22 -25t37.5 -23.5t57 -10.5q17 0 33 3t28.5 10t20 18t7.5 27q0 39 -47.5 53.5t-136.5 14.5h-33v157h32q33 0 63 3.5t53.5 11.5t37 20.5t13.5 31.5q0 14 -6.5 21.5t-15.5 11.5t-18 4.5t-13 0.5q-28 0 -49.5 -7
t-37.5 -17t-26.5 -21t-17.5 -20l-120 141q20 22 49 39t62.5 28t69 17t69.5 6q55 0 102.5 -15t82 -41t54 -61.5t19.5 -76.5q0 -58 -36 -96t-93 -49q33 -5 59 -22t44 -41.5t28 -55.5t10 -64q0 -56 -25.5 -95t-66 -64t-91 -36t-100.5 -11z" />
    <glyph glyph-name="two.lnum" horiz-adv-x="633" 
d="M38 0q0 69 6 120.5t24 91.5t52.5 70.5t91.5 57.5q31 15 59 29.5t49.5 31.5t34 38t12.5 48q0 36 -19.5 49.5t-45.5 13.5q-39 0 -78.5 -22t-68.5 -50l-117 127q20 22 49.5 42.5t67 36.5t81.5 25t93 9q122 0 188.5 -59t66.5 -169q0 -41 -9.5 -72t-27.5 -55.5t-44.5 -45
t-59.5 -39.5q-21 -12 -43 -24.5t-39.5 -25.5t-28.5 -27.5t-11 -30.5h264v-170h-547z" />
    <glyph glyph-name="u.alt" horiz-adv-x="621" 
d="M391 0v70q-27 -44 -74 -62t-98 -18q-88 0 -131.5 46.5t-43.5 143.5v346h190v-303q0 -35 15 -54t47 -19q18 0 41 10t46 44v322h190v-526h-182z" />
    <glyph glyph-name="w.alt" horiz-adv-x="899" 
d="M518 0l-69 229l-68 -229h-207l-177 526h195l94 -302l75 302h177l75 -302l94 302h195l-177 -526h-207z" />
    <glyph glyph-name="y.alt" horiz-adv-x="546" 
d="M549 526l-223 -739h-222l83 213l-191 526h195l100 -365l81 365h177z" />
    <glyph glyph-name="zero.lnum" horiz-adv-x="714" 
d="M357 -10q-80 0 -140 33.5t-100.5 86t-61 116.5t-20.5 124q0 64 22.5 128.5t64 116t101 83.5t134.5 32q79 0 139.5 -34.5t101 -87.5t61 -116.5t20.5 -121.5q0 -65 -22.5 -129.5t-64 -115.5t-101 -83t-134.5 -32zM233 350q0 -33 7 -66t22 -60t38.5 -44t56.5 -17q34 0 58 18
t38.5 46t21 60.5t6.5 62.5q0 33 -7 66t-22 60t-38.5 44t-56.5 17q-35 0 -58.5 -18t-38 -46t-21 -60.5t-6.5 -62.5z" />
    </font>
</defs>
</svg>
